<?xml version="1.0" encoding="utf-8"?>
<!-- Generator: Adobe Illustrator 16.0.0, SVG Export Plug-In . SVG Version: 6.00 Build 0)  -->
<!DOCTYPE svg PUBLIC "-//W3C//DTD SVG 1.1//EN" "http://www.w3.org/Graphics/SVG/1.1/DTD/svg11.dtd">
<svg version="1.1" xmlns="http://www.w3.org/2000/svg" xmlns:xlink="http://www.w3.org/1999/xlink" x="0px" y="0px"
	 width="1087.379px" height="255.996px" viewBox="0 0 1087.379 255.996" enable-background="new 0 0 1087.379 255.996"
	 xml:space="preserve">
<g id="Layer_1">
</g>
<g id="Layer_2" display="none">
</g>
<g id="Layer_3" display="none">
</g>
<g id="Layer_4">
	<rect fill="#F7941E" width="1087.379" height="255.996"/>
	<rect x="8.733" y="11.679" fill="#F7C180" width="1067.946" height="45.321"/>
	<g>
		<rect x="8.733" y="124.679" fill="#F7C180" width="309.721" height="122.494"/>
		<rect x="333.687" y="124.679" fill="#F7C180" width="418.039" height="122.494"/>
		<rect x="766.958" y="124.679" fill="#F7C180" width="201.403" height="122.494"/>
		<rect x="983.594" y="124.679" fill="#F7C180" width="93.085" height="122.494"/>
	</g>
	<g>
		<rect x="333.687" y="70.251" fill="#F7C180" width="93.085" height="39.498"/>
		<rect x="442.005" y="70.251" fill="#F7C180" width="93.085" height="39.498"/>
		<rect x="550.323" y="70.251" fill="#F7C180" width="93.085" height="39.498"/>
		<rect x="8.733" y="70.251" fill="#F7C180" width="93.085" height="39.498"/>
		<rect x="117.051" y="70.251" fill="#F7C180" width="93.085" height="39.498"/>
		<rect x="225.369" y="70.251" fill="#F7C180" width="93.085" height="39.498"/>
		<rect x="658.641" y="70.251" fill="#F7C180" width="93.085" height="39.498"/>
		<rect x="766.958" y="70.251" fill="#F7C180" width="93.085" height="39.498"/>
		<rect x="875.276" y="70.251" fill="#F7C180" width="93.085" height="39.498"/>
		<rect x="983.594" y="70.251" fill="#F7C180" width="93.085" height="39.498"/>
	</g>
	<g>
		<g>
			<path fill="#5C5D60" d="M166.086,94.745c0-2.431,1.452-4.151,3.824-5.16l-0.029-0.088c-2.136-1.008-3.054-2.669-3.054-4.33
				c0-3.053,2.58-5.129,5.959-5.129c3.736,0,5.604,2.343,5.604,4.744c0,1.631-0.8,3.38-3.172,4.507v0.088
				c2.402,0.948,3.885,2.639,3.885,4.981c0,3.35-2.876,5.604-6.554,5.604C168.518,99.963,166.086,97.562,166.086,94.745z
				 M176.464,94.626c0-2.342-1.631-3.469-4.241-4.21c-2.254,0.651-3.469,2.135-3.469,3.973c-0.088,1.958,1.394,3.677,3.855,3.677
				C174.952,98.066,176.464,96.614,176.464,94.626z M169.289,84.99c0,1.928,1.452,2.964,3.676,3.559
				c1.661-0.564,2.936-1.75,2.936-3.5c0-1.542-0.918-3.142-3.262-3.142C170.475,81.907,169.289,83.331,169.289,84.99z"/>
			<path fill="#5C5D60" d="M277.064,97.799c0.563,0.059,1.215,0,2.105-0.09c1.513-0.207,2.936-0.829,4.032-1.867
				c1.276-1.156,2.194-2.847,2.55-5.129h-0.089c-1.067,1.304-2.608,2.075-4.536,2.075c-3.469,0-5.693-2.609-5.693-5.901
				c0-3.647,2.639-6.849,6.583-6.849s6.375,3.202,6.375,8.124c0,4.24-1.423,7.205-3.321,9.044c-1.482,1.452-3.529,2.342-5.604,2.579
				c-0.949,0.149-1.779,0.178-2.402,0.149V97.799z M278.013,86.71c0,2.401,1.453,4.091,3.706,4.091c1.749,0,3.113-0.859,3.795-2.016
				c0.148-0.237,0.238-0.534,0.238-0.949c0-3.291-1.215-5.811-3.943-5.811C279.585,82.025,278.013,83.982,278.013,86.71z"/>
			<path fill="#5C5D60" d="M380.006,82.797h-0.059l-3.351,1.808l-0.504-1.987l4.21-2.253h2.225v19.272h-2.521V82.797z"/>
			<path fill="#5C5D60" d="M400.369,89.793c0,6.554-2.431,10.17-6.701,10.17c-3.765,0-6.315-3.528-6.375-9.903
				c0-6.463,2.788-10.021,6.701-10.021C398.057,80.039,400.369,83.656,400.369,89.793z M389.903,90.09
				c0,5.011,1.542,7.857,3.914,7.857c2.669,0,3.944-3.113,3.944-8.036c0-4.744-1.216-7.857-3.914-7.857
				C391.563,82.054,389.903,84.841,389.903,90.09z"/>
			<path fill="#5C5D60" d="M495.636,82.797h-0.059l-3.351,1.808l-0.505-1.987l4.21-2.253h2.225v19.272h-2.521V82.797z"/>
			<path fill="#5C5D60" d="M507.854,82.797h-0.059l-3.351,1.808l-0.503-1.987l4.209-2.253h2.225v19.272h-2.521V82.797z"/>
			<path fill="#5C5D60" d="M598.893,82.797h-0.059l-3.351,1.808l-0.504-1.987l4.21-2.253h2.225v19.272h-2.521V82.797z"/>
			<path fill="#5C5D60" d="M606.448,99.637v-1.601l2.046-1.987c4.922-4.685,7.146-7.175,7.175-10.081
				c0-1.957-0.949-3.767-3.824-3.767c-1.749,0-3.203,0.89-4.092,1.631l-0.83-1.838c1.335-1.126,3.232-1.957,5.456-1.957
				c4.151,0,5.9,2.847,5.9,5.604c0,3.558-2.58,6.434-6.642,10.348l-1.542,1.423v0.059h8.658v2.164H606.448z"/>
			<path fill="#5C5D60" d="M705.389,82.797h-0.059l-3.351,1.808l-0.504-1.987l4.21-2.253h2.225v19.272h-2.521V82.797z"/>
			<path fill="#5C5D60" d="M713.566,96.643c0.741,0.474,2.461,1.215,4.27,1.215c3.351,0,4.388-2.134,4.359-3.736
				c-0.03-2.698-2.461-3.854-4.982-3.854h-1.452v-1.957h1.452c1.897,0,4.3-0.978,4.3-3.262c0-1.542-0.979-2.905-3.38-2.905
				c-1.542,0-3.025,0.682-3.854,1.274l-0.682-1.897c1.008-0.741,2.965-1.482,5.04-1.482c3.795,0,5.515,2.254,5.515,4.596
				c0,1.987-1.187,3.677-3.559,4.536v0.061c2.372,0.475,4.3,2.252,4.3,4.951c0,3.083-2.402,5.781-7.027,5.781
				c-2.164,0-4.062-0.682-5.011-1.305L713.566,96.643z"/>
			<path fill="#5C5D60" d="M815.07,82.797h-0.059l-3.351,1.808l-0.505-1.987l4.21-2.253h2.225v19.272h-2.521V82.797z"/>
			<path fill="#5C5D60" d="M829.689,99.637v-5.248h-8.955V92.67l8.6-12.305h2.816v11.979h2.698v2.045h-2.698v5.248H829.689z
				 M829.689,92.344V85.91c0-1.009,0.03-2.017,0.089-3.024h-0.089c-0.593,1.127-1.067,1.956-1.601,2.846l-4.714,6.554v0.06H829.689z
				"/>
			<path fill="#5C5D60" d="M921.054,82.797h-0.059l-3.351,1.808l-0.504-1.987l4.21-2.253h2.225v19.272h-2.521V82.797z"/>
			<path fill="#5C5D60" d="M940.114,82.559h-7.354l-0.741,4.952c0.444-0.059,0.859-0.119,1.572-0.119
				c1.482,0,2.964,0.326,4.151,1.037c1.511,0.861,2.757,2.521,2.757,4.952c0,3.766-2.995,6.583-7.175,6.583
				c-2.105,0-3.884-0.593-4.803-1.186l0.652-1.987c0.8,0.474,2.372,1.067,4.122,1.067c2.461,0,4.566-1.601,4.566-4.18
				c-0.03-2.491-1.69-4.27-5.544-4.27c-1.097,0-1.957,0.119-2.669,0.208l1.246-9.251h9.222V82.559z"/>
			<path fill="#5C5D60" d="M1030.868,82.797h-0.059l-3.351,1.808l-0.504-1.987l4.21-2.253h2.225v19.272h-2.521V82.797z"/>
			<path fill="#5C5D60" d="M1049.423,82.203c-0.534-0.029-1.216,0-1.957,0.118c-4.092,0.683-6.256,3.677-6.701,6.85h0.088
				c0.919-1.216,2.521-2.224,4.656-2.224c3.409,0,5.811,2.461,5.811,6.227c0,3.528-2.402,6.79-6.404,6.79
				c-4.123,0-6.82-3.202-6.82-8.213c0-3.795,1.364-6.789,3.262-8.687c1.601-1.572,3.736-2.55,6.167-2.846
				c0.771-0.12,1.423-0.148,1.898-0.148V82.203z M1048.682,93.322c0-2.757-1.572-4.418-3.973-4.418
				c-1.572,0-3.025,0.979-3.736,2.372c-0.179,0.297-0.297,0.682-0.297,1.156c0.059,3.172,1.513,5.516,4.241,5.516
				C1047.169,97.948,1048.682,96.08,1048.682,93.322z"/>
			<g>
				<g>
					<path fill="#5C5D60" d="M71.526,81.888v1.338c0,0.4-0.044,0.723-0.131,0.969c-0.087,0.246-0.173,0.452-0.256,0.619l-6.837,14.1
						c-0.142,0.292-0.342,0.54-0.6,0.744s-0.608,0.306-1.05,0.306h-2.238l7-13.812c0.292-0.566,0.617-1.054,0.975-1.462h-8.65
						c-0.192,0-0.358-0.071-0.5-0.212c-0.142-0.142-0.212-0.309-0.212-0.5v-2.088H71.526z"/>
				</g>
			</g>
			<path fill="#5C5D60" d="M365.831,96.91h7.75v2.038h-10.175V81.035h2.425V96.91z"/>
			<path fill="#5C5D60" d="M476.482,93.104c0.087,0.221,0.173,0.444,0.256,0.669c0.083-0.233,0.171-0.457,0.263-0.669
				s0.196-0.427,0.312-0.644l6.062-11.013c0.108-0.191,0.221-0.308,0.337-0.35c0.117-0.042,0.283-0.062,0.5-0.062H486v17.913h-2.125
				V85.785c0-0.175,0.004-0.362,0.013-0.562c0.008-0.2,0.021-0.404,0.037-0.612l-6.137,11.2c-0.208,0.375-0.5,0.562-0.875,0.562
				h-0.35c-0.375,0-0.667-0.188-0.875-0.562l-6.275-11.237c0.025,0.217,0.043,0.429,0.056,0.638c0.013,0.208,0.019,0.4,0.019,0.575
				v13.163h-2.125V81.035h1.788c0.217,0,0.383,0.021,0.5,0.062c0.117,0.042,0.229,0.159,0.337,0.35l6.188,11.025
				C476.292,92.673,476.394,92.883,476.482,93.104z"/>
			<path fill="#5C5D60" d="M580.808,89.748l-5.913-8.712h2.413c0.175,0,0.304,0.029,0.388,0.087c0.083,0.059,0.158,0.142,0.225,0.25
				l4.675,7.175c0.058-0.175,0.146-0.367,0.263-0.575l4.412-6.55c0.075-0.117,0.156-0.21,0.244-0.281
				c0.087-0.071,0.193-0.106,0.318-0.106h2.312l-5.938,8.6l6.138,9.312h-2.4c-0.184,0-0.327-0.048-0.431-0.144
				c-0.104-0.096-0.19-0.202-0.256-0.319l-4.8-7.513c-0.058,0.175-0.133,0.342-0.225,0.5l-4.675,7.013
				c-0.075,0.117-0.161,0.223-0.256,0.319s-0.231,0.144-0.406,0.144h-2.25L580.808,89.748z"/>
			<path fill="#5C5D60" d="M693.747,92.76c0,1-0.123,1.896-0.369,2.688c-0.246,0.792-0.608,1.46-1.088,2.006
				c-0.479,0.546-1.068,0.964-1.769,1.256c-0.7,0.292-1.504,0.438-2.413,0.438c-0.808,0-1.65-0.117-2.525-0.35
				c0.017-0.242,0.038-0.481,0.062-0.719c0.025-0.238,0.05-0.473,0.075-0.707c0.017-0.142,0.068-0.256,0.156-0.344
				c0.087-0.087,0.219-0.131,0.394-0.131c0.15,0,0.35,0.037,0.6,0.112s0.583,0.112,1,0.112c0.55,0,1.04-0.083,1.469-0.25
				c0.429-0.167,0.792-0.425,1.087-0.775s0.521-0.798,0.675-1.344c0.154-0.545,0.231-1.194,0.231-1.944V81.035h2.413V92.76z"/>
			<path fill="#5C5D60" d="M38.359,81.044h1.938c0.216,0,0.392,0.054,0.525,0.163s0.233,0.246,0.3,0.413l5.062,12.637
				c0.117,0.284,0.223,0.592,0.319,0.925s0.189,0.679,0.281,1.038c0.075-0.358,0.156-0.704,0.244-1.038
				c0.088-0.333,0.189-0.642,0.307-0.925l5.037-12.637c0.059-0.142,0.158-0.273,0.3-0.394c0.142-0.121,0.316-0.181,0.525-0.181h1.95
				l-7.3,17.913h-2.188L38.359,81.044z"/>
			<path fill="#5C5D60" d="M159.994,83.835c-0.075,0.125-0.154,0.219-0.238,0.281c-0.083,0.062-0.191,0.094-0.325,0.094
				c-0.142,0-0.306-0.071-0.494-0.213c-0.188-0.142-0.425-0.298-0.713-0.469c-0.287-0.17-0.633-0.327-1.037-0.469
				c-0.404-0.142-0.894-0.212-1.469-0.212c-0.542,0-1.021,0.073-1.438,0.219c-0.417,0.146-0.765,0.344-1.044,0.594
				s-0.49,0.544-0.631,0.881s-0.212,0.702-0.212,1.094c0,0.5,0.123,0.915,0.369,1.244c0.246,0.33,0.571,0.611,0.975,0.844
				c0.404,0.233,0.862,0.436,1.375,0.606s1.038,0.348,1.575,0.531c0.537,0.183,1.062,0.39,1.575,0.619
				c0.513,0.229,0.971,0.519,1.375,0.869s0.729,0.779,0.975,1.288c0.246,0.508,0.369,1.133,0.369,1.875
				c0,0.783-0.133,1.519-0.4,2.206s-0.656,1.286-1.169,1.794c-0.512,0.508-1.142,0.908-1.887,1.2
				c-0.746,0.292-1.594,0.438-2.544,0.438c-1.158,0-2.214-0.21-3.168-0.631c-0.955-0.421-1.769-0.99-2.444-1.707l0.7-1.15
				c0.067-0.091,0.148-0.168,0.244-0.231c0.096-0.062,0.202-0.094,0.318-0.094c0.175,0,0.375,0.094,0.6,0.281
				s0.506,0.394,0.844,0.619s0.746,0.431,1.225,0.619c0.479,0.188,1.064,0.281,1.756,0.281c0.575,0,1.087-0.079,1.538-0.237
				c0.45-0.158,0.831-0.381,1.144-0.669s0.552-0.631,0.719-1.031c0.167-0.4,0.25-0.846,0.25-1.337c0-0.542-0.123-0.985-0.369-1.332
				c-0.246-0.346-0.569-0.635-0.969-0.869c-0.4-0.233-0.856-0.431-1.369-0.594c-0.513-0.163-1.038-0.329-1.575-0.5
				c-0.538-0.17-1.062-0.369-1.575-0.594c-0.512-0.225-0.969-0.517-1.369-0.875c-0.4-0.358-0.723-0.806-0.969-1.344
				s-0.369-1.202-0.369-1.994c0-0.633,0.123-1.246,0.369-1.837s0.602-1.117,1.069-1.575c0.467-0.458,1.044-0.825,1.731-1.1
				c0.688-0.275,1.477-0.412,2.369-0.412c1,0,1.913,0.158,2.737,0.475c0.825,0.317,1.546,0.775,2.163,1.375L159.994,83.835z"/>
			<path fill="#5C5D60" d="M271.755,89.998c0,1.342-0.213,2.562-0.638,3.663s-1.025,2.042-1.8,2.825
				c-0.775,0.783-1.705,1.39-2.788,1.819c-1.083,0.429-2.284,0.644-3.6,0.644h-6.7V81.035h6.7c1.316,0,2.517,0.215,3.6,0.644
				c1.083,0.429,2.012,1.037,2.788,1.825c0.775,0.788,1.375,1.731,1.8,2.832C271.542,87.435,271.755,88.656,271.755,89.998z
				 M269.267,89.998c0-1.1-0.15-2.083-0.45-2.95c-0.3-0.867-0.725-1.6-1.275-2.2c-0.55-0.6-1.217-1.058-2-1.375
				c-0.783-0.316-1.654-0.475-2.612-0.475h-4.263v13.988h4.263c0.958,0,1.829-0.158,2.612-0.475c0.783-0.316,1.45-0.773,2-1.369
				c0.55-0.596,0.975-1.327,1.275-2.194C269.117,92.081,269.267,91.098,269.267,89.998z"/>
			<path fill="#5C5D60" d="M791.207,81.044h1.938c0.216,0,0.392,0.054,0.525,0.163s0.233,0.246,0.3,0.413l5.062,12.637
				c0.117,0.284,0.223,0.592,0.319,0.925s0.189,0.679,0.281,1.038c0.075-0.358,0.156-0.704,0.244-1.038
				c0.088-0.333,0.189-0.642,0.307-0.925l5.037-12.637c0.059-0.142,0.158-0.273,0.3-0.394c0.142-0.121,0.316-0.181,0.525-0.181h1.95
				l-7.3,17.913h-2.188L791.207,81.044z"/>
			<path fill="#5C5D60" d="M912.842,83.835c-0.075,0.125-0.154,0.219-0.238,0.281c-0.083,0.062-0.191,0.094-0.325,0.094
				c-0.142,0-0.306-0.071-0.494-0.213c-0.188-0.142-0.425-0.298-0.713-0.469c-0.287-0.17-0.633-0.327-1.037-0.469
				c-0.404-0.142-0.894-0.212-1.469-0.212c-0.542,0-1.021,0.073-1.438,0.219c-0.417,0.146-0.765,0.344-1.044,0.594
				s-0.49,0.544-0.631,0.881s-0.212,0.702-0.212,1.094c0,0.5,0.123,0.915,0.369,1.244c0.246,0.33,0.571,0.611,0.975,0.844
				c0.404,0.233,0.862,0.436,1.375,0.606s1.038,0.348,1.575,0.531c0.537,0.183,1.062,0.39,1.575,0.619
				c0.513,0.229,0.971,0.519,1.375,0.869s0.729,0.779,0.975,1.288c0.246,0.508,0.369,1.133,0.369,1.875
				c0,0.783-0.133,1.519-0.4,2.206s-0.656,1.286-1.169,1.794c-0.512,0.508-1.142,0.908-1.887,1.2
				c-0.746,0.292-1.594,0.438-2.544,0.438c-1.158,0-2.214-0.21-3.168-0.631c-0.955-0.421-1.769-0.99-2.444-1.707l0.7-1.15
				c0.067-0.091,0.148-0.168,0.244-0.231c0.096-0.062,0.202-0.094,0.318-0.094c0.175,0,0.375,0.094,0.6,0.281
				s0.506,0.394,0.844,0.619s0.746,0.431,1.225,0.619c0.479,0.188,1.064,0.281,1.756,0.281c0.575,0,1.087-0.079,1.538-0.237
				c0.45-0.158,0.831-0.381,1.144-0.669s0.552-0.631,0.719-1.031c0.167-0.4,0.25-0.846,0.25-1.337c0-0.542-0.123-0.985-0.369-1.332
				c-0.246-0.346-0.569-0.635-0.969-0.869c-0.4-0.233-0.856-0.431-1.369-0.594c-0.513-0.163-1.038-0.329-1.575-0.5
				c-0.538-0.17-1.062-0.369-1.575-0.594c-0.512-0.225-0.969-0.517-1.369-0.875c-0.4-0.358-0.723-0.806-0.969-1.344
				s-0.369-1.202-0.369-1.994c0-0.633,0.123-1.246,0.369-1.837s0.602-1.117,1.069-1.575c0.467-0.458,1.044-0.825,1.731-1.1
				c0.688-0.275,1.477-0.412,2.369-0.412c1,0,1.913,0.158,2.737,0.475c0.825,0.317,1.546,0.775,2.163,1.375L912.842,83.835z"/>
			<path fill="#5C5D60" d="M1024.603,89.998c0,1.342-0.213,2.562-0.638,3.663s-1.025,2.042-1.8,2.825
				c-0.775,0.783-1.705,1.39-2.788,1.819c-1.083,0.429-2.284,0.644-3.6,0.644h-6.7V81.035h6.7c1.316,0,2.517,0.215,3.6,0.644
				c1.083,0.429,2.012,1.037,2.788,1.825c0.775,0.788,1.375,1.731,1.8,2.832C1024.39,87.435,1024.603,88.656,1024.603,89.998z
				 M1022.115,89.998c0-1.1-0.15-2.083-0.45-2.95c-0.3-0.867-0.725-1.6-1.275-2.2c-0.55-0.6-1.217-1.058-2-1.375
				c-0.783-0.316-1.654-0.475-2.612-0.475h-4.263v13.988h4.263c0.958,0,1.829-0.158,2.612-0.475c0.783-0.316,1.45-0.773,2-1.369
				c0.55-0.596,0.975-1.327,1.275-2.194C1021.965,92.081,1022.115,91.098,1022.115,89.998z"/>
		</g>
	</g>
	<rect x="55.276" y="156.998" fill="none" width="216.636" height="61"/>
	<text transform="matrix(1 0 0 1 104.6636 175.5723)"><tspan x="0" y="0" fill="#5C5D60" font-family="'Lato-Bold'" font-size="25">Workshop</tspan><tspan x="-17.549" y="30" fill="#5C5D60" font-family="'Lato-Bold'" font-size="25">Crafting Type</tspan></text>
	<rect x="759.342" y="156.998" fill="none" width="216.636" height="61"/>
	<text transform="matrix(1 0 0 1 793.7549 175.5723)"><tspan x="0" y="0" fill="#5C5D60" font-family="'Lato-Bold'" font-size="25">Conferencias</tspan><tspan x="21.431" y="30" fill="#5C5D60" font-family="'Lato-Bold'" font-size="25">Typomad</tspan></text>
	<rect x="436.372" y="156.998" fill="none" width="216.636" height="61"/>
	<text transform="matrix(1 0 0 1 500.0029 175.5723)"><tspan x="0" y="0" fill="#5C5D60" font-family="'Lato-Bold'" font-size="25">Talleres </tspan><tspan x="-55.543" y="30" fill="#5C5D60" font-family="'Lato-Bold'" font-size="25">(Aún sin anunciar)</tspan></text>
	<rect x="983.594" y="156.998" fill="none" width="93.085" height="61"/>
	<text transform="matrix(1 0 0 1 997.4683 175.5723)" fill="#5C5D60" font-family="'Lato-Bold'" font-size="25">Safari</text>
	<rect x="304.207" y="23.679" fill="none" width="477" height="30.5"/>
	<text transform="matrix(1 0 0 1 468.1948 42.2544)" fill="#5C5D60" font-family="'Lato-Bold'" font-size="25">NOVIEMBRE</text>
</g>
</svg>
