<?xml version="1.0" encoding="utf-8"?>
<!-- Generator: Adobe Illustrator 16.0.0, SVG Export Plug-In . SVG Version: 6.00 Build 0)  -->
<!DOCTYPE svg PUBLIC "-//W3C//DTD SVG 1.1//EN" "http://www.w3.org/Graphics/SVG/1.1/DTD/svg11.dtd">
<svg version="1.1" id="Layer_1" xmlns="http://www.w3.org/2000/svg" xmlns:xlink="http://www.w3.org/1999/xlink" x="0px" y="0px"
	 width="1087.379px" height="255.996px" viewBox="0 0 1087.379 255.996" enable-background="new 0 0 1087.379 255.996"
	 xml:space="preserve">
<g id="Layer_1_1_">
</g>
<g id="Layer_2" display="none">
</g>
<g id="Layer_3" display="none">
</g>
<g id="Layer_4">
	<g>
		<rect x="0" fill="#F7941E" width="1087.379" height="255.996"/>
	</g>
	<g>
		<rect x="8.733" y="11.679" fill="#F7C180" width="1067.946" height="45.321"/>
	</g>
	<g>
		<g>
			<rect x="8.733" y="124.679" fill="#F7C180" width="309.721" height="122.494"/>
		</g>
		<g>
			<rect x="333.687" y="124.679" fill="#F7C180" width="93.085" height="122.494"/>
		</g>
		<g>
			<rect x="766.957" y="124.679" fill="#F7C180" width="201.403" height="122.494"/>
		</g>
		<g>
			<rect x="983.594" y="124.679" fill="#F7C180" width="93.085" height="122.494"/>
		</g>
	</g>
	<g>
		<g>
			<rect x="333.687" y="70.251" fill="#F7C180" width="93.085" height="39.498"/>
		</g>
		<g>
			<rect x="442.005" y="70.251" fill="#F7C180" width="93.085" height="39.498"/>
		</g>
		<g>
			<rect x="550.323" y="70.251" fill="#F7C180" width="93.085" height="39.498"/>
		</g>
		<g>
			<rect x="8.733" y="70.251" fill="#F7C180" width="93.085" height="39.498"/>
		</g>
		<g>
			<rect x="117.051" y="70.251" fill="#F7C180" width="93.085" height="39.498"/>
		</g>
		<g>
			<rect x="225.369" y="70.251" fill="#F7C180" width="93.084" height="39.498"/>
		</g>
		<g>
			<rect x="658.641" y="70.251" fill="#F7C180" width="93.085" height="39.498"/>
		</g>
		<g>
			<rect x="766.957" y="70.251" fill="#F7C180" width="93.086" height="39.498"/>
		</g>
		<g>
			<rect x="875.276" y="70.251" fill="#F7C180" width="93.085" height="39.498"/>
		</g>
		<g>
			<rect x="983.594" y="70.251" fill="#F7C180" width="93.085" height="39.498"/>
		</g>
	</g>
	<g>
		<g>
			<g>
				<path fill="#5C5D60" d="M166.086,94.745c0-2.431,1.452-4.151,3.824-5.16l-0.029-0.088c-2.136-1.008-3.054-2.669-3.054-4.33
					c0-3.053,2.579-5.129,5.959-5.129c3.735,0,5.604,2.343,5.604,4.744c0,1.631-0.8,3.38-3.172,4.507v0.088
					c2.402,0.948,3.885,2.639,3.885,4.981c0,3.35-2.876,5.604-6.554,5.604C168.518,99.963,166.086,97.562,166.086,94.745z
					 M176.464,94.626c0-2.342-1.631-3.469-4.241-4.21c-2.254,0.651-3.469,2.135-3.469,3.973c-0.088,1.958,1.394,3.677,3.854,3.677
					C174.952,98.066,176.464,96.614,176.464,94.626z M169.289,84.99c0,1.928,1.452,2.964,3.676,3.559
					c1.661-0.564,2.936-1.75,2.936-3.5c0-1.542-0.918-3.142-3.262-3.142C170.475,81.907,169.289,83.331,169.289,84.99z"/>
			</g>
			<g>
				<path fill="#5C5D60" d="M277.064,97.799c0.563,0.059,1.215,0,2.105-0.09c1.513-0.207,2.936-0.829,4.032-1.867
					c1.275-1.156,2.193-2.847,2.55-5.129h-0.089c-1.067,1.304-2.608,2.075-4.536,2.075c-3.469,0-5.693-2.609-5.693-5.901
					c0-3.647,2.639-6.849,6.583-6.849s6.375,3.202,6.375,8.124c0,4.24-1.423,7.205-3.321,9.044
					c-1.481,1.452-3.528,2.342-5.604,2.579c-0.949,0.149-1.779,0.178-2.402,0.149V97.799z M278.013,86.71
					c0,2.401,1.453,4.091,3.706,4.091c1.749,0,3.113-0.859,3.795-2.016c0.148-0.237,0.238-0.534,0.238-0.949
					c0-3.291-1.215-5.811-3.943-5.811C279.585,82.025,278.013,83.982,278.013,86.71z"/>
			</g>
			<g>
				<path fill="#5C5D60" d="M380.006,82.797h-0.06l-3.351,1.808l-0.504-1.987l4.21-2.253h2.225v19.272h-2.521V82.797z"/>
			</g>
			<g>
				<path fill="#5C5D60" d="M400.368,89.793c0,6.554-2.431,10.17-6.7,10.17c-3.766,0-6.315-3.528-6.375-9.903
					c0-6.463,2.787-10.021,6.7-10.021C398.057,80.039,400.368,83.656,400.368,89.793z M389.903,90.09
					c0,5.011,1.542,7.857,3.914,7.857c2.669,0,3.944-3.113,3.944-8.036c0-4.744-1.216-7.857-3.914-7.857
					C391.563,82.054,389.903,84.841,389.903,90.09z"/>
			</g>
			<g>
				<path fill="#5C5D60" d="M495.636,82.797h-0.06l-3.351,1.808l-0.505-1.987l4.21-2.253h2.225v19.272h-2.521L495.636,82.797
					L495.636,82.797z"/>
			</g>
			<g>
				<path fill="#5C5D60" d="M507.854,82.797h-0.059l-3.352,1.808l-0.503-1.987l4.209-2.253h2.226v19.272h-2.521V82.797z"/>
			</g>
			<g>
				<path fill="#5C5D60" d="M598.893,82.797h-0.059l-3.352,1.808l-0.504-1.987l4.21-2.253h2.225v19.272h-2.521V82.797
					L598.893,82.797z"/>
			</g>
			<g>
				<path fill="#5C5D60" d="M606.448,99.637v-1.601l2.046-1.987c4.923-4.685,7.146-7.175,7.176-10.081
					c0-1.957-0.949-3.767-3.824-3.767c-1.749,0-3.203,0.89-4.092,1.631l-0.83-1.838c1.335-1.126,3.231-1.957,5.456-1.957
					c4.15,0,5.899,2.847,5.899,5.604c0,3.558-2.58,6.434-6.642,10.348l-1.542,1.423v0.059h8.658v2.164h-12.306V99.637z"/>
			</g>
			<g>
				<path fill="#5C5D60" d="M705.389,82.797h-0.06l-3.351,1.808l-0.504-1.987l4.21-2.253h2.225v19.272h-2.521V82.797L705.389,82.797
					z"/>
			</g>
			<g>
				<path fill="#5C5D60" d="M713.566,96.643c0.741,0.474,2.461,1.215,4.271,1.215c3.351,0,4.388-2.134,4.358-3.736
					c-0.03-2.698-2.461-3.854-4.981-3.854h-1.452v-1.957h1.452c1.896,0,4.3-0.978,4.3-3.262c0-1.542-0.979-2.905-3.38-2.905
					c-1.542,0-3.025,0.682-3.854,1.274l-0.682-1.897c1.008-0.741,2.965-1.482,5.04-1.482c3.795,0,5.515,2.254,5.515,4.596
					c0,1.987-1.187,3.677-3.559,4.536v0.061c2.372,0.475,4.3,2.252,4.3,4.951c0,3.083-2.402,5.781-7.027,5.781
					c-2.164,0-4.062-0.682-5.011-1.305L713.566,96.643z"/>
			</g>
			<g>
				<path fill="#5C5D60" d="M815.07,82.797h-0.059l-3.352,1.808l-0.505-1.987l4.21-2.253h2.226v19.272h-2.521L815.07,82.797
					L815.07,82.797z"/>
			</g>
			<g>
				<path fill="#5C5D60" d="M829.689,99.637v-5.248h-8.955V92.67l8.601-12.305h2.815v11.979h2.698v2.045h-2.698v5.248H829.689
					L829.689,99.637z M829.689,92.344V85.91c0-1.009,0.03-2.017,0.089-3.024h-0.089c-0.593,1.127-1.067,1.956-1.601,2.846
					l-4.715,6.554v0.06h6.315V92.344z"/>
			</g>
			<g>
				<path fill="#5C5D60" d="M921.054,82.797h-0.06l-3.351,1.808l-0.504-1.987l4.21-2.253h2.225v19.272h-2.521V82.797z"/>
			</g>
			<g>
				<path fill="#5C5D60" d="M940.114,82.559h-7.354l-0.741,4.952c0.444-0.059,0.858-0.119,1.572-0.119
					c1.481,0,2.964,0.326,4.15,1.037c1.511,0.861,2.757,2.521,2.757,4.952c0,3.766-2.994,6.583-7.175,6.583
					c-2.104,0-3.884-0.593-4.803-1.186l0.652-1.987c0.8,0.474,2.372,1.067,4.122,1.067c2.461,0,4.565-1.601,4.565-4.18
					c-0.03-2.491-1.689-4.27-5.544-4.27c-1.097,0-1.957,0.119-2.669,0.208l1.246-9.251h9.222v2.194H940.114z"/>
			</g>
			<g>
				<path fill="#5C5D60" d="M1030.867,82.797h-0.059l-3.351,1.808l-0.505-1.987l4.211-2.253h2.225v19.272h-2.521V82.797z"/>
			</g>
			<g>
				<path fill="#5C5D60" d="M1049.423,82.203c-0.534-0.029-1.216,0-1.957,0.118c-4.093,0.683-6.257,3.677-6.701,6.85h0.088
					c0.919-1.216,2.521-2.224,4.656-2.224c3.409,0,5.811,2.461,5.811,6.227c0,3.528-2.401,6.79-6.404,6.79
					c-4.123,0-6.819-3.202-6.819-8.213c0-3.795,1.363-6.789,3.262-8.687c1.601-1.572,3.736-2.55,6.167-2.846
					c0.771-0.12,1.423-0.148,1.897-0.148L1049.423,82.203L1049.423,82.203z M1048.682,93.322c0-2.757-1.572-4.418-3.973-4.418
					c-1.572,0-3.025,0.979-3.736,2.372c-0.179,0.297-0.297,0.682-0.297,1.156c0.059,3.172,1.513,5.516,4.24,5.516
					C1047.168,97.948,1048.682,96.08,1048.682,93.322z"/>
			</g>
			<g>
				<g>
					<g>
						<path fill="#5C5D60" d="M71.526,81.888v1.338c0,0.4-0.044,0.723-0.131,0.969s-0.173,0.452-0.256,0.619l-6.837,14.1
							c-0.142,0.292-0.342,0.54-0.6,0.744c-0.259,0.204-0.608,0.306-1.051,0.306h-2.237l7-13.812
							c0.292-0.566,0.616-1.054,0.975-1.462h-8.65c-0.191,0-0.357-0.071-0.5-0.212c-0.142-0.142-0.212-0.309-0.212-0.5V81.89h12.499
							V81.888z"/>
					</g>
				</g>
			</g>
			<g>
				<path fill="#5C5D60" d="M365.83,96.91h7.75v2.038h-10.175V81.035h2.425V96.91z"/>
			</g>
			<g>
				<path fill="#5C5D60" d="M476.482,93.104c0.087,0.221,0.173,0.444,0.256,0.669c0.083-0.233,0.171-0.457,0.263-0.669
					c0.093-0.212,0.196-0.427,0.312-0.644l6.062-11.013c0.107-0.191,0.221-0.308,0.337-0.35s0.282-0.062,0.5-0.062H486v17.913
					h-2.125V85.785c0-0.175,0.004-0.362,0.013-0.562c0.008-0.2,0.021-0.404,0.037-0.612l-6.138,11.2
					c-0.208,0.375-0.5,0.562-0.875,0.562h-0.35c-0.375,0-0.667-0.188-0.875-0.562l-6.275-11.237
					c0.025,0.217,0.043,0.429,0.057,0.638c0.013,0.208,0.019,0.4,0.019,0.575V98.95h-2.125V81.035h1.788
					c0.217,0,0.383,0.021,0.5,0.062c0.117,0.042,0.229,0.159,0.337,0.35l6.188,11.025C476.291,92.673,476.394,92.883,476.482,93.104
					z"/>
			</g>
			<g>
				<path fill="#5C5D60" d="M580.808,89.748l-5.913-8.712h2.413c0.175,0,0.304,0.029,0.388,0.087
					c0.083,0.059,0.158,0.142,0.226,0.25l4.675,7.175c0.058-0.175,0.146-0.367,0.263-0.575l4.412-6.55
					c0.075-0.117,0.156-0.21,0.244-0.281c0.087-0.071,0.192-0.106,0.317-0.106h2.312l-5.938,8.6l6.139,9.312h-2.4
					c-0.184,0-0.327-0.048-0.431-0.144c-0.104-0.096-0.19-0.202-0.256-0.319l-4.801-7.513c-0.058,0.175-0.133,0.342-0.225,0.5
					l-4.675,7.013c-0.075,0.117-0.161,0.223-0.256,0.319c-0.095,0.096-0.231,0.144-0.406,0.144h-2.25L580.808,89.748z"/>
			</g>
			<g>
				<path fill="#5C5D60" d="M693.746,92.76c0,1-0.123,1.896-0.368,2.688c-0.246,0.792-0.608,1.46-1.089,2.006
					c-0.479,0.546-1.067,0.964-1.769,1.256c-0.7,0.292-1.504,0.438-2.413,0.438c-0.808,0-1.65-0.117-2.525-0.35
					c0.018-0.242,0.038-0.481,0.062-0.719c0.025-0.238,0.05-0.473,0.075-0.707c0.017-0.142,0.067-0.256,0.155-0.344
					c0.088-0.087,0.22-0.131,0.395-0.131c0.15,0,0.35,0.037,0.6,0.112c0.25,0.075,0.583,0.112,1,0.112c0.551,0,1.04-0.083,1.47-0.25
					c0.429-0.167,0.792-0.425,1.087-0.775c0.295-0.35,0.521-0.798,0.675-1.344c0.153-0.545,0.23-1.194,0.23-1.944V81.035h2.413
					V92.76H693.746z"/>
			</g>
			<g>
				<path fill="#5C5D60" d="M38.359,81.044h1.938c0.216,0,0.392,0.054,0.524,0.163c0.134,0.109,0.233,0.246,0.301,0.413
					l5.062,12.637c0.117,0.284,0.224,0.592,0.319,0.925s0.188,0.679,0.281,1.038c0.074-0.358,0.155-0.704,0.243-1.038
					c0.089-0.333,0.189-0.642,0.308-0.925l5.037-12.637c0.059-0.142,0.157-0.273,0.3-0.394c0.142-0.121,0.315-0.181,0.524-0.181
					h1.95l-7.3,17.913h-2.188L38.359,81.044z"/>
			</g>
			<g>
				<path fill="#5C5D60" d="M159.994,83.835c-0.075,0.125-0.154,0.219-0.238,0.281c-0.083,0.062-0.191,0.094-0.325,0.094
					c-0.142,0-0.306-0.071-0.494-0.213c-0.188-0.142-0.425-0.298-0.713-0.469c-0.287-0.17-0.633-0.327-1.037-0.469
					c-0.403-0.142-0.894-0.212-1.469-0.212c-0.542,0-1.021,0.073-1.438,0.219s-0.765,0.344-1.044,0.594
					c-0.278,0.25-0.489,0.544-0.631,0.881c-0.141,0.337-0.212,0.702-0.212,1.094c0,0.5,0.123,0.915,0.369,1.244
					c0.246,0.33,0.571,0.611,0.975,0.844c0.404,0.233,0.862,0.436,1.375,0.606c0.514,0.17,1.038,0.348,1.575,0.531
					c0.537,0.183,1.062,0.39,1.575,0.619s0.971,0.519,1.375,0.869c0.404,0.35,0.729,0.779,0.975,1.288
					c0.246,0.508,0.369,1.133,0.369,1.875c0,0.783-0.133,1.519-0.399,2.206c-0.268,0.687-0.656,1.286-1.169,1.794
					c-0.513,0.508-1.143,0.908-1.888,1.2c-0.746,0.292-1.594,0.438-2.544,0.438c-1.158,0-2.214-0.21-3.168-0.631
					c-0.955-0.421-1.769-0.99-2.443-1.707l0.699-1.15c0.067-0.091,0.148-0.168,0.244-0.231c0.097-0.062,0.202-0.094,0.318-0.094
					c0.175,0,0.375,0.094,0.6,0.281c0.226,0.187,0.506,0.394,0.845,0.619c0.338,0.225,0.745,0.431,1.225,0.619
					c0.479,0.188,1.063,0.281,1.756,0.281c0.575,0,1.087-0.079,1.538-0.237c0.45-0.158,0.831-0.381,1.144-0.669
					c0.313-0.288,0.553-0.631,0.72-1.031c0.167-0.4,0.25-0.846,0.25-1.337c0-0.542-0.123-0.985-0.369-1.332
					c-0.246-0.346-0.569-0.635-0.969-0.869c-0.4-0.233-0.856-0.431-1.369-0.594c-0.514-0.163-1.038-0.329-1.575-0.5
					c-0.538-0.17-1.062-0.369-1.575-0.594c-0.512-0.225-0.969-0.517-1.369-0.875c-0.399-0.358-0.723-0.806-0.969-1.344
					s-0.369-1.202-0.369-1.994c0-0.633,0.123-1.246,0.369-1.837c0.246-0.591,0.602-1.117,1.069-1.575
					c0.467-0.458,1.044-0.825,1.73-1.1c0.688-0.275,1.478-0.412,2.369-0.412c1,0,1.913,0.158,2.737,0.475
					c0.825,0.317,1.546,0.775,2.163,1.375L159.994,83.835z"/>
			</g>
			<g>
				<path fill="#5C5D60" d="M271.755,89.998c0,1.342-0.213,2.562-0.638,3.663c-0.426,1.101-1.025,2.042-1.801,2.825
					c-0.774,0.783-1.705,1.39-2.788,1.819c-1.083,0.429-2.283,0.644-3.6,0.644h-6.7V81.035h6.7c1.316,0,2.517,0.215,3.6,0.644
					c1.083,0.429,2.013,1.037,2.788,1.825s1.375,1.731,1.801,2.832C271.542,87.435,271.755,88.656,271.755,89.998z M269.267,89.998
					c0-1.1-0.149-2.083-0.45-2.95c-0.3-0.867-0.725-1.6-1.274-2.2c-0.55-0.6-1.217-1.058-2-1.375
					c-0.783-0.316-1.654-0.475-2.612-0.475h-4.263v13.988h4.263c0.958,0,1.829-0.158,2.612-0.475c0.783-0.316,1.45-0.773,2-1.369
					c0.55-0.596,0.975-1.327,1.274-2.194C269.117,92.081,269.267,91.098,269.267,89.998z"/>
			</g>
			<g>
				<path fill="#5C5D60" d="M791.206,81.044h1.938c0.216,0,0.392,0.054,0.525,0.163c0.133,0.109,0.232,0.246,0.3,0.413l5.062,12.637
					c0.117,0.284,0.224,0.592,0.319,0.925s0.188,0.679,0.281,1.038c0.074-0.358,0.155-0.704,0.243-1.038
					c0.089-0.333,0.189-0.642,0.308-0.925l5.037-12.637c0.059-0.142,0.158-0.273,0.3-0.394s0.316-0.181,0.525-0.181h1.949
					l-7.3,17.913h-2.188L791.206,81.044z"/>
			</g>
			<g>
				<path fill="#5C5D60" d="M912.842,83.835c-0.075,0.125-0.154,0.219-0.238,0.281c-0.083,0.062-0.191,0.094-0.325,0.094
					c-0.142,0-0.306-0.071-0.494-0.213c-0.188-0.142-0.425-0.298-0.713-0.469c-0.287-0.17-0.633-0.327-1.037-0.469
					c-0.403-0.142-0.894-0.212-1.469-0.212c-0.542,0-1.021,0.073-1.438,0.219s-0.766,0.344-1.044,0.594
					c-0.279,0.25-0.49,0.544-0.632,0.881c-0.141,0.337-0.212,0.702-0.212,1.094c0,0.5,0.123,0.915,0.369,1.244
					c0.246,0.33,0.571,0.611,0.976,0.844c0.403,0.233,0.861,0.436,1.375,0.606c0.513,0.17,1.038,0.348,1.574,0.531
					c0.537,0.183,1.062,0.39,1.575,0.619c0.514,0.229,0.971,0.519,1.375,0.869c0.404,0.35,0.729,0.779,0.975,1.288
					c0.246,0.508,0.369,1.133,0.369,1.875c0,0.783-0.133,1.519-0.399,2.206c-0.268,0.687-0.656,1.286-1.169,1.794
					c-0.512,0.508-1.143,0.908-1.887,1.2c-0.746,0.292-1.595,0.438-2.545,0.438c-1.157,0-2.214-0.21-3.168-0.631
					c-0.955-0.421-1.769-0.99-2.443-1.707l0.699-1.15c0.067-0.091,0.148-0.168,0.244-0.231c0.097-0.062,0.202-0.094,0.318-0.094
					c0.175,0,0.375,0.094,0.6,0.281c0.226,0.187,0.506,0.394,0.845,0.619c0.338,0.225,0.745,0.431,1.225,0.619
					s1.064,0.281,1.756,0.281c0.575,0,1.087-0.079,1.538-0.237c0.45-0.158,0.831-0.381,1.145-0.669
					c0.312-0.288,0.552-0.631,0.719-1.031c0.167-0.4,0.25-0.846,0.25-1.337c0-0.542-0.123-0.985-0.369-1.332
					c-0.246-0.346-0.569-0.635-0.969-0.869c-0.4-0.233-0.856-0.431-1.369-0.594c-0.514-0.163-1.038-0.329-1.575-0.5
					c-0.538-0.17-1.062-0.369-1.575-0.594c-0.512-0.225-0.969-0.517-1.369-0.875c-0.399-0.358-0.723-0.806-0.969-1.344
					s-0.369-1.202-0.369-1.994c0-0.633,0.123-1.246,0.369-1.837c0.246-0.591,0.602-1.117,1.069-1.575
					c0.467-0.458,1.044-0.825,1.73-1.1c0.688-0.275,1.478-0.412,2.369-0.412c1,0,1.913,0.158,2.737,0.475s1.546,0.775,2.163,1.375
					L912.842,83.835z"/>
			</g>
			<g>
				<path fill="#5C5D60" d="M1024.603,89.998c0,1.342-0.213,2.562-0.638,3.663c-0.426,1.101-1.025,2.042-1.801,2.825
					c-0.774,0.783-1.705,1.39-2.787,1.819c-1.084,0.429-2.284,0.644-3.601,0.644h-6.7V81.035h6.7c1.316,0,2.518,0.215,3.601,0.644
					c1.082,0.429,2.012,1.037,2.787,1.825s1.375,1.731,1.801,2.832C1024.39,87.435,1024.603,88.656,1024.603,89.998z
					 M1022.115,89.998c0-1.1-0.149-2.083-0.45-2.95c-0.3-0.867-0.725-1.6-1.274-2.2c-0.55-0.6-1.217-1.058-2-1.375
					c-0.783-0.316-1.654-0.475-2.612-0.475h-4.263v13.988h4.263c0.958,0,1.829-0.158,2.612-0.475c0.783-0.316,1.45-0.773,2-1.369
					c0.55-0.596,0.975-1.327,1.274-2.194C1021.965,92.081,1022.115,91.098,1022.115,89.998z"/>
			</g>
		</g>
	</g>
	<g>
		<rect x="55.276" y="156.998" fill="none" width="216.637" height="61"/>
	</g>
	<g enable-background="new    ">
		<path fill="#5C5D60" d="M104.813,157.497h2.825c0.292,0,0.535,0.069,0.731,0.206c0.196,0.138,0.327,0.323,0.394,0.557
			l3.075,10.812c0.075,0.267,0.144,0.557,0.207,0.869s0.123,0.644,0.181,0.993c0.066-0.35,0.14-0.681,0.219-0.993
			s0.165-0.603,0.256-0.869l3.55-10.812c0.067-0.191,0.198-0.366,0.394-0.525c0.195-0.158,0.435-0.237,0.719-0.237h0.987
			c0.292,0,0.533,0.069,0.725,0.206c0.191,0.138,0.325,0.323,0.4,0.557l3.525,10.812c0.183,0.533,0.342,1.125,0.475,1.775
			c0.058-0.325,0.119-0.638,0.181-0.938c0.062-0.301,0.127-0.579,0.194-0.838l3.075-10.812c0.058-0.208,0.188-0.388,0.387-0.537
			c0.2-0.15,0.442-0.226,0.725-0.226h2.638l-5.613,18.075h-3.038l-3.95-12.35c-0.05-0.158-0.102-0.329-0.156-0.513
			s-0.106-0.379-0.156-0.588c-0.05,0.209-0.102,0.404-0.156,0.588s-0.106,0.354-0.156,0.513l-3.988,12.35h-3.037L104.813,157.497z"
			/>
		<path fill="#5C5D60" d="M137.438,162.547c0.958,0,1.827,0.154,2.606,0.463c0.779,0.309,1.443,0.746,1.994,1.312
			c0.55,0.566,0.975,1.259,1.275,2.075s0.45,1.729,0.45,2.737c0,1.017-0.15,1.934-0.45,2.75s-0.725,1.513-1.275,2.088
			c-0.55,0.574-1.215,1.017-1.994,1.324c-0.779,0.309-1.648,0.463-2.606,0.463c-0.958,0-1.829-0.154-2.612-0.463
			c-0.784-0.308-1.452-0.75-2.006-1.324c-0.554-0.575-0.983-1.271-1.288-2.088s-0.456-1.733-0.456-2.75
			c0-1.008,0.152-1.921,0.456-2.737s0.733-1.509,1.288-2.075s1.223-1.004,2.006-1.312
			C135.609,162.701,136.48,162.547,137.438,162.547z M137.438,173.385c1.066,0,1.856-0.358,2.369-1.075
			c0.513-0.717,0.769-1.767,0.769-3.149c0-1.384-0.256-2.438-0.769-3.163c-0.512-0.725-1.302-1.087-2.369-1.087
			c-1.083,0-1.883,0.364-2.4,1.094c-0.517,0.729-0.775,1.781-0.775,3.156s0.258,2.423,0.775,3.144
			C135.555,173.024,136.355,173.385,137.438,173.385z"/>
		<path fill="#5C5D60" d="M146.176,175.572v-12.825h1.812c0.317,0,0.538,0.059,0.663,0.175c0.125,0.117,0.208,0.317,0.25,0.601
			l0.188,1.55c0.458-0.792,0.996-1.417,1.612-1.875s1.309-0.688,2.075-0.688c0.633,0,1.158,0.146,1.575,0.438l-0.4,2.312
			c-0.025,0.15-0.079,0.256-0.162,0.318c-0.083,0.062-0.196,0.094-0.338,0.094c-0.125,0-0.296-0.028-0.512-0.087
			c-0.217-0.059-0.504-0.088-0.863-0.088c-0.642,0-1.191,0.178-1.65,0.531c-0.458,0.354-0.846,0.873-1.163,1.557v7.987H146.176z"/>
		<path fill="#5C5D60" d="M159.513,156.997v10.638h0.575c0.208,0,0.371-0.029,0.487-0.088c0.117-0.058,0.242-0.166,0.375-0.324
			l3.188-3.938c0.142-0.167,0.292-0.298,0.45-0.395c0.158-0.096,0.367-0.144,0.625-0.144h2.825l-3.987,4.763
			c-0.142,0.175-0.288,0.336-0.438,0.481s-0.312,0.272-0.487,0.381c0.175,0.125,0.329,0.271,0.462,0.438
			c0.133,0.167,0.267,0.346,0.4,0.538l4.275,6.225h-2.788c-0.242,0-0.446-0.042-0.612-0.125c-0.167-0.083-0.317-0.225-0.45-0.425
			l-3.262-4.862c-0.125-0.192-0.25-0.317-0.375-0.375c-0.125-0.059-0.312-0.088-0.562-0.088h-0.7v5.875h-3.087v-18.575H159.513z"/>
		<path fill="#5C5D60" d="M177.788,165.247c-0.083,0.134-0.171,0.228-0.263,0.281c-0.092,0.055-0.208,0.081-0.35,0.081
			c-0.15,0-0.311-0.041-0.481-0.125c-0.171-0.083-0.369-0.177-0.594-0.281c-0.225-0.104-0.481-0.197-0.769-0.281
			c-0.288-0.083-0.627-0.125-1.019-0.125c-0.608,0-1.087,0.13-1.438,0.388c-0.35,0.259-0.525,0.596-0.525,1.013
			c0,0.275,0.089,0.506,0.269,0.693s0.417,0.353,0.712,0.494s0.631,0.269,1.006,0.381c0.375,0.113,0.758,0.236,1.15,0.369
			c0.392,0.134,0.775,0.285,1.15,0.456s0.71,0.388,1.006,0.65s0.533,0.577,0.712,0.943c0.179,0.367,0.269,0.809,0.269,1.325
			c0,0.617-0.113,1.186-0.337,1.706c-0.225,0.521-0.555,0.971-0.988,1.351c-0.433,0.379-0.969,0.675-1.606,0.887
			c-0.638,0.213-1.369,0.319-2.194,0.319c-0.442,0-0.873-0.04-1.294-0.119s-0.825-0.189-1.212-0.331s-0.746-0.309-1.075-0.5
			s-0.619-0.4-0.869-0.625l0.712-1.175c0.092-0.142,0.2-0.25,0.325-0.325s0.283-0.112,0.475-0.112c0.191,0,0.373,0.054,0.543,0.162
			s0.369,0.226,0.594,0.351c0.225,0.125,0.49,0.241,0.794,0.35s0.689,0.162,1.156,0.162c0.367,0,0.681-0.043,0.944-0.131
			c0.262-0.088,0.479-0.202,0.65-0.344s0.296-0.307,0.375-0.494s0.119-0.381,0.119-0.581c0-0.3-0.089-0.546-0.269-0.737
			s-0.417-0.358-0.712-0.5c-0.296-0.142-0.634-0.269-1.013-0.381c-0.379-0.113-0.767-0.235-1.163-0.369
			c-0.396-0.133-0.783-0.289-1.163-0.469c-0.379-0.179-0.717-0.406-1.012-0.682c-0.296-0.274-0.534-0.612-0.712-1.012
			c-0.18-0.4-0.269-0.884-0.269-1.45c0-0.525,0.104-1.025,0.312-1.5c0.208-0.476,0.515-0.89,0.919-1.244
			c0.404-0.354,0.908-0.638,1.512-0.85c0.604-0.213,1.302-0.319,2.094-0.319c0.883,0,1.688,0.146,2.413,0.438
			c0.725,0.292,1.329,0.676,1.812,1.15L177.788,165.247z"/>
		<path fill="#5C5D60" d="M181.1,175.572v-18.575h3.087v7.138c0.5-0.475,1.05-0.858,1.65-1.15c0.6-0.291,1.304-0.438,2.112-0.438
			c0.7,0,1.321,0.119,1.862,0.356c0.542,0.237,0.994,0.571,1.356,1c0.362,0.43,0.638,0.942,0.825,1.538s0.281,1.252,0.281,1.969
			v8.162h-3.088v-8.162c0-0.783-0.181-1.39-0.543-1.819c-0.363-0.429-0.906-0.644-1.631-0.644c-0.533,0-1.033,0.121-1.5,0.362
			c-0.467,0.242-0.908,0.571-1.325,0.987v9.275H181.1z"/>
		<path fill="#5C5D60" d="M200.788,162.547c0.958,0,1.827,0.154,2.606,0.463c0.779,0.309,1.443,0.746,1.994,1.312
			c0.55,0.566,0.975,1.259,1.275,2.075s0.45,1.729,0.45,2.737c0,1.017-0.15,1.934-0.45,2.75s-0.725,1.513-1.275,2.088
			c-0.55,0.574-1.215,1.017-1.994,1.324c-0.779,0.309-1.648,0.463-2.606,0.463c-0.958,0-1.829-0.154-2.612-0.463
			c-0.784-0.308-1.452-0.75-2.006-1.324c-0.554-0.575-0.983-1.271-1.288-2.088s-0.456-1.733-0.456-2.75
			c0-1.008,0.152-1.921,0.456-2.737s0.733-1.509,1.288-2.075s1.223-1.004,2.006-1.312
			C198.959,162.701,199.829,162.547,200.788,162.547z M200.788,173.385c1.066,0,1.856-0.358,2.369-1.075
			c0.513-0.717,0.769-1.767,0.769-3.149c0-1.384-0.256-2.438-0.769-3.163c-0.512-0.725-1.302-1.087-2.369-1.087
			c-1.083,0-1.883,0.364-2.4,1.094c-0.517,0.729-0.775,1.781-0.775,3.156s0.258,2.423,0.775,3.144
			C198.905,173.024,199.704,173.385,200.788,173.385z"/>
		<path fill="#5C5D60" d="M209.525,179.76v-17.013h1.888c0.2,0,0.371,0.046,0.512,0.138s0.233,0.233,0.275,0.425l0.25,1.188
			c0.517-0.592,1.11-1.07,1.781-1.438c0.67-0.366,1.456-0.55,2.356-0.55c0.7,0,1.339,0.146,1.919,0.438
			c0.579,0.292,1.079,0.715,1.5,1.269c0.42,0.555,0.746,1.237,0.975,2.05c0.229,0.812,0.344,1.744,0.344,2.794
			c0,0.959-0.129,1.846-0.388,2.663c-0.258,0.816-0.627,1.524-1.106,2.125c-0.479,0.6-1.058,1.068-1.737,1.406
			c-0.679,0.337-1.439,0.506-2.281,0.506c-0.725,0-1.34-0.11-1.844-0.331c-0.504-0.221-0.956-0.527-1.356-0.919v5.25H209.525z
			 M215.525,164.947c-0.642,0-1.189,0.136-1.644,0.406c-0.455,0.271-0.877,0.652-1.269,1.144v5.75
			c0.35,0.434,0.731,0.735,1.144,0.906s0.856,0.257,1.331,0.257c0.467,0,0.89-0.088,1.269-0.263c0.379-0.175,0.7-0.441,0.962-0.8
			c0.262-0.358,0.464-0.811,0.606-1.356s0.213-1.189,0.213-1.932c0-0.75-0.061-1.385-0.182-1.906
			c-0.121-0.521-0.293-0.943-0.519-1.269s-0.498-0.562-0.819-0.713C216.298,165.022,215.933,164.947,215.525,164.947z"/>
	</g>
	<g enable-background="new    ">
		<path fill="#5C5D60" d="M101.365,201.31c0.183,0,0.342,0.071,0.475,0.213l1.325,1.438c-0.733,0.908-1.635,1.604-2.706,2.087
			c-1.071,0.483-2.356,0.726-3.856,0.726c-1.342,0-2.548-0.229-3.619-0.688s-1.985-1.096-2.744-1.913
			c-0.758-0.816-1.34-1.791-1.744-2.925c-0.404-1.133-0.606-2.37-0.606-3.712c0-1.358,0.225-2.603,0.675-3.731
			c0.45-1.129,1.083-2.103,1.9-2.919c0.816-0.816,1.793-1.452,2.931-1.906s2.394-0.682,3.769-0.682c1.342,0,2.515,0.215,3.519,0.645
			c1.004,0.429,1.864,0.998,2.581,1.706l-1.125,1.562c-0.067,0.1-0.152,0.188-0.256,0.263c-0.104,0.074-0.248,0.112-0.431,0.112
			c-0.192,0-0.387-0.075-0.587-0.226c-0.2-0.149-0.454-0.312-0.763-0.487c-0.308-0.175-0.698-0.337-1.168-0.487
			c-0.471-0.15-1.069-0.225-1.794-0.225c-0.85,0-1.631,0.147-2.344,0.443s-1.325,0.719-1.837,1.269s-0.913,1.219-1.2,2.007
			c-0.287,0.787-0.431,1.673-0.431,2.656c0,1.017,0.144,1.921,0.431,2.712c0.288,0.792,0.677,1.459,1.169,2
			c0.492,0.542,1.071,0.956,1.737,1.244c0.667,0.287,1.383,0.431,2.15,0.431c0.458,0,0.873-0.024,1.244-0.074
			c0.371-0.051,0.712-0.13,1.025-0.238c0.312-0.107,0.608-0.247,0.888-0.418c0.279-0.171,0.556-0.382,0.831-0.632
			c0.083-0.075,0.171-0.135,0.263-0.181C101.156,201.333,101.256,201.31,101.365,201.31z"/>
		<path fill="#5C5D60" d="M105.527,205.572v-12.825h1.812c0.317,0,0.538,0.059,0.663,0.175c0.125,0.117,0.208,0.317,0.25,0.601
			l0.188,1.55c0.458-0.792,0.996-1.417,1.612-1.875s1.309-0.688,2.075-0.688c0.633,0,1.158,0.146,1.575,0.438l-0.4,2.312
			c-0.025,0.15-0.079,0.256-0.162,0.318c-0.083,0.062-0.196,0.094-0.338,0.094c-0.125,0-0.296-0.028-0.512-0.087
			c-0.217-0.059-0.504-0.088-0.863-0.088c-0.642,0-1.191,0.178-1.65,0.531c-0.458,0.354-0.846,0.873-1.163,1.557v7.987H105.527z"/>
		<path fill="#5C5D60" d="M125.427,205.572h-1.388c-0.292,0-0.521-0.044-0.688-0.131c-0.167-0.088-0.292-0.265-0.375-0.531
			l-0.275-0.913c-0.325,0.292-0.644,0.548-0.957,0.769c-0.312,0.222-0.635,0.406-0.969,0.557c-0.333,0.15-0.688,0.263-1.062,0.338
			c-0.375,0.074-0.792,0.112-1.25,0.112c-0.542,0-1.042-0.073-1.5-0.22c-0.458-0.146-0.852-0.365-1.181-0.658
			s-0.585-0.656-0.769-1.091c-0.184-0.436-0.275-0.941-0.275-1.518c0-0.485,0.127-0.964,0.381-1.437
			c0.254-0.473,0.677-0.898,1.269-1.279c0.591-0.38,1.379-0.696,2.362-0.946c0.983-0.251,2.204-0.377,3.663-0.377v-0.756
			c0-0.864-0.181-1.505-0.544-1.921c-0.362-0.415-0.89-0.623-1.581-0.623c-0.5,0-0.917,0.059-1.25,0.175
			c-0.333,0.117-0.623,0.248-0.869,0.394c-0.246,0.146-0.473,0.277-0.681,0.395c-0.208,0.116-0.438,0.175-0.688,0.175
			c-0.208,0-0.388-0.055-0.538-0.163c-0.15-0.107-0.271-0.241-0.363-0.399l-0.562-0.987c1.475-1.351,3.254-2.025,5.338-2.025
			c0.75,0,1.418,0.123,2.006,0.369c0.588,0.245,1.085,0.587,1.494,1.024c0.408,0.438,0.719,0.961,0.931,1.569s0.319,1.274,0.319,2
			V205.572z M119.427,203.647c0.316,0,0.608-0.029,0.875-0.086c0.267-0.058,0.519-0.144,0.756-0.259
			c0.238-0.115,0.467-0.256,0.688-0.425c0.221-0.168,0.444-0.367,0.669-0.597v-2.146c-0.9,0-1.652,0.057-2.256,0.17
			s-1.089,0.258-1.456,0.435c-0.367,0.176-0.627,0.382-0.781,0.617c-0.154,0.234-0.231,0.49-0.231,0.768
			c0,0.546,0.161,0.936,0.481,1.171S118.91,203.647,119.427,203.647z"/>
		<path fill="#5C5D60" d="M129.014,205.572v-10.5l-1.113-0.175c-0.242-0.042-0.436-0.125-0.581-0.25
			c-0.146-0.125-0.219-0.3-0.219-0.525v-1.263h1.913v-0.949c0-0.733,0.11-1.392,0.331-1.976c0.221-0.583,0.538-1.079,0.95-1.487
			c0.412-0.408,0.914-0.721,1.506-0.938s1.258-0.325,2-0.325c0.592,0,1.142,0.079,1.65,0.237l-0.062,1.551
			c-0.017,0.241-0.129,0.392-0.338,0.449c-0.208,0.059-0.45,0.088-0.725,0.088c-0.367,0-0.694,0.04-0.981,0.119
			s-0.531,0.217-0.731,0.412c-0.2,0.196-0.352,0.454-0.456,0.775c-0.104,0.32-0.156,0.719-0.156,1.193v0.85h3.337v2.2h-3.237v10.513
			H129.014z"/>
		<path fill="#5C5D60" d="M141.439,205.772c-1.108,0-1.962-0.314-2.562-0.944c-0.6-0.629-0.9-1.497-0.9-2.605v-7.163h-1.3
			c-0.167,0-0.311-0.054-0.431-0.162c-0.121-0.108-0.182-0.271-0.182-0.487v-1.226l2.062-0.337l0.65-3.5
			c0.033-0.167,0.11-0.296,0.231-0.388s0.273-0.138,0.457-0.138h1.6v4.037h3.375v2.2h-3.375v6.95c0,0.4,0.1,0.713,0.3,0.938
			c0.2,0.225,0.466,0.338,0.8,0.338c0.192,0,0.352-0.023,0.481-0.069c0.129-0.046,0.242-0.094,0.337-0.144s0.181-0.098,0.256-0.144
			c0.075-0.046,0.15-0.069,0.225-0.069c0.091,0,0.167,0.023,0.225,0.069c0.059,0.046,0.121,0.114,0.188,0.206l0.925,1.5
			c-0.45,0.375-0.967,0.658-1.55,0.85C142.668,205.677,142.064,205.772,141.439,205.772z"/>
		<path fill="#5C5D60" d="M150.651,189.01c0,0.267-0.054,0.517-0.163,0.75s-0.252,0.438-0.431,0.612s-0.39,0.314-0.631,0.419
			s-0.5,0.156-0.775,0.156c-0.267,0-0.519-0.052-0.756-0.156c-0.237-0.104-0.443-0.244-0.619-0.419
			c-0.175-0.175-0.314-0.379-0.418-0.612c-0.104-0.233-0.156-0.483-0.156-0.75c0-0.275,0.052-0.533,0.156-0.775
			c0.104-0.241,0.244-0.449,0.418-0.625c0.175-0.175,0.381-0.314,0.619-0.418c0.238-0.104,0.49-0.156,0.756-0.156
			c0.275,0,0.533,0.052,0.775,0.156c0.242,0.104,0.452,0.243,0.631,0.418c0.179,0.176,0.323,0.384,0.431,0.625
			C150.597,188.477,150.651,188.734,150.651,189.01z M150.189,192.747v12.825h-3.087v-12.825H150.189z"/>
		<path fill="#5C5D60" d="M153.676,205.572v-12.825h1.888c0.4,0,0.663,0.188,0.788,0.562l0.212,1.013
			c0.258-0.267,0.531-0.508,0.819-0.725c0.287-0.217,0.591-0.404,0.912-0.562s0.665-0.279,1.031-0.363
			c0.367-0.083,0.767-0.125,1.2-0.125c0.7,0,1.321,0.119,1.862,0.356c0.542,0.237,0.994,0.571,1.356,1
			c0.362,0.43,0.638,0.942,0.825,1.538s0.281,1.252,0.281,1.969v8.162h-3.088v-8.162c0-0.783-0.181-1.39-0.543-1.819
			c-0.363-0.429-0.906-0.644-1.631-0.644c-0.533,0-1.033,0.121-1.5,0.362c-0.467,0.242-0.908,0.571-1.325,0.987v9.275H153.676z"/>
		<path fill="#5C5D60" d="M172.326,192.522c0.55,0,1.067,0.056,1.55,0.169c0.483,0.112,0.925,0.276,1.325,0.493h3.688v1.15
			c0,0.191-0.05,0.342-0.15,0.45s-0.271,0.183-0.513,0.225l-1.15,0.213c0.083,0.217,0.148,0.445,0.194,0.688
			c0.046,0.241,0.069,0.495,0.069,0.762c0,0.634-0.127,1.207-0.381,1.719c-0.254,0.513-0.604,0.948-1.05,1.307
			c-0.446,0.358-0.975,0.636-1.588,0.831c-0.612,0.196-1.277,0.294-1.994,0.294c-0.483,0-0.954-0.046-1.413-0.138
			c-0.4,0.244-0.6,0.517-0.6,0.818c0,0.261,0.119,0.451,0.356,0.573c0.238,0.122,0.55,0.208,0.938,0.258
			c0.388,0.051,0.827,0.076,1.319,0.076s0.996,0.021,1.513,0.062c0.517,0.042,1.021,0.115,1.512,0.22s0.931,0.27,1.319,0.495
			s0.7,0.533,0.938,0.922s0.356,0.888,0.356,1.498c0,0.568-0.14,1.12-0.419,1.655s-0.684,1.012-1.212,1.43
			c-0.529,0.418-1.177,0.755-1.944,1.01s-1.642,0.383-2.625,0.383c-0.975,0-1.821-0.094-2.538-0.281s-1.311-0.438-1.781-0.75
			s-0.823-0.673-1.056-1.081c-0.233-0.409-0.35-0.834-0.35-1.275c0-0.6,0.183-1.104,0.55-1.513c0.366-0.408,0.875-0.733,1.525-0.975
			c-0.317-0.175-0.571-0.408-0.763-0.7s-0.288-0.671-0.288-1.138c0-0.191,0.033-0.39,0.1-0.594s0.169-0.406,0.306-0.606
			c0.138-0.199,0.311-0.389,0.519-0.568c0.208-0.179,0.454-0.34,0.737-0.481c-0.65-0.35-1.161-0.816-1.531-1.399
			c-0.371-0.584-0.556-1.267-0.556-2.051c0-0.633,0.127-1.206,0.381-1.719c0.254-0.512,0.608-0.949,1.062-1.312
			c0.454-0.362,0.992-0.639,1.612-0.831C170.915,192.618,171.593,192.522,172.326,192.522z M175.714,206.11
			c0-0.255-0.075-0.463-0.225-0.625c-0.15-0.161-0.354-0.287-0.612-0.376c-0.259-0.09-0.561-0.155-0.906-0.198
			c-0.346-0.043-0.713-0.063-1.1-0.063c-0.388,0-0.788,0-1.2,0s-0.811-0.046-1.194-0.138c-0.35,0.191-0.631,0.419-0.844,0.681
			c-0.212,0.263-0.318,0.564-0.318,0.906c0,0.226,0.056,0.436,0.168,0.632c0.113,0.195,0.292,0.364,0.538,0.506
			c0.246,0.142,0.564,0.252,0.956,0.331s0.871,0.119,1.438,0.119c0.575,0,1.071-0.045,1.488-0.134c0.417-0.09,0.76-0.213,1.031-0.37
			c0.271-0.157,0.469-0.345,0.594-0.562C175.651,206.602,175.714,206.366,175.714,206.11z M172.326,198.848
			c0.383,0,0.717-0.053,1-0.156c0.283-0.104,0.519-0.248,0.707-0.432s0.329-0.404,0.425-0.662c0.096-0.259,0.144-0.542,0.144-0.851
			c0-0.633-0.189-1.135-0.568-1.506c-0.379-0.371-0.948-0.557-1.707-0.557s-1.327,0.186-1.706,0.557
			c-0.379,0.371-0.569,0.873-0.569,1.506c0,0.3,0.048,0.579,0.144,0.838c0.096,0.258,0.238,0.481,0.425,0.669
			s0.425,0.333,0.712,0.438C171.62,198.795,171.951,198.848,172.326,198.848z"/>
		<path fill="#5C5D60" d="M198.563,187.497v2.763h-5.438v15.312h-3.362V190.26h-5.463v-2.763H198.563z"/>
		<path fill="#5C5D60" d="M202.825,209.098c-0.092,0.216-0.211,0.381-0.356,0.493c-0.146,0.112-0.369,0.169-0.669,0.169h-2.3
			l2.4-5.138l-5.188-11.875h2.7c0.25,0,0.441,0.059,0.575,0.175c0.133,0.117,0.233,0.25,0.3,0.4l2.737,6.65
			c0.092,0.217,0.171,0.441,0.238,0.675c0.066,0.233,0.125,0.467,0.175,0.7c0.066-0.242,0.14-0.476,0.219-0.7
			c0.079-0.226,0.165-0.454,0.256-0.688l2.575-6.638c0.067-0.167,0.177-0.304,0.332-0.412c0.154-0.108,0.327-0.163,0.519-0.163
			h2.475L202.825,209.098z"/>
		<path fill="#5C5D60" d="M211.613,209.76v-17.013h1.888c0.2,0,0.371,0.046,0.512,0.138s0.233,0.233,0.275,0.425l0.25,1.188
			c0.517-0.592,1.11-1.07,1.781-1.438c0.67-0.366,1.456-0.55,2.356-0.55c0.7,0,1.339,0.146,1.919,0.438
			c0.579,0.292,1.079,0.715,1.5,1.269c0.42,0.555,0.746,1.237,0.975,2.05c0.229,0.812,0.344,1.744,0.344,2.794
			c0,0.959-0.129,1.846-0.388,2.663c-0.258,0.816-0.627,1.524-1.106,2.125c-0.479,0.6-1.058,1.068-1.737,1.406
			c-0.679,0.337-1.439,0.506-2.281,0.506c-0.725,0-1.34-0.11-1.844-0.331c-0.504-0.221-0.956-0.527-1.356-0.919v5.25H211.613z
			 M217.613,194.947c-0.642,0-1.189,0.136-1.644,0.406c-0.455,0.271-0.877,0.652-1.269,1.144v5.75
			c0.35,0.434,0.731,0.735,1.144,0.906s0.856,0.257,1.331,0.257c0.467,0,0.89-0.088,1.269-0.263c0.379-0.175,0.7-0.441,0.962-0.8
			c0.262-0.358,0.464-0.811,0.606-1.356s0.213-1.189,0.213-1.932c0-0.75-0.061-1.385-0.182-1.906
			c-0.121-0.521-0.293-0.943-0.519-1.269s-0.498-0.562-0.819-0.713C218.385,195.022,218.021,194.947,217.613,194.947z"/>
		<path fill="#5C5D60" d="M231.05,192.547c0.808,0,1.552,0.13,2.231,0.388c0.679,0.259,1.265,0.636,1.756,1.132
			c0.492,0.495,0.875,1.104,1.15,1.824c0.275,0.722,0.413,1.544,0.413,2.469c0,0.233-0.011,0.428-0.031,0.582
			c-0.021,0.154-0.059,0.274-0.112,0.362c-0.055,0.087-0.127,0.149-0.219,0.188c-0.092,0.037-0.208,0.056-0.35,0.056h-7.925
			c0.092,1.317,0.446,2.284,1.062,2.9c0.617,0.617,1.434,0.925,2.45,0.925c0.5,0,0.931-0.058,1.294-0.175
			c0.362-0.116,0.679-0.246,0.95-0.388s0.508-0.271,0.712-0.388c0.204-0.116,0.402-0.175,0.594-0.175
			c0.125,0,0.233,0.025,0.325,0.075s0.171,0.121,0.237,0.213l0.9,1.125c-0.342,0.399-0.725,0.735-1.15,1.006
			c-0.425,0.271-0.869,0.487-1.331,0.65c-0.462,0.162-0.934,0.276-1.413,0.344c-0.479,0.066-0.944,0.1-1.394,0.1
			c-0.892,0-1.721-0.148-2.488-0.443c-0.767-0.296-1.433-0.733-2-1.312c-0.566-0.579-1.012-1.296-1.337-2.15
			c-0.325-0.854-0.487-1.844-0.487-2.969c0-0.875,0.142-1.698,0.425-2.469s0.689-1.441,1.219-2.013
			c0.529-0.57,1.175-1.022,1.938-1.356C229.231,192.714,230.092,192.547,231.05,192.547z M231.113,194.76
			c-0.9,0-1.604,0.254-2.113,0.763c-0.508,0.508-0.833,1.229-0.975,2.162h5.8c0-0.399-0.054-0.776-0.163-1.131
			s-0.275-0.665-0.5-0.932s-0.508-0.477-0.85-0.631S231.571,194.76,231.113,194.76z"/>
	</g>
	<g>
		<rect x="759.342" y="156.998" fill="none" width="216.636" height="61"/>
	</g>
	<g enable-background="new    ">
		<path fill="#5C5D60" d="M808.004,171.31c0.184,0,0.342,0.071,0.476,0.213l1.325,1.438c-0.734,0.908-1.636,1.604-2.707,2.087
			c-1.07,0.483-2.355,0.726-3.855,0.726c-1.342,0-2.549-0.229-3.619-0.688s-1.985-1.096-2.744-1.913
			c-0.758-0.816-1.34-1.791-1.743-2.925c-0.404-1.133-0.606-2.37-0.606-3.712c0-1.358,0.225-2.603,0.676-3.731
			c0.449-1.129,1.082-2.103,1.899-2.919c0.816-0.816,1.794-1.452,2.931-1.906c1.139-0.454,2.395-0.682,3.77-0.682
			c1.342,0,2.514,0.215,3.519,0.645c1.004,0.429,1.864,0.998,2.581,1.706l-1.125,1.562c-0.066,0.1-0.152,0.188-0.256,0.263
			c-0.104,0.074-0.248,0.112-0.432,0.112c-0.191,0-0.387-0.075-0.588-0.226c-0.199-0.149-0.453-0.312-0.762-0.487
			s-0.698-0.337-1.169-0.487c-0.472-0.15-1.069-0.225-1.794-0.225c-0.85,0-1.631,0.147-2.344,0.443s-1.324,0.719-1.838,1.269
			c-0.512,0.55-0.912,1.219-1.199,2.007c-0.287,0.787-0.432,1.673-0.432,2.656c0,1.017,0.145,1.921,0.432,2.712
			c0.287,0.792,0.677,1.459,1.168,2c0.492,0.542,1.071,0.956,1.738,1.244c0.666,0.287,1.383,0.431,2.15,0.431
			c0.457,0,0.872-0.024,1.243-0.074c0.37-0.051,0.712-0.13,1.024-0.238c0.312-0.107,0.609-0.247,0.889-0.418
			c0.278-0.171,0.556-0.382,0.83-0.632c0.084-0.075,0.172-0.135,0.264-0.181C807.796,171.333,807.897,171.31,808.004,171.31z"/>
		<path fill="#5C5D60" d="M817.642,162.547c0.958,0,1.827,0.154,2.606,0.463s1.443,0.746,1.994,1.312
			c0.549,0.566,0.975,1.259,1.274,2.075s0.45,1.729,0.45,2.737c0,1.017-0.15,1.934-0.45,2.75s-0.726,1.513-1.274,2.088
			c-0.551,0.574-1.215,1.017-1.994,1.324c-0.779,0.309-1.648,0.463-2.606,0.463s-1.829-0.154-2.612-0.463
			c-0.783-0.308-1.452-0.75-2.006-1.324c-0.555-0.575-0.984-1.271-1.288-2.088s-0.456-1.733-0.456-2.75
			c0-1.008,0.152-1.921,0.456-2.737s0.733-1.509,1.288-2.075c0.554-0.566,1.223-1.004,2.006-1.312S816.684,162.547,817.642,162.547z
			 M817.642,173.385c1.066,0,1.856-0.358,2.368-1.075c0.514-0.717,0.77-1.767,0.77-3.149c0-1.384-0.256-2.438-0.77-3.163
			c-0.512-0.725-1.302-1.087-2.368-1.087c-1.083,0-1.884,0.364-2.399,1.094c-0.518,0.729-0.775,1.781-0.775,3.156
			s0.258,2.423,0.775,3.144C815.758,173.024,816.559,173.385,817.642,173.385z"/>
		<path fill="#5C5D60" d="M826.379,175.572v-12.825h1.888c0.399,0,0.663,0.188,0.788,0.562l0.212,1.013
			c0.259-0.267,0.531-0.508,0.819-0.725c0.287-0.217,0.591-0.404,0.912-0.562c0.32-0.158,0.664-0.279,1.031-0.363
			c0.366-0.083,0.766-0.125,1.199-0.125c0.701,0,1.321,0.119,1.863,0.356c0.541,0.237,0.994,0.571,1.355,1
			c0.363,0.43,0.639,0.942,0.826,1.538s0.281,1.252,0.281,1.969v8.162h-3.088v-8.162c0-0.783-0.182-1.39-0.544-1.819
			c-0.362-0.429-0.906-0.644-1.632-0.644c-0.533,0-1.033,0.121-1.5,0.362c-0.467,0.242-0.908,0.571-1.324,0.987v9.275H826.379z"/>
		<path fill="#5C5D60" d="M841.142,175.572v-10.5l-1.112-0.175c-0.242-0.042-0.436-0.125-0.582-0.25
			c-0.146-0.125-0.219-0.3-0.219-0.525v-1.263h1.913v-0.949c0-0.733,0.11-1.392,0.331-1.976c0.221-0.583,0.537-1.079,0.95-1.487
			c0.412-0.408,0.914-0.721,1.506-0.938s1.259-0.325,2-0.325c0.592,0,1.142,0.079,1.65,0.237l-0.062,1.551
			c-0.017,0.241-0.13,0.392-0.338,0.449c-0.208,0.059-0.45,0.088-0.725,0.088c-0.367,0-0.694,0.04-0.981,0.119
			s-0.531,0.217-0.731,0.412c-0.2,0.196-0.353,0.454-0.456,0.775c-0.104,0.32-0.156,0.719-0.156,1.193v0.85h3.338v2.2h-3.238v10.513
			H841.142z"/>
		<path fill="#5C5D60" d="M854.655,162.547c0.808,0,1.551,0.13,2.23,0.388c0.68,0.259,1.265,0.636,1.756,1.132
			c0.492,0.495,0.875,1.104,1.15,1.824c0.275,0.722,0.412,1.544,0.412,2.469c0,0.233-0.01,0.428-0.031,0.582
			c-0.021,0.154-0.059,0.274-0.111,0.362c-0.055,0.087-0.128,0.149-0.219,0.188c-0.092,0.037-0.209,0.056-0.351,0.056h-7.925
			c0.092,1.317,0.445,2.284,1.062,2.9c0.616,0.617,1.434,0.925,2.449,0.925c0.5,0,0.932-0.058,1.295-0.175
			c0.361-0.116,0.678-0.246,0.949-0.388s0.508-0.271,0.713-0.388c0.203-0.116,0.402-0.175,0.594-0.175
			c0.125,0,0.232,0.025,0.324,0.075s0.172,0.121,0.238,0.213l0.9,1.125c-0.342,0.399-0.726,0.735-1.15,1.006
			c-0.426,0.271-0.869,0.487-1.332,0.65c-0.462,0.162-0.934,0.276-1.412,0.344c-0.479,0.066-0.943,0.1-1.394,0.1
			c-0.892,0-1.722-0.148-2.487-0.443c-0.768-0.296-1.434-0.733-2-1.312s-1.013-1.296-1.338-2.15
			c-0.324-0.854-0.487-1.844-0.487-2.969c0-0.875,0.142-1.698,0.425-2.469s0.689-1.441,1.219-2.013
			c0.529-0.57,1.176-1.022,1.938-1.356C852.835,162.714,853.696,162.547,854.655,162.547z M854.717,164.76
			c-0.9,0-1.605,0.254-2.113,0.763c-0.508,0.508-0.834,1.229-0.975,2.162h5.8c0-0.399-0.054-0.776-0.163-1.131
			c-0.107-0.354-0.274-0.665-0.5-0.932c-0.225-0.267-0.508-0.477-0.85-0.631S855.174,164.76,854.717,164.76z"/>
		<path fill="#5C5D60" d="M862.716,175.572v-12.825h1.812c0.317,0,0.538,0.059,0.663,0.175c0.125,0.117,0.207,0.317,0.25,0.601
			l0.188,1.55c0.457-0.792,0.995-1.417,1.611-1.875c0.617-0.458,1.309-0.688,2.076-0.688c0.633,0,1.158,0.146,1.574,0.438
			l-0.4,2.312c-0.024,0.15-0.078,0.256-0.162,0.318c-0.083,0.062-0.195,0.094-0.338,0.094c-0.125,0-0.295-0.028-0.512-0.087
			s-0.504-0.088-0.863-0.088c-0.641,0-1.191,0.178-1.649,0.531c-0.458,0.354-0.846,0.873-1.163,1.557v7.987H862.716z"/>
		<path fill="#5C5D60" d="M878.229,162.547c0.809,0,1.552,0.13,2.23,0.388c0.68,0.259,1.266,0.636,1.757,1.132
			c0.491,0.495,0.875,1.104,1.149,1.824c0.275,0.722,0.413,1.544,0.413,2.469c0,0.233-0.011,0.428-0.031,0.582
			s-0.059,0.274-0.112,0.362c-0.055,0.087-0.127,0.149-0.219,0.188c-0.092,0.037-0.209,0.056-0.35,0.056h-7.926
			c0.092,1.317,0.445,2.284,1.062,2.9c0.617,0.617,1.434,0.925,2.45,0.925c0.5,0,0.931-0.058,1.294-0.175
			c0.362-0.116,0.679-0.246,0.949-0.388c0.271-0.142,0.509-0.271,0.713-0.388c0.204-0.116,0.402-0.175,0.594-0.175
			c0.125,0,0.233,0.025,0.325,0.075s0.171,0.121,0.237,0.213l0.9,1.125c-0.342,0.399-0.725,0.735-1.15,1.006
			c-0.425,0.271-0.869,0.487-1.331,0.65c-0.462,0.162-0.934,0.276-1.413,0.344c-0.479,0.066-0.943,0.1-1.393,0.1
			c-0.893,0-1.722-0.148-2.488-0.443c-0.767-0.296-1.434-0.733-2-1.312s-1.012-1.296-1.338-2.15
			c-0.324-0.854-0.486-1.844-0.486-2.969c0-0.875,0.141-1.698,0.424-2.469s0.689-1.441,1.219-2.013
			c0.529-0.57,1.176-1.022,1.938-1.356C876.41,162.714,877.27,162.547,878.229,162.547z M878.291,164.76
			c-0.9,0-1.604,0.254-2.113,0.763c-0.508,0.508-0.833,1.229-0.975,2.162h5.801c0-0.399-0.055-0.776-0.163-1.131
			s-0.274-0.665-0.5-0.932s-0.509-0.477-0.851-0.631S878.749,164.76,878.291,164.76z"/>
		<path fill="#5C5D60" d="M886.29,175.572v-12.825h1.888c0.4,0,0.662,0.188,0.787,0.562l0.213,1.013
			c0.258-0.267,0.531-0.508,0.818-0.725s0.592-0.404,0.912-0.562c0.321-0.158,0.665-0.279,1.031-0.363
			c0.367-0.083,0.768-0.125,1.201-0.125c0.699,0,1.32,0.119,1.861,0.356c0.543,0.237,0.994,0.571,1.357,1
			c0.361,0.43,0.637,0.942,0.824,1.538s0.281,1.252,0.281,1.969v8.162h-3.088v-8.162c0-0.783-0.181-1.39-0.543-1.819
			c-0.363-0.429-0.906-0.644-1.631-0.644c-0.533,0-1.033,0.121-1.5,0.362c-0.467,0.242-0.908,0.571-1.326,0.987v9.275H886.29z"/>
		<path fill="#5C5D60" d="M909.516,165.46c-0.092,0.116-0.182,0.208-0.27,0.274c-0.088,0.067-0.215,0.101-0.381,0.101
			c-0.158,0-0.312-0.048-0.463-0.144s-0.329-0.204-0.537-0.325c-0.209-0.121-0.457-0.229-0.744-0.325s-0.644-0.144-1.068-0.144
			c-0.542,0-1.018,0.098-1.426,0.294c-0.408,0.195-0.748,0.477-1.018,0.844c-0.271,0.366-0.474,0.811-0.607,1.331
			c-0.133,0.521-0.199,1.11-0.199,1.769c0,0.684,0.072,1.292,0.219,1.825c0.146,0.533,0.355,0.981,0.631,1.344s0.608,0.638,1,0.825
			s0.834,0.281,1.325,0.281s0.89-0.061,1.194-0.182c0.304-0.121,0.56-0.254,0.768-0.4c0.209-0.146,0.391-0.278,0.545-0.399
			c0.153-0.121,0.326-0.182,0.518-0.182c0.25,0,0.438,0.096,0.562,0.288l0.889,1.125c-0.342,0.399-0.713,0.735-1.113,1.006
			s-0.814,0.487-1.244,0.65c-0.429,0.162-0.873,0.276-1.33,0.344c-0.459,0.066-0.913,0.1-1.363,0.1
			c-0.791,0-1.537-0.148-2.237-0.443c-0.7-0.296-1.311-0.728-1.831-1.294c-0.521-0.566-0.934-1.261-1.238-2.081
			c-0.304-0.821-0.455-1.757-0.455-2.807c0-0.941,0.135-1.814,0.406-2.619c0.27-0.804,0.668-1.5,1.193-2.087
			c0.525-0.588,1.175-1.048,1.949-1.382c0.775-0.333,1.667-0.5,2.676-0.5c0.958,0,1.798,0.154,2.519,0.463s1.368,0.75,1.944,1.325
			L909.516,165.46z"/>
		<path fill="#5C5D60" d="M916.178,159.01c0,0.267-0.055,0.517-0.163,0.75s-0.252,0.438-0.431,0.612
			c-0.18,0.175-0.391,0.314-0.632,0.419s-0.5,0.156-0.774,0.156c-0.268,0-0.52-0.052-0.757-0.156s-0.443-0.244-0.618-0.419
			c-0.176-0.175-0.314-0.379-0.419-0.612s-0.156-0.483-0.156-0.75c0-0.275,0.052-0.533,0.156-0.775
			c0.104-0.241,0.243-0.449,0.419-0.625c0.175-0.175,0.381-0.314,0.618-0.418c0.237-0.104,0.489-0.156,0.757-0.156
			c0.274,0,0.533,0.052,0.774,0.156c0.241,0.104,0.452,0.243,0.632,0.418c0.179,0.176,0.322,0.384,0.431,0.625
			C916.123,158.477,916.178,158.734,916.178,159.01z M915.715,162.747v12.825h-3.088v-12.825H915.715z"/>
		<path fill="#5C5D60" d="M929.252,175.572h-1.387c-0.293,0-0.521-0.044-0.688-0.131c-0.168-0.088-0.293-0.265-0.375-0.531
			l-0.275-0.913c-0.325,0.292-0.645,0.548-0.957,0.769c-0.312,0.222-0.635,0.406-0.969,0.557c-0.332,0.15-0.688,0.263-1.062,0.338
			c-0.375,0.074-0.791,0.112-1.25,0.112c-0.541,0-1.041-0.073-1.5-0.22c-0.457-0.146-0.852-0.365-1.181-0.658
			s-0.585-0.656-0.769-1.091c-0.184-0.436-0.275-0.941-0.275-1.518c0-0.485,0.127-0.964,0.381-1.437
			c0.255-0.473,0.678-0.898,1.27-1.279c0.592-0.38,1.379-0.696,2.362-0.946c0.983-0.251,2.204-0.377,3.663-0.377v-0.756
			c0-0.864-0.182-1.505-0.545-1.921c-0.361-0.415-0.889-0.623-1.58-0.623c-0.5,0-0.918,0.059-1.25,0.175
			c-0.334,0.117-0.623,0.248-0.869,0.394c-0.246,0.146-0.473,0.277-0.682,0.395c-0.208,0.116-0.438,0.175-0.688,0.175
			c-0.208,0-0.387-0.055-0.537-0.163c-0.15-0.107-0.271-0.241-0.363-0.399l-0.562-0.987c1.476-1.351,3.255-2.025,5.338-2.025
			c0.75,0,1.419,0.123,2.006,0.369c0.588,0.245,1.086,0.587,1.494,1.024s0.719,0.961,0.932,1.569s0.318,1.274,0.318,2V175.572z
			 M923.252,173.647c0.316,0,0.608-0.029,0.875-0.086c0.268-0.058,0.52-0.144,0.756-0.259c0.238-0.115,0.467-0.256,0.688-0.425
			c0.221-0.168,0.444-0.367,0.67-0.597v-2.146c-0.9,0-1.652,0.057-2.257,0.17s-1.089,0.258-1.456,0.435
			c-0.367,0.176-0.627,0.382-0.781,0.617c-0.154,0.234-0.231,0.49-0.231,0.768c0,0.546,0.161,0.936,0.481,1.171
			S922.736,173.647,923.252,173.647z"/>
		<path fill="#5C5D60" d="M939.903,165.247c-0.084,0.134-0.171,0.228-0.263,0.281c-0.092,0.055-0.208,0.081-0.351,0.081
			c-0.149,0-0.311-0.041-0.48-0.125c-0.171-0.083-0.369-0.177-0.594-0.281c-0.225-0.104-0.481-0.197-0.77-0.281
			c-0.287-0.083-0.627-0.125-1.018-0.125c-0.609,0-1.088,0.13-1.438,0.388c-0.351,0.259-0.525,0.596-0.525,1.013
			c0,0.275,0.09,0.506,0.269,0.693s0.417,0.353,0.712,0.494c0.297,0.142,0.632,0.269,1.007,0.381
			c0.375,0.113,0.759,0.236,1.149,0.369c0.393,0.134,0.775,0.285,1.15,0.456s0.711,0.388,1.006,0.65
			c0.297,0.263,0.533,0.577,0.713,0.943c0.18,0.367,0.27,0.809,0.27,1.325c0,0.617-0.113,1.186-0.338,1.706
			c-0.225,0.521-0.555,0.971-0.988,1.351c-0.433,0.379-0.969,0.675-1.605,0.887c-0.638,0.213-1.369,0.319-2.193,0.319
			c-0.442,0-0.873-0.04-1.295-0.119c-0.42-0.079-0.824-0.189-1.212-0.331s-0.746-0.309-1.075-0.5s-0.619-0.4-0.869-0.625
			l0.713-1.175c0.092-0.142,0.2-0.25,0.325-0.325s0.283-0.112,0.476-0.112c0.191,0,0.372,0.054,0.543,0.162s0.369,0.226,0.594,0.351
			s0.49,0.241,0.794,0.35s0.689,0.162,1.156,0.162c0.366,0,0.681-0.043,0.944-0.131c0.262-0.088,0.479-0.202,0.649-0.344
			s0.296-0.307,0.375-0.494s0.118-0.381,0.118-0.581c0-0.3-0.089-0.546-0.268-0.737c-0.18-0.191-0.418-0.358-0.713-0.5
			c-0.296-0.142-0.634-0.269-1.013-0.381c-0.38-0.113-0.767-0.235-1.163-0.369c-0.396-0.133-0.783-0.289-1.162-0.469
			c-0.379-0.179-0.717-0.406-1.012-0.682c-0.297-0.274-0.534-0.612-0.713-1.012c-0.18-0.4-0.27-0.884-0.27-1.45
			c0-0.525,0.104-1.025,0.312-1.5c0.209-0.476,0.516-0.89,0.92-1.244c0.403-0.354,0.908-0.638,1.512-0.85
			c0.604-0.213,1.303-0.319,2.094-0.319c0.883,0,1.688,0.146,2.412,0.438c0.726,0.292,1.33,0.676,1.812,1.15L939.903,165.247z"/>
	</g>
	<g enable-background="new    ">
		<path fill="#5C5D60" d="M829.748,187.497v2.763h-5.438v15.312h-3.362V190.26h-5.463v-2.763H829.748z"/>
		<path fill="#5C5D60" d="M834.01,209.098c-0.092,0.216-0.211,0.381-0.355,0.493c-0.146,0.112-0.369,0.169-0.67,0.169h-2.299
			l2.399-5.138l-5.188-11.875h2.7c0.25,0,0.441,0.059,0.574,0.175c0.134,0.117,0.234,0.25,0.301,0.4l2.737,6.65
			c0.092,0.217,0.171,0.441,0.237,0.675s0.125,0.467,0.176,0.7c0.066-0.242,0.139-0.476,0.219-0.7
			c0.078-0.226,0.164-0.454,0.256-0.688l2.574-6.638c0.067-0.167,0.178-0.304,0.332-0.412s0.326-0.163,0.519-0.163h2.476
			L834.01,209.098z"/>
		<path fill="#5C5D60" d="M842.797,209.76v-17.013h1.889c0.199,0,0.37,0.046,0.512,0.138s0.233,0.233,0.275,0.425l0.25,1.188
			c0.517-0.592,1.11-1.07,1.781-1.438c0.67-0.366,1.456-0.55,2.355-0.55c0.701,0,1.34,0.146,1.92,0.438
			c0.578,0.292,1.078,0.715,1.5,1.269c0.42,0.555,0.745,1.237,0.975,2.05c0.229,0.812,0.344,1.744,0.344,2.794
			c0,0.959-0.129,1.846-0.388,2.663c-0.259,0.816-0.627,1.524-1.106,2.125c-0.479,0.6-1.059,1.068-1.737,1.406
			c-0.679,0.337-1.439,0.506-2.281,0.506c-0.726,0-1.34-0.11-1.844-0.331c-0.505-0.221-0.956-0.527-1.356-0.919v5.25H842.797z
			 M848.797,194.947c-0.641,0-1.189,0.136-1.643,0.406c-0.455,0.271-0.878,0.652-1.27,1.144v5.75
			c0.35,0.434,0.731,0.735,1.145,0.906c0.412,0.171,0.855,0.257,1.33,0.257c0.467,0,0.891-0.088,1.27-0.263s0.699-0.441,0.963-0.8
			c0.262-0.358,0.464-0.811,0.605-1.356s0.213-1.189,0.213-1.932c0-0.75-0.061-1.385-0.182-1.906
			c-0.121-0.521-0.293-0.943-0.519-1.269s-0.498-0.562-0.819-0.713C849.571,195.022,849.205,194.947,848.797,194.947z"/>
		<path fill="#5C5D60" d="M862.41,192.547c0.957,0,1.826,0.154,2.605,0.463s1.443,0.746,1.994,1.312
			c0.55,0.566,0.975,1.259,1.275,2.075c0.299,0.816,0.449,1.729,0.449,2.737c0,1.017-0.15,1.934-0.449,2.75
			c-0.301,0.816-0.726,1.513-1.275,2.088c-0.551,0.574-1.215,1.017-1.994,1.324c-0.779,0.309-1.648,0.463-2.605,0.463
			c-0.959,0-1.83-0.154-2.613-0.463c-0.783-0.308-1.451-0.75-2.006-1.324c-0.555-0.575-0.983-1.271-1.287-2.088
			c-0.305-0.816-0.457-1.733-0.457-2.75c0-1.008,0.152-1.921,0.457-2.737c0.304-0.816,0.732-1.509,1.287-2.075
			s1.223-1.004,2.006-1.312S861.451,192.547,862.41,192.547z M862.41,203.385c1.066,0,1.855-0.358,2.368-1.075
			s0.769-1.767,0.769-3.149c0-1.384-0.256-2.438-0.769-3.163c-0.513-0.725-1.302-1.087-2.368-1.087c-1.084,0-1.884,0.364-2.4,1.094
			c-0.518,0.729-0.775,1.781-0.775,3.156s0.258,2.423,0.775,3.144C860.527,203.024,861.326,203.385,862.41,203.385z"/>
		<path fill="#5C5D60" d="M871.147,205.572v-12.825h1.889c0.399,0,0.662,0.188,0.787,0.562l0.199,0.95
			c0.226-0.25,0.461-0.479,0.707-0.688s0.508-0.388,0.787-0.537c0.279-0.15,0.579-0.27,0.9-0.356
			c0.32-0.088,0.673-0.132,1.057-0.132c0.808,0,1.473,0.219,1.993,0.656s0.91,1.02,1.169,1.744c0.199-0.425,0.449-0.789,0.75-1.094
			c0.3-0.304,0.629-0.552,0.987-0.744c0.358-0.191,0.739-0.333,1.144-0.425s0.811-0.138,1.219-0.138
			c0.709,0,1.338,0.108,1.888,0.325s1.013,0.533,1.388,0.95s0.66,0.925,0.855,1.525c0.196,0.6,0.295,1.287,0.295,2.062v8.162h-3.088
			v-8.162c0-0.817-0.18-1.432-0.537-1.844c-0.359-0.413-0.884-0.619-1.576-0.619c-0.316,0-0.609,0.055-0.881,0.162
			c-0.271,0.108-0.508,0.265-0.713,0.469c-0.203,0.205-0.364,0.461-0.48,0.77c-0.117,0.308-0.176,0.662-0.176,1.062v8.162h-3.1
			v-8.162c0-0.858-0.173-1.483-0.519-1.875s-0.856-0.588-1.531-0.588c-0.442,0-0.856,0.11-1.243,0.331
			c-0.389,0.221-0.748,0.523-1.082,0.906v9.388H871.147z"/>
		<path fill="#5C5D60" d="M902.248,205.572h-1.389c-0.291,0-0.521-0.044-0.688-0.131c-0.166-0.088-0.291-0.265-0.375-0.531
			l-0.274-0.913c-0.325,0.292-0.644,0.548-0.956,0.769c-0.312,0.222-0.636,0.406-0.969,0.557c-0.334,0.15-0.688,0.263-1.062,0.338
			c-0.375,0.074-0.792,0.112-1.25,0.112c-0.542,0-1.042-0.073-1.5-0.22c-0.459-0.146-0.853-0.365-1.182-0.658
			s-0.586-0.656-0.769-1.091c-0.184-0.436-0.274-0.941-0.274-1.518c0-0.485,0.127-0.964,0.381-1.437s0.677-0.898,1.269-1.279
			c0.591-0.38,1.379-0.696,2.362-0.946c0.983-0.251,2.204-0.377,3.662-0.377v-0.756c0-0.864-0.181-1.505-0.543-1.921
			c-0.363-0.415-0.891-0.623-1.582-0.623c-0.5,0-0.916,0.059-1.25,0.175c-0.333,0.117-0.623,0.248-0.868,0.394
			c-0.246,0.146-0.474,0.277-0.681,0.395c-0.209,0.116-0.438,0.175-0.688,0.175c-0.209,0-0.389-0.055-0.538-0.163
			c-0.149-0.107-0.271-0.241-0.362-0.399l-0.562-0.987c1.475-1.351,3.254-2.025,5.338-2.025c0.75,0,1.418,0.123,2.006,0.369
			c0.588,0.245,1.085,0.587,1.494,1.024c0.408,0.438,0.719,0.961,0.931,1.569s0.319,1.274,0.319,2V205.572z M896.248,203.647
			c0.316,0,0.607-0.029,0.875-0.086c0.266-0.058,0.518-0.144,0.756-0.259c0.237-0.115,0.467-0.256,0.688-0.425
			c0.221-0.168,0.443-0.367,0.668-0.597v-2.146c-0.899,0-1.652,0.057-2.256,0.17s-1.09,0.258-1.456,0.435
			c-0.366,0.176-0.628,0.382-0.781,0.617c-0.154,0.234-0.231,0.49-0.231,0.768c0,0.546,0.16,0.936,0.481,1.171
			S895.731,203.647,896.248,203.647z"/>
		<path fill="#5C5D60" d="M914.31,205.572c-0.399,0-0.662-0.188-0.787-0.562l-0.25-1.237c-0.267,0.3-0.546,0.57-0.838,0.812
			c-0.292,0.241-0.606,0.45-0.943,0.625c-0.338,0.175-0.7,0.311-1.088,0.406s-0.806,0.144-1.256,0.144
			c-0.7,0-1.342-0.146-1.925-0.438c-0.584-0.292-1.086-0.715-1.507-1.269c-0.421-0.555-0.745-1.239-0.975-2.057
			c-0.229-0.816-0.344-1.75-0.344-2.8c0-0.95,0.129-1.833,0.388-2.65c0.258-0.816,0.629-1.524,1.112-2.125
			c0.483-0.6,1.062-1.068,1.737-1.406c0.675-0.337,1.434-0.506,2.275-0.506c0.717,0,1.328,0.114,1.837,0.344
			s0.963,0.535,1.362,0.919v-6.775h3.088v18.575H914.31z M910.198,203.31c0.642,0,1.188-0.133,1.638-0.399s0.875-0.646,1.274-1.138
			v-5.75c-0.35-0.425-0.73-0.726-1.144-0.9c-0.412-0.175-0.856-0.263-1.331-0.263c-0.467,0-0.89,0.088-1.269,0.263
			c-0.38,0.175-0.7,0.439-0.963,0.794s-0.464,0.805-0.606,1.35c-0.142,0.546-0.212,1.19-0.212,1.932c0,0.75,0.06,1.386,0.181,1.906
			s0.294,0.946,0.52,1.275c0.225,0.329,0.5,0.566,0.824,0.712C909.435,203.237,909.797,203.31,910.198,203.31z"/>
	</g>
	<g>
		<rect x="436.371" y="156.998" fill="none" width="216.637" height="61"/>
	</g>
	<g enable-background="new    ">
		<path fill="#5C5D60" d="M408.29,157.497h2.825c0.292,0,0.535,0.069,0.731,0.206c0.196,0.138,0.327,0.323,0.394,0.557l3.075,10.812
			c0.075,0.267,0.144,0.557,0.207,0.869s0.123,0.644,0.181,0.993c0.066-0.35,0.14-0.681,0.219-0.993s0.165-0.603,0.256-0.869
			l3.55-10.812c0.067-0.191,0.198-0.366,0.394-0.525c0.195-0.158,0.435-0.237,0.719-0.237h0.987c0.292,0,0.533,0.069,0.725,0.206
			c0.191,0.138,0.325,0.323,0.4,0.557l3.525,10.812c0.183,0.533,0.342,1.125,0.475,1.775c0.058-0.325,0.119-0.638,0.181-0.938
			c0.062-0.301,0.127-0.579,0.194-0.838l3.075-10.812c0.058-0.208,0.188-0.388,0.387-0.537c0.2-0.15,0.442-0.226,0.725-0.226h2.638
			l-5.613,18.075h-3.038l-3.95-12.35c-0.05-0.158-0.102-0.329-0.156-0.513s-0.106-0.379-0.156-0.588
			c-0.05,0.209-0.102,0.404-0.156,0.588s-0.106,0.354-0.156,0.513l-3.988,12.35h-3.037L408.29,157.497z"/>
		<path fill="#5C5D60" d="M440.915,162.547c0.958,0,1.827,0.154,2.606,0.463c0.779,0.309,1.443,0.746,1.994,1.312
			c0.55,0.566,0.975,1.259,1.275,2.075s0.45,1.729,0.45,2.737c0,1.017-0.15,1.934-0.45,2.75s-0.725,1.513-1.275,2.088
			c-0.55,0.574-1.215,1.017-1.994,1.324c-0.779,0.309-1.648,0.463-2.606,0.463c-0.958,0-1.829-0.154-2.612-0.463
			c-0.784-0.308-1.452-0.75-2.006-1.324c-0.554-0.575-0.983-1.271-1.288-2.088s-0.456-1.733-0.456-2.75
			c0-1.008,0.152-1.921,0.456-2.737s0.733-1.509,1.288-2.075s1.223-1.004,2.006-1.312
			C439.086,162.701,439.956,162.547,440.915,162.547z M440.915,173.385c1.066,0,1.856-0.358,2.369-1.075
			c0.513-0.717,0.769-1.767,0.769-3.149c0-1.384-0.256-2.438-0.769-3.163c-0.512-0.725-1.302-1.087-2.369-1.087
			c-1.083,0-1.883,0.364-2.4,1.094c-0.517,0.729-0.775,1.781-0.775,3.156s0.258,2.423,0.775,3.144
			C439.031,173.024,439.831,173.385,440.915,173.385z"/>
		<path fill="#5C5D60" d="M449.652,175.572v-12.825h1.812c0.317,0,0.538,0.059,0.663,0.175c0.125,0.117,0.208,0.317,0.25,0.601
			l0.188,1.55c0.458-0.792,0.996-1.417,1.612-1.875s1.309-0.688,2.075-0.688c0.633,0,1.158,0.146,1.575,0.438l-0.4,2.312
			c-0.025,0.15-0.079,0.256-0.162,0.318c-0.083,0.062-0.196,0.094-0.338,0.094c-0.125,0-0.296-0.028-0.512-0.087
			c-0.217-0.059-0.504-0.088-0.863-0.088c-0.642,0-1.191,0.178-1.65,0.531c-0.458,0.354-0.846,0.873-1.163,1.557v7.987H449.652z"/>
		<path fill="#5C5D60" d="M462.99,156.997v10.638h0.575c0.208,0,0.371-0.029,0.487-0.088c0.117-0.058,0.242-0.166,0.375-0.324
			l3.188-3.938c0.142-0.167,0.292-0.298,0.45-0.395c0.158-0.096,0.367-0.144,0.625-0.144h2.825l-3.987,4.763
			c-0.142,0.175-0.288,0.336-0.438,0.481s-0.312,0.272-0.487,0.381c0.175,0.125,0.329,0.271,0.462,0.438
			c0.133,0.167,0.267,0.346,0.4,0.538l4.275,6.225h-2.788c-0.242,0-0.446-0.042-0.612-0.125c-0.167-0.083-0.317-0.225-0.45-0.425
			l-3.262-4.862c-0.125-0.192-0.25-0.317-0.375-0.375c-0.125-0.059-0.312-0.088-0.562-0.088h-0.7v5.875h-3.087v-18.575H462.99z"/>
		<path fill="#5C5D60" d="M481.265,165.247c-0.083,0.134-0.171,0.228-0.263,0.281c-0.092,0.055-0.208,0.081-0.35,0.081
			c-0.15,0-0.311-0.041-0.481-0.125c-0.171-0.083-0.369-0.177-0.594-0.281c-0.225-0.104-0.481-0.197-0.769-0.281
			c-0.288-0.083-0.627-0.125-1.019-0.125c-0.608,0-1.087,0.13-1.438,0.388c-0.35,0.259-0.525,0.596-0.525,1.013
			c0,0.275,0.089,0.506,0.269,0.693s0.417,0.353,0.712,0.494s0.631,0.269,1.006,0.381c0.375,0.113,0.758,0.236,1.15,0.369
			c0.392,0.134,0.775,0.285,1.15,0.456s0.71,0.388,1.006,0.65s0.533,0.577,0.712,0.943c0.179,0.367,0.269,0.809,0.269,1.325
			c0,0.617-0.113,1.186-0.337,1.706c-0.225,0.521-0.555,0.971-0.988,1.351c-0.433,0.379-0.969,0.675-1.606,0.887
			c-0.638,0.213-1.369,0.319-2.194,0.319c-0.442,0-0.873-0.04-1.294-0.119s-0.825-0.189-1.212-0.331s-0.746-0.309-1.075-0.5
			s-0.619-0.4-0.869-0.625l0.712-1.175c0.092-0.142,0.2-0.25,0.325-0.325s0.283-0.112,0.475-0.112c0.191,0,0.373,0.054,0.543,0.162
			s0.369,0.226,0.594,0.351c0.225,0.125,0.49,0.241,0.794,0.35s0.689,0.162,1.156,0.162c0.367,0,0.681-0.043,0.944-0.131
			c0.262-0.088,0.479-0.202,0.65-0.344s0.296-0.307,0.375-0.494s0.119-0.381,0.119-0.581c0-0.3-0.089-0.546-0.269-0.737
			s-0.417-0.358-0.712-0.5c-0.296-0.142-0.634-0.269-1.013-0.381c-0.379-0.113-0.767-0.235-1.163-0.369
			c-0.396-0.133-0.783-0.289-1.163-0.469c-0.379-0.179-0.717-0.406-1.012-0.682c-0.296-0.274-0.534-0.612-0.712-1.012
			c-0.18-0.4-0.269-0.884-0.269-1.45c0-0.525,0.104-1.025,0.312-1.5c0.208-0.476,0.515-0.89,0.919-1.244
			c0.404-0.354,0.908-0.638,1.512-0.85c0.604-0.213,1.302-0.319,2.094-0.319c0.883,0,1.688,0.146,2.413,0.438
			c0.725,0.292,1.329,0.676,1.812,1.15L481.265,165.247z"/>
		<path fill="#5C5D60" d="M484.577,175.572v-18.575h3.087v7.138c0.5-0.475,1.05-0.858,1.65-1.15c0.6-0.291,1.304-0.438,2.112-0.438
			c0.7,0,1.321,0.119,1.862,0.356c0.542,0.237,0.994,0.571,1.356,1c0.362,0.43,0.638,0.942,0.825,1.538s0.281,1.252,0.281,1.969
			v8.162h-3.088v-8.162c0-0.783-0.181-1.39-0.543-1.819c-0.363-0.429-0.906-0.644-1.631-0.644c-0.533,0-1.033,0.121-1.5,0.362
			c-0.467,0.242-0.908,0.571-1.325,0.987v9.275H484.577z"/>
		<path fill="#5C5D60" d="M504.264,162.547c0.958,0,1.827,0.154,2.606,0.463c0.779,0.309,1.443,0.746,1.994,1.312
			c0.55,0.566,0.975,1.259,1.275,2.075s0.45,1.729,0.45,2.737c0,1.017-0.15,1.934-0.45,2.75s-0.725,1.513-1.275,2.088
			c-0.55,0.574-1.215,1.017-1.994,1.324c-0.779,0.309-1.648,0.463-2.606,0.463c-0.958,0-1.829-0.154-2.612-0.463
			c-0.784-0.308-1.452-0.75-2.006-1.324c-0.554-0.575-0.983-1.271-1.288-2.088s-0.456-1.733-0.456-2.75
			c0-1.008,0.152-1.921,0.456-2.737s0.733-1.509,1.288-2.075s1.223-1.004,2.006-1.312
			C502.435,162.701,503.306,162.547,504.264,162.547z M504.264,173.385c1.066,0,1.856-0.358,2.369-1.075
			c0.513-0.717,0.769-1.767,0.769-3.149c0-1.384-0.256-2.438-0.769-3.163c-0.512-0.725-1.302-1.087-2.369-1.087
			c-1.083,0-1.883,0.364-2.4,1.094c-0.517,0.729-0.775,1.781-0.775,3.156s0.258,2.423,0.775,3.144
			C502.381,173.024,503.181,173.385,504.264,173.385z"/>
		<path fill="#5C5D60" d="M513.002,179.76v-17.013h1.888c0.2,0,0.371,0.046,0.512,0.138s0.233,0.233,0.275,0.425l0.25,1.188
			c0.517-0.592,1.11-1.07,1.781-1.438c0.67-0.366,1.456-0.55,2.356-0.55c0.7,0,1.339,0.146,1.919,0.438
			c0.579,0.292,1.079,0.715,1.5,1.269c0.42,0.555,0.746,1.237,0.975,2.05c0.229,0.812,0.344,1.744,0.344,2.794
			c0,0.959-0.129,1.846-0.388,2.663c-0.258,0.816-0.627,1.524-1.106,2.125c-0.479,0.6-1.058,1.068-1.737,1.406
			c-0.679,0.337-1.439,0.506-2.281,0.506c-0.725,0-1.34-0.11-1.844-0.331c-0.504-0.221-0.956-0.527-1.356-0.919v5.25H513.002z
			 M519.002,164.947c-0.642,0-1.189,0.136-1.644,0.406c-0.455,0.271-0.877,0.652-1.269,1.144v5.75
			c0.35,0.434,0.731,0.735,1.144,0.906s0.856,0.257,1.331,0.257c0.467,0,0.89-0.088,1.269-0.263c0.379-0.175,0.7-0.441,0.962-0.8
			c0.262-0.358,0.464-0.811,0.606-1.356s0.213-1.189,0.213-1.932c0-0.75-0.061-1.385-0.182-1.906
			c-0.121-0.521-0.293-0.943-0.519-1.269s-0.498-0.562-0.819-0.713C519.775,165.022,519.41,164.947,519.002,164.947z"/>
	</g>
	<g enable-background="new    ">
		<path fill="#5C5D60" d="M398.196,197.824h8.348v2.425h-8.398l3.224,3.199l-2.05,1.849l-5.848-6.223l5.848-6.224l2.05,1.824
			L398.196,197.824z"/>
		<path fill="#5C5D60" d="M412.971,199.21v6.362h-3.362v-18.075h5.888c1.208,0,2.254,0.142,3.137,0.425
			c0.883,0.284,1.613,0.68,2.188,1.188c0.575,0.509,1,1.117,1.275,1.825c0.275,0.709,0.413,1.483,0.413,2.325
			c0,0.875-0.146,1.677-0.438,2.406s-0.729,1.356-1.312,1.881c-0.583,0.525-1.312,0.934-2.188,1.226s-1.9,0.438-3.075,0.438H412.971
			z M412.971,196.585h2.525c0.616,0,1.154-0.077,1.612-0.231c0.458-0.154,0.837-0.375,1.138-0.662
			c0.3-0.288,0.525-0.638,0.675-1.051c0.15-0.412,0.225-0.872,0.225-1.381c0-0.483-0.075-0.921-0.225-1.312s-0.375-0.725-0.675-1
			c-0.3-0.275-0.68-0.485-1.138-0.631c-0.458-0.146-0.996-0.219-1.612-0.219h-2.525V196.585z"/>
		<path fill="#5C5D60" d="M430.047,192.547c0.958,0,1.827,0.154,2.606,0.463c0.779,0.309,1.443,0.746,1.994,1.312
			c0.55,0.566,0.975,1.259,1.275,2.075s0.45,1.729,0.45,2.737c0,1.017-0.15,1.934-0.45,2.75s-0.725,1.513-1.275,2.088
			c-0.55,0.574-1.215,1.017-1.994,1.324c-0.779,0.309-1.648,0.463-2.606,0.463c-0.958,0-1.829-0.154-2.612-0.463
			c-0.784-0.308-1.452-0.75-2.006-1.324c-0.554-0.575-0.983-1.271-1.288-2.088s-0.456-1.733-0.456-2.75
			c0-1.008,0.152-1.921,0.456-2.737s0.733-1.509,1.288-2.075s1.223-1.004,2.006-1.312
			C428.218,192.701,429.088,192.547,430.047,192.547z M430.047,203.385c1.066,0,1.856-0.358,2.369-1.075
			c0.513-0.717,0.769-1.767,0.769-3.149c0-1.384-0.256-2.438-0.769-3.163c-0.512-0.725-1.302-1.087-2.369-1.087
			c-1.083,0-1.883,0.364-2.4,1.094c-0.517,0.729-0.775,1.781-0.775,3.156s0.258,2.423,0.775,3.144
			C428.163,203.024,428.963,203.385,430.047,203.385z"/>
		<path fill="#5C5D60" d="M442.534,189.01c0,0.267-0.054,0.517-0.163,0.75s-0.252,0.438-0.431,0.612s-0.39,0.314-0.631,0.419
			s-0.5,0.156-0.775,0.156c-0.267,0-0.519-0.052-0.756-0.156c-0.237-0.104-0.443-0.244-0.619-0.419
			c-0.175-0.175-0.314-0.379-0.418-0.612c-0.104-0.233-0.156-0.483-0.156-0.75c0-0.275,0.052-0.533,0.156-0.775
			c0.104-0.241,0.244-0.449,0.418-0.625c0.175-0.175,0.381-0.314,0.619-0.418c0.238-0.104,0.49-0.156,0.756-0.156
			c0.275,0,0.533,0.052,0.775,0.156c0.242,0.104,0.452,0.243,0.631,0.418c0.179,0.176,0.323,0.384,0.431,0.625
			C442.48,188.477,442.534,188.734,442.534,189.01z M442.072,192.747v12.825h-3.087v-12.825H442.072z"/>
		<path fill="#5C5D60" d="M445.559,205.572v-12.825h1.888c0.4,0,0.663,0.188,0.788,0.562l0.212,1.013
			c0.258-0.267,0.531-0.508,0.819-0.725c0.287-0.217,0.591-0.404,0.912-0.562s0.665-0.279,1.031-0.363
			c0.367-0.083,0.767-0.125,1.2-0.125c0.7,0,1.321,0.119,1.862,0.356c0.542,0.237,0.994,0.571,1.356,1
			c0.362,0.43,0.638,0.942,0.825,1.538s0.281,1.252,0.281,1.969v8.162h-3.088v-8.162c0-0.783-0.181-1.39-0.543-1.819
			c-0.363-0.429-0.906-0.644-1.631-0.644c-0.533,0-1.033,0.121-1.5,0.362c-0.467,0.242-0.908,0.571-1.325,0.987v9.275H445.559z"/>
		<path fill="#5C5D60" d="M463.984,205.772c-1.108,0-1.962-0.314-2.562-0.944c-0.6-0.629-0.9-1.497-0.9-2.605v-7.163h-1.3
			c-0.167,0-0.311-0.054-0.431-0.162c-0.121-0.108-0.182-0.271-0.182-0.487v-1.226l2.062-0.337l0.65-3.5
			c0.033-0.167,0.11-0.296,0.231-0.388s0.273-0.138,0.457-0.138h1.6v4.037h3.375v2.2h-3.375v6.95c0,0.4,0.1,0.713,0.3,0.938
			c0.2,0.225,0.466,0.338,0.8,0.338c0.192,0,0.352-0.023,0.481-0.069c0.129-0.046,0.242-0.094,0.337-0.144s0.181-0.098,0.256-0.144
			c0.075-0.046,0.15-0.069,0.225-0.069c0.091,0,0.167,0.023,0.225,0.069c0.059,0.046,0.121,0.114,0.188,0.206l0.925,1.5
			c-0.45,0.375-0.967,0.658-1.55,0.85C465.214,205.677,464.609,205.772,463.984,205.772z"/>
		<path fill="#5C5D60" d="M474.747,192.547c0.808,0,1.552,0.13,2.231,0.388c0.679,0.259,1.265,0.636,1.756,1.132
			c0.492,0.495,0.875,1.104,1.15,1.824c0.275,0.722,0.413,1.544,0.413,2.469c0,0.233-0.011,0.428-0.031,0.582
			c-0.021,0.154-0.059,0.274-0.112,0.362c-0.055,0.087-0.127,0.149-0.219,0.188c-0.092,0.037-0.208,0.056-0.35,0.056h-7.925
			c0.092,1.317,0.446,2.284,1.062,2.9c0.617,0.617,1.434,0.925,2.45,0.925c0.5,0,0.931-0.058,1.294-0.175
			c0.362-0.116,0.679-0.246,0.95-0.388s0.508-0.271,0.712-0.388c0.204-0.116,0.402-0.175,0.594-0.175
			c0.125,0,0.233,0.025,0.325,0.075s0.171,0.121,0.237,0.213l0.9,1.125c-0.342,0.399-0.725,0.735-1.15,1.006
			c-0.425,0.271-0.869,0.487-1.331,0.65c-0.462,0.162-0.934,0.276-1.413,0.344c-0.479,0.066-0.944,0.1-1.394,0.1
			c-0.892,0-1.721-0.148-2.488-0.443c-0.767-0.296-1.433-0.733-2-1.312c-0.566-0.579-1.012-1.296-1.337-2.15
			c-0.325-0.854-0.487-1.844-0.487-2.969c0-0.875,0.142-1.698,0.425-2.469s0.689-1.441,1.219-2.013
			c0.529-0.57,1.175-1.022,1.938-1.356C472.928,192.714,473.788,192.547,474.747,192.547z M474.809,194.76
			c-0.9,0-1.604,0.254-2.113,0.763c-0.508,0.508-0.833,1.229-0.975,2.162h5.8c0-0.399-0.054-0.776-0.163-1.131
			s-0.275-0.665-0.5-0.932s-0.508-0.477-0.85-0.631S475.267,194.76,474.809,194.76z"/>
		<path fill="#5C5D60" d="M491.833,205.572c-0.4,0-0.662-0.188-0.787-0.562l-0.25-1.237c-0.267,0.3-0.546,0.57-0.838,0.812
			c-0.292,0.241-0.606,0.45-0.943,0.625c-0.338,0.175-0.7,0.311-1.088,0.406c-0.387,0.096-0.806,0.144-1.256,0.144
			c-0.7,0-1.342-0.146-1.925-0.438s-1.085-0.715-1.506-1.269c-0.421-0.555-0.746-1.239-0.975-2.057
			c-0.229-0.816-0.344-1.75-0.344-2.8c0-0.95,0.129-1.833,0.387-2.65c0.258-0.816,0.629-1.524,1.113-2.125
			c0.483-0.6,1.062-1.068,1.737-1.406c0.675-0.337,1.433-0.506,2.275-0.506c0.717,0,1.329,0.114,1.837,0.344
			s0.963,0.535,1.363,0.919v-6.775h3.087v18.575H491.833z M487.721,203.31c0.642,0,1.188-0.133,1.638-0.399
			c0.45-0.267,0.875-0.646,1.275-1.138v-5.75c-0.35-0.425-0.731-0.726-1.144-0.9c-0.412-0.175-0.856-0.263-1.331-0.263
			c-0.467,0-0.89,0.088-1.269,0.263c-0.379,0.175-0.7,0.439-0.963,0.794c-0.262,0.354-0.464,0.805-0.606,1.35
			c-0.142,0.546-0.212,1.19-0.212,1.932c0,0.75,0.06,1.386,0.181,1.906c0.121,0.521,0.293,0.946,0.519,1.275s0.5,0.566,0.825,0.712
			C486.958,203.237,487.321,203.31,487.721,203.31z"/>
		<path fill="#5C5D60" d="M502.058,205.572v-18.075h6.237c1.183,0,2.194,0.112,3.031,0.338c0.837,0.225,1.525,0.546,2.062,0.962
			c0.538,0.417,0.931,0.921,1.181,1.513s0.375,1.259,0.375,2c0,0.425-0.062,0.831-0.188,1.219s-0.319,0.75-0.581,1.088
			c-0.263,0.337-0.596,0.644-1,0.919c-0.404,0.274-0.886,0.508-1.444,0.699c2.483,0.559,3.725,1.9,3.725,4.025
			c0,0.767-0.146,1.475-0.438,2.125c-0.292,0.65-0.717,1.211-1.275,1.682c-0.559,0.471-1.246,0.839-2.062,1.105
			c-0.817,0.268-1.75,0.4-2.8,0.4H502.058z M505.421,195.322h2.688c1.142,0,2.008-0.208,2.6-0.625
			c0.591-0.417,0.887-1.079,0.887-1.987c0-0.941-0.267-1.612-0.8-2.013s-1.367-0.6-2.5-0.6h-2.875V195.322z M505.421,197.647v5.3
			h3.413c0.625,0,1.148-0.075,1.569-0.225c0.42-0.15,0.758-0.351,1.012-0.601s0.438-0.541,0.55-0.875
			c0.112-0.333,0.168-0.688,0.168-1.062c0-0.392-0.062-0.743-0.188-1.056s-0.321-0.579-0.587-0.801
			c-0.267-0.221-0.608-0.389-1.025-0.506c-0.417-0.116-0.921-0.175-1.513-0.175H505.421z"/>
		<path fill="#5C5D60" d="M518.17,205.572v-12.825h1.812c0.317,0,0.538,0.059,0.663,0.175c0.125,0.117,0.208,0.317,0.25,0.601
			l0.188,1.55c0.458-0.792,0.996-1.417,1.612-1.875s1.309-0.688,2.075-0.688c0.633,0,1.158,0.146,1.575,0.438l-0.4,2.312
			c-0.025,0.15-0.079,0.256-0.162,0.318c-0.083,0.062-0.196,0.094-0.338,0.094c-0.125,0-0.296-0.028-0.512-0.087
			c-0.217-0.059-0.504-0.088-0.863-0.088c-0.642,0-1.191,0.178-1.65,0.531c-0.458,0.354-0.846,0.873-1.163,1.557v7.987H518.17z"/>
		<path fill="#5C5D60" d="M531.208,192.747v8.15c0,0.783,0.181,1.39,0.543,1.818c0.363,0.43,0.906,0.644,1.631,0.644
			c0.533,0,1.033-0.118,1.5-0.355c0.467-0.238,0.908-0.564,1.325-0.981v-9.275h3.087v12.825h-1.888c-0.4,0-0.662-0.188-0.787-0.562
			l-0.213-1.025c-0.267,0.268-0.542,0.511-0.825,0.731c-0.284,0.221-0.585,0.408-0.906,0.562s-0.667,0.275-1.038,0.362
			c-0.371,0.088-0.769,0.132-1.194,0.132c-0.7,0-1.319-0.119-1.856-0.356c-0.538-0.237-0.99-0.573-1.356-1.006
			c-0.367-0.434-0.644-0.948-0.831-1.544s-0.281-1.252-0.281-1.969v-8.15H531.208z"/>
		<path fill="#5C5D60" d="M550.207,195.247c-0.083,0.134-0.17,0.228-0.262,0.281c-0.092,0.055-0.209,0.081-0.351,0.081
			c-0.149,0-0.311-0.041-0.481-0.125c-0.17-0.083-0.369-0.177-0.594-0.281c-0.225-0.104-0.48-0.197-0.769-0.281
			c-0.288-0.083-0.627-0.125-1.019-0.125c-0.608,0-1.088,0.13-1.438,0.388c-0.35,0.259-0.525,0.596-0.525,1.013
			c0,0.275,0.09,0.506,0.27,0.693c0.179,0.188,0.416,0.353,0.712,0.494s0.632,0.269,1.007,0.381
			c0.375,0.113,0.758,0.236,1.149,0.369c0.392,0.134,0.774,0.285,1.149,0.456s0.711,0.388,1.007,0.65s0.533,0.577,0.712,0.943
			c0.18,0.367,0.27,0.809,0.27,1.325c0,0.617-0.113,1.186-0.338,1.706c-0.225,0.521-0.555,0.971-0.987,1.351
			c-0.433,0.379-0.969,0.675-1.606,0.887c-0.637,0.213-1.369,0.319-2.193,0.319c-0.441,0-0.873-0.04-1.294-0.119
			s-0.825-0.189-1.212-0.331s-0.746-0.309-1.075-0.5s-0.619-0.4-0.869-0.625l0.712-1.175c0.092-0.142,0.2-0.25,0.325-0.325
			s0.283-0.112,0.475-0.112c0.191,0,0.373,0.054,0.543,0.162s0.369,0.226,0.594,0.351c0.225,0.125,0.49,0.241,0.794,0.35
			c0.304,0.108,0.689,0.162,1.156,0.162c0.366,0,0.681-0.043,0.943-0.131c0.262-0.088,0.479-0.202,0.65-0.344
			c0.17-0.142,0.295-0.307,0.375-0.494c0.078-0.188,0.118-0.381,0.118-0.581c0-0.3-0.089-0.546-0.269-0.737s-0.417-0.358-0.713-0.5
			c-0.295-0.142-0.633-0.269-1.012-0.381c-0.38-0.113-0.768-0.235-1.163-0.369c-0.396-0.133-0.783-0.289-1.163-0.469
			c-0.379-0.179-0.717-0.406-1.012-0.682c-0.296-0.274-0.534-0.612-0.712-1.012c-0.18-0.4-0.269-0.884-0.269-1.45
			c0-0.525,0.104-1.025,0.312-1.5c0.208-0.476,0.515-0.89,0.919-1.244c0.404-0.354,0.908-0.638,1.512-0.85
			c0.605-0.213,1.303-0.319,2.094-0.319c0.884,0,1.688,0.146,2.413,0.438c0.726,0.292,1.329,0.676,1.812,1.15L550.207,195.247z"/>
		<path fill="#5C5D60" d="M553.52,205.572v-18.575h3.088v7.138c0.5-0.475,1.05-0.858,1.65-1.15c0.6-0.291,1.303-0.438,2.111-0.438
			c0.701,0,1.321,0.119,1.863,0.356c0.541,0.237,0.994,0.571,1.355,1c0.363,0.43,0.639,0.942,0.826,1.538s0.281,1.252,0.281,1.969
			v8.162h-3.088v-8.162c0-0.783-0.182-1.39-0.544-1.819c-0.362-0.429-0.906-0.644-1.632-0.644c-0.533,0-1.033,0.121-1.5,0.362
			c-0.467,0.242-0.908,0.571-1.324,0.987v9.275H553.52z"/>
		<path fill="#5C5D60" d="M582.42,190.785c-0.092,0.183-0.198,0.312-0.318,0.387c-0.121,0.075-0.266,0.113-0.432,0.113
			c-0.167,0-0.354-0.064-0.562-0.194c-0.209-0.129-0.455-0.272-0.738-0.431s-0.614-0.303-0.993-0.432
			c-0.38-0.129-0.827-0.193-1.344-0.193c-0.467,0-0.873,0.056-1.219,0.168c-0.346,0.113-0.638,0.27-0.875,0.469
			c-0.237,0.2-0.415,0.44-0.531,0.719c-0.116,0.279-0.175,0.586-0.175,0.919c0,0.425,0.119,0.779,0.355,1.062
			c0.238,0.283,0.553,0.525,0.944,0.726c0.392,0.199,0.837,0.379,1.337,0.537s1.011,0.327,1.531,0.506
			c0.521,0.18,1.031,0.388,1.531,0.625c0.5,0.238,0.946,0.538,1.338,0.9s0.707,0.807,0.943,1.331
			c0.238,0.525,0.357,1.163,0.357,1.913c0,0.816-0.141,1.581-0.42,2.293c-0.279,0.713-0.688,1.334-1.225,1.863
			s-1.193,0.945-1.969,1.25c-0.775,0.304-1.662,0.456-2.662,0.456c-0.575,0-1.143-0.057-1.7-0.169
			c-0.559-0.112-1.094-0.272-1.606-0.481c-0.512-0.208-0.992-0.458-1.438-0.75c-0.445-0.291-0.844-0.616-1.193-0.975l0.975-1.612
			c0.092-0.117,0.202-0.215,0.332-0.294c0.129-0.079,0.272-0.119,0.431-0.119c0.208,0,0.433,0.086,0.675,0.257
			s0.527,0.36,0.856,0.568s0.717,0.398,1.163,0.568c0.445,0.171,0.98,0.257,1.605,0.257c0.959,0,1.7-0.228,2.225-0.682
			c0.525-0.454,0.788-1.106,0.788-1.956c0-0.475-0.118-0.862-0.356-1.162c-0.237-0.301-0.552-0.553-0.943-0.757
			c-0.393-0.204-0.838-0.377-1.338-0.519s-1.008-0.296-1.525-0.463c-0.516-0.166-1.024-0.366-1.524-0.6s-0.946-0.537-1.337-0.912
			c-0.393-0.375-0.707-0.844-0.944-1.406s-0.356-1.257-0.356-2.082c0-0.658,0.131-1.3,0.395-1.925
			c0.262-0.625,0.645-1.179,1.149-1.662c0.504-0.483,1.123-0.871,1.856-1.163c0.732-0.291,1.57-0.438,2.512-0.438
			c1.067,0,2.051,0.167,2.951,0.5c0.899,0.334,1.666,0.801,2.299,1.4L582.42,190.785z"/>
		<path fill="#5C5D60" d="M590.182,205.772c-1.108,0-1.963-0.314-2.562-0.944c-0.6-0.629-0.9-1.497-0.9-2.605v-7.163h-1.299
			c-0.168,0-0.311-0.054-0.432-0.162s-0.182-0.271-0.182-0.487v-1.226l2.062-0.337l0.65-3.5c0.033-0.167,0.11-0.296,0.23-0.388
			c0.121-0.092,0.273-0.138,0.457-0.138h1.6v4.037h3.375v2.2h-3.375v6.95c0,0.4,0.1,0.713,0.301,0.938
			c0.199,0.225,0.466,0.338,0.799,0.338c0.192,0,0.353-0.023,0.482-0.069c0.129-0.046,0.241-0.094,0.337-0.144
			s0.181-0.098,0.257-0.144c0.074-0.046,0.149-0.069,0.225-0.069c0.092,0,0.166,0.023,0.225,0.069s0.121,0.114,0.188,0.206
			l0.926,1.5c-0.451,0.375-0.967,0.658-1.551,0.85C591.411,205.677,590.807,205.772,590.182,205.772z"/>
		<path fill="#5C5D60" d="M595.645,205.572v-12.825h1.812c0.316,0,0.537,0.059,0.662,0.175c0.125,0.117,0.208,0.317,0.25,0.601
			l0.188,1.55c0.458-0.792,0.996-1.417,1.612-1.875s1.309-0.688,2.075-0.688c0.633,0,1.158,0.146,1.575,0.438l-0.4,2.312
			c-0.024,0.15-0.079,0.256-0.162,0.318s-0.196,0.094-0.338,0.094c-0.125,0-0.296-0.028-0.513-0.087s-0.504-0.088-0.862-0.088
			c-0.642,0-1.191,0.178-1.649,0.531c-0.459,0.354-0.846,0.873-1.163,1.557v7.987H595.645z"/>
		<path fill="#5C5D60" d="M611.332,192.547c0.957,0,1.826,0.154,2.605,0.463s1.443,0.746,1.994,1.312
			c0.55,0.566,0.975,1.259,1.275,2.075c0.299,0.816,0.449,1.729,0.449,2.737c0,1.017-0.15,1.934-0.449,2.75
			c-0.301,0.816-0.726,1.513-1.275,2.088c-0.551,0.574-1.215,1.017-1.994,1.324c-0.779,0.309-1.648,0.463-2.605,0.463
			c-0.959,0-1.83-0.154-2.613-0.463c-0.783-0.308-1.451-0.75-2.006-1.324c-0.555-0.575-0.983-1.271-1.287-2.088
			c-0.305-0.816-0.457-1.733-0.457-2.75c0-1.008,0.152-1.921,0.457-2.737c0.304-0.816,0.732-1.509,1.287-2.075
			s1.223-1.004,2.006-1.312S610.373,192.547,611.332,192.547z M611.332,203.385c1.066,0,1.855-0.358,2.368-1.075
			s0.769-1.767,0.769-3.149c0-1.384-0.256-2.438-0.769-3.163c-0.513-0.725-1.302-1.087-2.368-1.087c-1.084,0-1.884,0.364-2.4,1.094
			c-0.518,0.729-0.775,1.781-0.775,3.156s0.258,2.423,0.775,3.144C609.448,203.024,610.248,203.385,611.332,203.385z"/>
		<path fill="#5C5D60" d="M623.194,186.997v10.638h0.576c0.207,0,0.37-0.029,0.486-0.088c0.117-0.058,0.242-0.166,0.375-0.324
			l3.188-3.938c0.143-0.167,0.292-0.298,0.451-0.395c0.158-0.096,0.366-0.144,0.625-0.144h2.824l-3.987,4.763
			c-0.142,0.175-0.288,0.336-0.438,0.481s-0.312,0.272-0.487,0.381c0.175,0.125,0.329,0.271,0.463,0.438
			c0.133,0.167,0.266,0.346,0.399,0.538l4.274,6.225h-2.787c-0.242,0-0.445-0.042-0.612-0.125s-0.317-0.225-0.45-0.425l-3.262-4.862
			c-0.125-0.192-0.25-0.317-0.375-0.375c-0.125-0.059-0.312-0.088-0.562-0.088h-0.701v5.875h-3.087v-18.575H623.194z"/>
		<path fill="#5C5D60" d="M638.406,192.547c0.809,0,1.553,0.13,2.231,0.388c0.679,0.259,1.265,0.636,1.757,1.132
			c0.491,0.495,0.875,1.104,1.149,1.824c0.274,0.722,0.413,1.544,0.413,2.469c0,0.233-0.012,0.428-0.031,0.582
			c-0.021,0.154-0.059,0.274-0.113,0.362c-0.055,0.087-0.127,0.149-0.219,0.188c-0.092,0.037-0.208,0.056-0.35,0.056h-7.926
			c0.092,1.317,0.446,2.284,1.062,2.9c0.617,0.617,1.434,0.925,2.451,0.925c0.5,0,0.931-0.058,1.293-0.175
			c0.363-0.116,0.68-0.246,0.95-0.388s0.509-0.271,0.712-0.388c0.205-0.116,0.402-0.175,0.594-0.175
			c0.125,0,0.234,0.025,0.326,0.075s0.17,0.121,0.236,0.213l0.9,1.125c-0.342,0.399-0.725,0.735-1.15,1.006
			c-0.424,0.271-0.868,0.487-1.33,0.65c-0.463,0.162-0.934,0.276-1.413,0.344c-0.479,0.066-0.944,0.1-1.394,0.1
			c-0.893,0-1.721-0.148-2.488-0.443c-0.766-0.296-1.433-0.733-2-1.312c-0.566-0.579-1.012-1.296-1.337-2.15
			s-0.487-1.844-0.487-2.969c0-0.875,0.142-1.698,0.425-2.469s0.689-1.441,1.219-2.013c0.529-0.57,1.175-1.022,1.938-1.356
			C636.588,192.714,637.448,192.547,638.406,192.547z M638.469,194.76c-0.9,0-1.604,0.254-2.112,0.763
			c-0.509,0.508-0.833,1.229-0.976,2.162h5.801c0-0.399-0.055-0.776-0.162-1.131c-0.109-0.354-0.275-0.665-0.5-0.932
			c-0.226-0.267-0.509-0.477-0.851-0.631S638.928,194.76,638.469,194.76z"/>
		<path fill="#5C5D60" d="M654.082,195.247c-0.084,0.134-0.172,0.228-0.264,0.281c-0.092,0.055-0.208,0.081-0.35,0.081
			c-0.15,0-0.311-0.041-0.48-0.125c-0.172-0.083-0.369-0.177-0.594-0.281c-0.226-0.104-0.482-0.197-0.77-0.281
			c-0.287-0.083-0.627-0.125-1.019-0.125c-0.608,0-1.087,0.13-1.438,0.388c-0.351,0.259-0.524,0.596-0.524,1.013
			c0,0.275,0.089,0.506,0.268,0.693c0.18,0.188,0.417,0.353,0.713,0.494s0.631,0.269,1.006,0.381
			c0.375,0.113,0.759,0.236,1.15,0.369c0.392,0.134,0.775,0.285,1.15,0.456s0.71,0.388,1.006,0.65s0.533,0.577,0.713,0.943
			c0.179,0.367,0.269,0.809,0.269,1.325c0,0.617-0.112,1.186-0.337,1.706c-0.226,0.521-0.555,0.971-0.988,1.351
			c-0.434,0.379-0.969,0.675-1.605,0.887c-0.639,0.213-1.369,0.319-2.194,0.319c-0.442,0-0.873-0.04-1.294-0.119
			s-0.824-0.189-1.213-0.331c-0.387-0.142-0.746-0.309-1.074-0.5c-0.33-0.191-0.619-0.4-0.869-0.625l0.713-1.175
			c0.092-0.142,0.199-0.25,0.324-0.325s0.283-0.112,0.476-0.112c0.191,0,0.372,0.054,0.544,0.162
			c0.17,0.108,0.369,0.226,0.594,0.351s0.489,0.241,0.793,0.35c0.305,0.108,0.689,0.162,1.156,0.162
			c0.367,0,0.682-0.043,0.944-0.131s0.479-0.202,0.649-0.344c0.172-0.142,0.297-0.307,0.375-0.494
			c0.08-0.188,0.119-0.381,0.119-0.581c0-0.3-0.09-0.546-0.269-0.737s-0.417-0.358-0.712-0.5c-0.297-0.142-0.635-0.269-1.014-0.381
			c-0.379-0.113-0.766-0.235-1.162-0.369c-0.396-0.133-0.783-0.289-1.162-0.469c-0.379-0.179-0.717-0.406-1.013-0.682
			c-0.296-0.274-0.534-0.612-0.712-1.012c-0.18-0.4-0.27-0.884-0.27-1.45c0-0.525,0.104-1.025,0.312-1.5
			c0.209-0.476,0.515-0.89,0.919-1.244c0.403-0.354,0.908-0.638,1.513-0.85c0.604-0.213,1.302-0.319,2.094-0.319
			c0.883,0,1.688,0.146,2.412,0.438c0.725,0.292,1.329,0.676,1.812,1.15L654.082,195.247z"/>
	</g>
	<g>
		<rect x="983.594" y="156.998" fill="none" width="93.085" height="61"/>
	</g>
	<g enable-background="new    ">
		<path fill="#5C5D60" d="M1008.981,160.785c-0.092,0.183-0.198,0.312-0.318,0.387c-0.121,0.075-0.266,0.113-0.432,0.113
			c-0.167,0-0.354-0.064-0.562-0.194c-0.209-0.129-0.455-0.272-0.738-0.431s-0.614-0.303-0.993-0.432
			c-0.38-0.129-0.827-0.193-1.344-0.193c-0.467,0-0.873,0.056-1.219,0.168c-0.346,0.113-0.638,0.27-0.875,0.469
			c-0.237,0.2-0.415,0.44-0.531,0.719c-0.116,0.279-0.175,0.586-0.175,0.919c0,0.425,0.119,0.779,0.355,1.062
			c0.238,0.283,0.553,0.525,0.944,0.726c0.392,0.199,0.837,0.379,1.337,0.537s1.011,0.327,1.531,0.506
			c0.521,0.18,1.031,0.388,1.531,0.625c0.5,0.238,0.946,0.538,1.338,0.9s0.707,0.807,0.943,1.331
			c0.238,0.525,0.357,1.163,0.357,1.913c0,0.816-0.141,1.581-0.42,2.293c-0.279,0.713-0.688,1.334-1.225,1.863
			s-1.193,0.945-1.969,1.25c-0.775,0.304-1.662,0.456-2.662,0.456c-0.575,0-1.143-0.057-1.7-0.169
			c-0.559-0.112-1.094-0.272-1.606-0.481c-0.512-0.208-0.992-0.458-1.438-0.75c-0.445-0.291-0.844-0.616-1.193-0.975l0.975-1.612
			c0.092-0.117,0.202-0.215,0.332-0.294c0.129-0.079,0.272-0.119,0.431-0.119c0.208,0,0.433,0.086,0.675,0.257
			s0.527,0.36,0.856,0.568s0.717,0.398,1.163,0.568c0.445,0.171,0.98,0.257,1.605,0.257c0.959,0,1.7-0.228,2.225-0.682
			c0.525-0.454,0.788-1.106,0.788-1.956c0-0.475-0.118-0.862-0.356-1.162c-0.237-0.301-0.552-0.553-0.943-0.757
			c-0.393-0.204-0.838-0.377-1.338-0.519s-1.008-0.296-1.525-0.463c-0.516-0.166-1.024-0.366-1.524-0.6s-0.946-0.537-1.337-0.912
			c-0.393-0.375-0.707-0.844-0.944-1.406s-0.356-1.257-0.356-2.082c0-0.658,0.131-1.3,0.395-1.925
			c0.262-0.625,0.645-1.179,1.149-1.662c0.504-0.483,1.123-0.871,1.856-1.163c0.732-0.291,1.57-0.438,2.512-0.438
			c1.067,0,2.051,0.167,2.951,0.5c0.899,0.334,1.666,0.801,2.299,1.4L1008.981,160.785z"/>
		<path fill="#5C5D60" d="M1022.58,175.572h-1.387c-0.293,0-0.521-0.044-0.688-0.131c-0.168-0.088-0.293-0.265-0.375-0.531
			l-0.275-0.913c-0.325,0.292-0.645,0.548-0.957,0.769c-0.312,0.222-0.635,0.406-0.969,0.557c-0.332,0.15-0.688,0.263-1.062,0.338
			c-0.375,0.074-0.791,0.112-1.25,0.112c-0.541,0-1.041-0.073-1.5-0.22c-0.457-0.146-0.852-0.365-1.181-0.658
			s-0.585-0.656-0.769-1.091c-0.184-0.436-0.275-0.941-0.275-1.518c0-0.485,0.127-0.964,0.381-1.437
			c0.255-0.473,0.678-0.898,1.27-1.279c0.592-0.38,1.379-0.696,2.362-0.946c0.983-0.251,2.204-0.377,3.663-0.377v-0.756
			c0-0.864-0.182-1.505-0.545-1.921c-0.361-0.415-0.889-0.623-1.58-0.623c-0.5,0-0.918,0.059-1.25,0.175
			c-0.334,0.117-0.623,0.248-0.869,0.394c-0.246,0.146-0.473,0.277-0.682,0.395c-0.208,0.116-0.438,0.175-0.688,0.175
			c-0.208,0-0.387-0.055-0.537-0.163c-0.15-0.107-0.271-0.241-0.363-0.399l-0.562-0.987c1.476-1.351,3.255-2.025,5.338-2.025
			c0.75,0,1.419,0.123,2.006,0.369c0.588,0.245,1.086,0.587,1.494,1.024s0.719,0.961,0.932,1.569s0.318,1.274,0.318,2V175.572z
			 M1016.58,173.647c0.316,0,0.608-0.029,0.875-0.086c0.268-0.058,0.52-0.144,0.756-0.259c0.238-0.115,0.467-0.256,0.688-0.425
			c0.221-0.168,0.444-0.367,0.67-0.597v-2.146c-0.9,0-1.652,0.057-2.257,0.17s-1.089,0.258-1.456,0.435
			c-0.367,0.176-0.627,0.382-0.781,0.617c-0.154,0.234-0.231,0.49-0.231,0.768c0,0.546,0.161,0.936,0.481,1.171
			S1016.064,173.647,1016.58,173.647z"/>
		<path fill="#5C5D60" d="M1026.168,175.572v-10.5l-1.113-0.175c-0.241-0.042-0.436-0.125-0.58-0.25
			c-0.146-0.125-0.219-0.3-0.219-0.525v-1.263h1.912v-0.949c0-0.733,0.11-1.392,0.331-1.976c0.221-0.583,0.538-1.079,0.95-1.487
			s0.914-0.721,1.506-0.938s1.258-0.325,2-0.325c0.592,0,1.142,0.079,1.65,0.237l-0.062,1.551c-0.018,0.241-0.129,0.392-0.338,0.449
			c-0.208,0.059-0.449,0.088-0.725,0.088c-0.367,0-0.693,0.04-0.981,0.119s-0.531,0.217-0.731,0.412
			c-0.199,0.196-0.352,0.454-0.456,0.775c-0.104,0.32-0.156,0.719-0.156,1.193v0.85h3.337v2.2h-3.236v10.513H1026.168z"/>
		<path fill="#5C5D60" d="M1044.43,175.572h-1.387c-0.293,0-0.521-0.044-0.688-0.131c-0.168-0.088-0.293-0.265-0.375-0.531
			l-0.275-0.913c-0.325,0.292-0.645,0.548-0.957,0.769c-0.312,0.222-0.635,0.406-0.969,0.557c-0.332,0.15-0.688,0.263-1.062,0.338
			c-0.375,0.074-0.791,0.112-1.25,0.112c-0.541,0-1.041-0.073-1.5-0.22c-0.457-0.146-0.852-0.365-1.181-0.658
			s-0.585-0.656-0.769-1.091c-0.184-0.436-0.275-0.941-0.275-1.518c0-0.485,0.127-0.964,0.381-1.437
			c0.255-0.473,0.678-0.898,1.27-1.279c0.592-0.38,1.379-0.696,2.362-0.946c0.983-0.251,2.204-0.377,3.663-0.377v-0.756
			c0-0.864-0.182-1.505-0.545-1.921c-0.361-0.415-0.889-0.623-1.58-0.623c-0.5,0-0.918,0.059-1.25,0.175
			c-0.334,0.117-0.623,0.248-0.869,0.394c-0.246,0.146-0.473,0.277-0.682,0.395c-0.208,0.116-0.438,0.175-0.688,0.175
			c-0.208,0-0.387-0.055-0.537-0.163c-0.15-0.107-0.271-0.241-0.363-0.399l-0.562-0.987c1.476-1.351,3.255-2.025,5.338-2.025
			c0.75,0,1.419,0.123,2.006,0.369c0.588,0.245,1.086,0.587,1.494,1.024s0.719,0.961,0.932,1.569s0.318,1.274,0.318,2V175.572z
			 M1038.43,173.647c0.316,0,0.608-0.029,0.875-0.086c0.268-0.058,0.52-0.144,0.756-0.259c0.238-0.115,0.467-0.256,0.688-0.425
			c0.221-0.168,0.444-0.367,0.67-0.597v-2.146c-0.9,0-1.652,0.057-2.257,0.17s-1.089,0.258-1.456,0.435
			c-0.367,0.176-0.627,0.382-0.781,0.617c-0.154,0.234-0.231,0.49-0.231,0.768c0,0.546,0.161,0.936,0.481,1.171
			S1037.913,173.647,1038.43,173.647z"/>
		<path fill="#5C5D60" d="M1047.467,175.572v-12.825h1.812c0.317,0,0.538,0.059,0.663,0.175c0.125,0.117,0.208,0.317,0.25,0.601
			l0.188,1.55c0.458-0.792,0.995-1.417,1.612-1.875s1.309-0.688,2.075-0.688c0.634,0,1.158,0.146,1.575,0.438l-0.4,2.312
			c-0.025,0.15-0.079,0.256-0.162,0.318c-0.084,0.062-0.196,0.094-0.338,0.094c-0.125,0-0.296-0.028-0.512-0.087
			c-0.217-0.059-0.505-0.088-0.863-0.088c-0.642,0-1.191,0.178-1.65,0.531c-0.458,0.354-0.846,0.873-1.162,1.557v7.987H1047.467z"/>
		<path fill="#5C5D60" d="M1061.43,159.01c0,0.267-0.055,0.517-0.162,0.75c-0.109,0.233-0.252,0.438-0.432,0.612
			s-0.39,0.314-0.631,0.419c-0.242,0.104-0.5,0.156-0.775,0.156c-0.267,0-0.519-0.052-0.756-0.156
			c-0.238-0.104-0.443-0.244-0.619-0.419c-0.175-0.175-0.314-0.379-0.418-0.612c-0.105-0.233-0.156-0.483-0.156-0.75
			c0-0.275,0.051-0.533,0.156-0.775c0.104-0.241,0.243-0.449,0.418-0.625c0.176-0.175,0.381-0.314,0.619-0.418
			c0.237-0.104,0.489-0.156,0.756-0.156c0.275,0,0.533,0.052,0.775,0.156c0.241,0.104,0.451,0.243,0.631,0.418
			c0.18,0.176,0.322,0.384,0.432,0.625C1061.375,158.477,1061.43,158.734,1061.43,159.01z M1060.967,162.747v12.825h-3.087v-12.825
			H1060.967z"/>
	</g>
	<g>
		<rect x="304.207" y="23.679" fill="none" width="477" height="30.5"/>
	</g>
	<g enable-background="new    ">
		<path fill="#5C5D60" d="M472.157,24.198c0.1,0.013,0.189,0.038,0.269,0.075c0.079,0.038,0.156,0.092,0.231,0.163
			c0.075,0.07,0.158,0.164,0.25,0.281l9.488,12.087c-0.034-0.291-0.057-0.577-0.069-0.856c-0.013-0.278-0.019-0.539-0.019-0.781
			V24.18h2.963v18.075h-1.738c-0.267,0-0.487-0.042-0.663-0.125c-0.175-0.083-0.346-0.233-0.512-0.45l-9.45-12.037
			c0.025,0.267,0.044,0.531,0.056,0.794c0.013,0.262,0.019,0.502,0.019,0.719v11.1h-2.962V24.18h1.762
			C471.932,24.18,472.057,24.187,472.157,24.198z"/>
		<path fill="#5C5D60" d="M506.257,33.218c0,1.324-0.221,2.552-0.663,3.681c-0.442,1.13-1.062,2.106-1.862,2.932
			c-0.8,0.825-1.763,1.469-2.888,1.931c-1.125,0.463-2.371,0.694-3.737,0.694c-1.367,0-2.615-0.231-3.744-0.694
			c-1.129-0.462-2.096-1.105-2.9-1.931s-1.427-1.802-1.869-2.932c-0.442-1.129-0.663-2.356-0.663-3.681
			c0-1.325,0.221-2.553,0.663-3.682c0.441-1.129,1.064-2.106,1.869-2.932c0.804-0.824,1.771-1.469,2.9-1.931
			c1.129-0.463,2.377-0.694,3.744-0.694c1.366,0,2.612,0.233,3.737,0.7s2.087,1.11,2.888,1.932c0.8,0.82,1.42,1.796,1.862,2.925
			C506.036,30.665,506.257,31.893,506.257,33.218z M502.807,33.218c0-0.992-0.131-1.882-0.394-2.669
			c-0.263-0.788-0.64-1.456-1.131-2.007c-0.492-0.55-1.09-0.971-1.794-1.262c-0.704-0.292-1.498-0.438-2.381-0.438
			c-0.884,0-1.68,0.146-2.388,0.438c-0.708,0.291-1.311,0.712-1.806,1.262c-0.496,0.551-0.877,1.219-1.144,2.007
			c-0.267,0.787-0.4,1.677-0.4,2.669c0,0.991,0.133,1.881,0.4,2.668c0.267,0.788,0.648,1.455,1.144,2
			c0.496,0.546,1.098,0.965,1.806,1.257c0.708,0.292,1.504,0.438,2.388,0.438c0.883,0,1.677-0.146,2.381-0.438
			s1.302-0.711,1.794-1.257c0.492-0.545,0.869-1.212,1.131-2C502.676,35.099,502.807,34.209,502.807,33.218z"/>
		<path fill="#5C5D60" d="M506.432,24.18h2.713c0.292,0,0.529,0.071,0.712,0.213c0.183,0.142,0.321,0.325,0.413,0.55l4.25,11.025
			c0.142,0.358,0.277,0.752,0.406,1.181c0.129,0.43,0.252,0.882,0.369,1.356c0.191-0.958,0.429-1.804,0.712-2.537l4.237-11.025
			c0.075-0.191,0.208-0.366,0.4-0.525c0.191-0.158,0.429-0.237,0.712-0.237h2.712l-7.3,18.075h-3.038L506.432,24.18z"/>
		<path fill="#5C5D60" d="M529.744,42.255h-3.375V24.18h3.375V42.255z"/>
		<path fill="#5C5D60" d="M545.207,24.18v2.675h-8.013v5.013h6.312v2.588h-6.312v5.112h8.013v2.688h-11.4V24.18H545.207z"/>
		<path fill="#5C5D60" d="M557.588,35.586c0.121,0.288,0.239,0.577,0.355,0.869c0.117-0.3,0.238-0.596,0.363-0.888
			s0.258-0.57,0.4-0.838l5.35-10.012c0.066-0.125,0.135-0.226,0.206-0.301c0.071-0.074,0.149-0.129,0.237-0.162
			s0.186-0.054,0.294-0.062c0.108-0.008,0.237-0.013,0.388-0.013h2.537v18.075h-2.963V30.58c0-0.217,0.007-0.454,0.02-0.713
			c0.012-0.258,0.031-0.521,0.057-0.787l-5.463,10.25c-0.125,0.233-0.287,0.414-0.488,0.544c-0.199,0.129-0.433,0.193-0.699,0.193
			h-0.463c-0.267,0-0.5-0.064-0.699-0.193c-0.201-0.13-0.363-0.311-0.488-0.544l-5.537-10.288c0.033,0.275,0.057,0.544,0.068,0.807
			c0.013,0.263,0.02,0.506,0.02,0.731v11.675h-2.963V24.18h2.537c0.15,0,0.279,0.005,0.388,0.013
			c0.108,0.009,0.206,0.029,0.294,0.062s0.168,0.088,0.244,0.162c0.074,0.075,0.145,0.176,0.212,0.301l5.399,10.037
			C557.336,35.021,557.467,35.299,557.588,35.586z"/>
		<path fill="#5C5D60" d="M571.369,42.255V24.18h6.236c1.184,0,2.194,0.112,3.031,0.338c0.838,0.225,1.525,0.546,2.062,0.962
			c0.538,0.417,0.932,0.921,1.182,1.513s0.375,1.259,0.375,2c0,0.425-0.062,0.831-0.188,1.219s-0.318,0.75-0.581,1.088
			c-0.263,0.337-0.597,0.644-1,0.919c-0.404,0.274-0.886,0.508-1.444,0.699c2.484,0.559,3.726,1.9,3.726,4.025
			c0,0.767-0.146,1.475-0.438,2.125s-0.717,1.211-1.274,1.682c-0.559,0.471-1.246,0.839-2.062,1.105
			c-0.817,0.268-1.75,0.4-2.801,0.4H571.369z M574.731,32.005h2.688c1.143,0,2.009-0.208,2.601-0.625
			c0.591-0.417,0.888-1.079,0.888-1.987c0-0.941-0.268-1.612-0.801-2.013s-1.366-0.6-2.5-0.6h-2.875V32.005z M574.731,34.33v5.3
			h3.413c0.625,0,1.147-0.075,1.569-0.225c0.42-0.15,0.758-0.351,1.012-0.601s0.438-0.541,0.551-0.875
			c0.111-0.333,0.168-0.688,0.168-1.062c0-0.392-0.062-0.743-0.188-1.056s-0.32-0.579-0.588-0.801
			c-0.266-0.221-0.607-0.389-1.024-0.506c-0.417-0.116-0.921-0.175-1.513-0.175H574.731z"/>
		<path fill="#5C5D60" d="M591.131,35.192v7.062h-3.362V24.18h5.513c1.232,0,2.289,0.127,3.168,0.382
			c0.88,0.254,1.601,0.61,2.163,1.068s0.976,1.006,1.237,1.644c0.263,0.638,0.395,1.34,0.395,2.106c0,0.608-0.09,1.184-0.27,1.725
			c-0.18,0.542-0.438,1.034-0.775,1.476c-0.337,0.441-0.754,0.829-1.25,1.162c-0.495,0.334-1.061,0.601-1.693,0.8
			c0.426,0.242,0.792,0.588,1.1,1.038l4.525,6.675h-3.025c-0.291,0-0.539-0.059-0.743-0.175c-0.204-0.117-0.377-0.283-0.519-0.5
			l-3.801-5.788c-0.141-0.216-0.297-0.37-0.469-0.462c-0.17-0.092-0.422-0.138-0.756-0.138H591.131z M591.131,32.78h2.1
			c0.634,0,1.186-0.079,1.656-0.238c0.471-0.158,0.859-0.377,1.163-0.656c0.304-0.278,0.531-0.61,0.681-0.993
			c0.15-0.384,0.226-0.805,0.226-1.263c0-0.917-0.302-1.621-0.906-2.112c-0.604-0.492-1.527-0.737-2.769-0.737h-2.15V32.78z"/>
		<path fill="#5C5D60" d="M615.431,24.18v2.675h-8.013v5.013h6.312v2.588h-6.312v5.112h8.013v2.688h-11.399V24.18H615.431z"/>
	</g>
</g>
</svg>
