<?xml version="1.0" encoding="utf-8"?>
<!-- Generator: Adobe Illustrator 16.0.0, SVG Export Plug-In . SVG Version: 6.00 Build 0)  -->
<!DOCTYPE svg PUBLIC "-//W3C//DTD SVG 1.1//EN" "http://www.w3.org/Graphics/SVG/1.1/DTD/svg11.dtd">
<svg version="1.1" id="Layer_1" xmlns="http://www.w3.org/2000/svg" xmlns:xlink="http://www.w3.org/1999/xlink" x="0px" y="0px"
	 width="517.564px" height="548.893px" viewBox="0 0 517.564 548.893" enable-background="new 0 0 517.564 548.893"
	 xml:space="preserve">
<path d="M347.24,250.775c13.893,60.286-78.523,121.426-106.569,83.688c-14.416-25.392,20.874-41.017,19.099-72.078
	c-1.139-19.959,12.579-37.646,30.846-43.085C317.691,211.243,340.968,223.552,347.24,250.775z M259.917,321.435
	c12.307,19.448,78.311-26.636,69.445-66.092c-3.433-15.277-16.003-23.749-33.845-18.438c-10.512,3.129-16.563,14.715-15.866,28.552
	C281.317,298.576,253.755,311.7,259.917,321.435z"/>
<path d="M145.45,202.835l13.758,12.863c-24.307,32.999-49.989,18.668-58.399,18.668c-6.177,0-9.669,4.028-9.669,10.072
	c0,7.118,5.774,9.4,17.189,13.966c15.041,5.909,23.503,12.625,23.503,28.876c0,19.339-12.892,31.827-33.171,31.827
	c-17.324,0-28.07-7.787-34.113-23.771l18.938-8.192c2.954,8.326,8.191,13.161,15.442,13.161c6.313,0,11.282-3.894,11.282-11.548
	c0-6.446-3.625-9.4-14.637-13.699c-16.521-6.312-26.057-13.968-26.057-29.411c0-17.592,10.343-30.083,31.426-30.083
	C116.253,215.564,128.48,226.683,145.45,202.835z"/>
<path d="M243.011,269.111c0,29.661-21.63,49.87-50.385,49.87c-28.886,0-50.389-20.209-50.389-49.87
	c0-29.532,21.503-49.74,50.389-49.74C221.51,219.371,243.011,239.579,243.011,269.111z M162.962,269.111
	c0,18.651,12.177,31.735,29.533,31.735c17.357,0,29.533-13.084,29.533-31.735c0-18.523-12.044-31.605-29.533-31.605
	C175.139,237.505,162.962,250.587,162.962,269.111z"/>
<rect x="359.57" y="220.796" width="20.337" height="96.89"/>
<rect x="453.335" y="220.796" width="20.336" height="96.89"/>
<path d="M379.906,220.796c61.695,0,25.644,99.481,76.511,81.713l17.253,15.176c-95.326,33.925-51.967-75.114-93.765-75.114
	l-10.168-7.52L379.906,220.796z"/>
<g>
	<g>
		<path fill="#F7941E" d="M436.969,404.618c31.525,0,58.62-24.197,58.62-61.516c0-34.765-16.702-55.552-51.291-55.552
			c-30.332,0-59.301,23.517-59.301,61.175C384.997,383.318,402.549,404.618,436.969,404.618"/>
		<path fill="#F7941E" d="M436.969,404.618c31.525,0,58.62-24.197,58.62-61.516c0-34.765-16.702-55.552-51.291-55.552
			c-30.332,0-59.301,23.517-59.301,61.175C384.997,383.318,402.549,404.618,436.969,404.618"/>
		<path fill="#FFFFFF" d="M464.405,346.342c0,28.795-9.202,39.363-23.685,39.363c-13.635,0-24.709-16.87-24.709-39.706
			c0-29.479,10.053-39.365,24.709-39.365C453.669,306.634,464.405,320.949,464.405,346.342"/>
	</g>
	<path fill="#F7941E" d="M133.428,202.923c0-18.09-11.48-60.181-45.919-60.181c-31.655,0-80.357,17.392-80.357,63.136
		c0,18.088,10.608,54.789,49.225,54.789C100.552,260.668,133.428,233.708,133.428,202.923"/>
	<g>
		<path fill="#F7941E" d="M175.109,386.116l-4.653,1.553c-16.389,5.465-22.389,6.562-26.761,6.562
			c-7.335,0-15.163-1.791-15.163-23.206c0-17.641,6.683-42.7,18.816-70.56l1.968-4.514l-25.816-11.295l-1.973,4.527
			c-14.076,32.311-21.214,59.848-21.214,81.841c0,13.959,3.409,26.096,9.861,35.097c7.652,10.681,19.244,16.326,33.522,16.326
			c8.488,0,17.851-1.358,35.95-7.989l4.52-1.655L175.109,386.116z"/>
		<path fill="#F7941E" d="M175.109,386.116l-4.653,1.553c-16.389,5.465-22.389,6.562-26.761,6.562
			c-7.335,0-15.163-1.791-15.163-23.206c0-17.641,6.683-42.7,18.816-70.56l1.968-4.514l-25.816-11.295l-1.973,4.527
			c-14.076,32.311-21.214,59.848-21.214,81.841c0,13.959,3.409,26.096,9.861,35.097c7.652,10.681,19.244,16.326,33.522,16.326
			c8.488,0,17.851-1.358,35.95-7.989l4.52-1.655L175.109,386.116z"/>
	</g>
	<path fill="#F7941E" d="M255.204,342.247v0.301c6.29,0.897,12.726,3.293,16.773,6.591c-2.243,6.888-3.598,12.276-4.938,20.511
		c-4.804,1.945-8.094,2.098-12.581,2.098c-14.677,0-26.647-9.735-26.647-26.656c0-15.118,11.372-30.989,38.325-30.989
		c17.81,0,34.132,7.035,51.345,7.035c7.643,0,15.579-1.348,23.661-5.389c2.55,5.693,3.742,11.531,3.742,16.919
		c0,17.818-13.029,31.29-35.631,31.29c-8.24,0-19.016-3.889-23.952-10.324l-0.146,0.442c4.485,6.89,15.407,12.131,25.6,13.181
		c-2.854,9.131-3,18.566-3,27.544c0,20.512-0.902,37.43-34.133,37.43c-20.356,0-29.499-11.975-29.499-23.806
		c0-10.776,7.337-21.706,21.566-23.35c0.302,9.426,2.24,23.05,6.435,31.438h0.305c-3.305-7.935-4.646-20.812-4.646-28.6
		c0-13.922,2.55-28.745,6.743-40.272C269.282,345.09,261.639,342.396,255.204,342.247z"/>
	<path fill="#F7941E" d="M260.368,269.176c-34.052,0-67.744-10.55-67.744-42.564c0-33.812,40.287-42.564,67.744-42.564
		c21.462,0,37.769,2.277,55.272,10.071l-7.074,23.98c-12.47-5.036-28.056-8.273-44.723-8.273c-24.339,0-31.894,7.674-31.894,16.666
		c0,8.873,8.873,16.906,31.894,16.906c19.664,0,32.014-3.716,44.723-8.273l7.194,24.101
		C297.178,266.058,281.711,269.176,260.368,269.176z"/>
	<path fill="#FFFFFF" d="M64.549,160.83c0,0,22.96,16.697,22.96,49.745c0,21.047-9.564,29.222-9.564,29.222l-1.567,0.521
		c0,0-23.829-13.044-23.829-40.528c0-26.089,10.437-38.961,10.437-38.961L64.549,160.83L64.549,160.83z"/>
	<g>
		<path fill="#F7941E" d="M481.768,215.423c0,16.152-4.638,27.987-18.549,27.987c-13.274,0-20.472-7.358-20.472-28.626v-22.068
			c0-23.028,0.162-28.626,4.479-37.421c-3.678-1.119-10.554-2.237-18.55-2.237c-7.998,0-15.031,1.118-18.391,2.237
			c4.158,8.795,4.318,14.393,4.318,37.421v26.386c0,26.706,11.194,42.697,45.417,42.697c29.424,0,45.095-17.59,45.095-48.454
			v-20.629c0-23.028,0.158-28.626,3.839-37.421c-3.038-1.119-8.795-2.237-15.512-2.237c-6.558,0-12.475,1.118-15.189,2.237
			c3.516,8.795,3.516,14.393,3.516,37.421L481.768,215.423L481.768,215.423z"/>
	</g>
</g>
</svg>
