<?xml version="1.0" encoding="utf-8"?>
<!-- Generator: Adobe Illustrator 16.0.0, SVG Export Plug-In . SVG Version: 6.00 Build 0)  -->
<!DOCTYPE svg PUBLIC "-//W3C//DTD SVG 1.1//EN" "http://www.w3.org/Graphics/SVG/1.1/DTD/svg11.dtd">
<svg version="1.1" id="Layer_1" xmlns="http://www.w3.org/2000/svg" xmlns:xlink="http://www.w3.org/1999/xlink" x="0px" y="0px"
	 width="150px" height="150px" viewBox="-27.511 -25.085 150 150" enable-background="new -27.511 -25.085 150 150"
	 xml:space="preserve">
<g id="Layer_1_1_">
	<g>
		<path fill="#F7941E" d="M45.071,118.762c-39.33,0-63.082-26.721-63.082-63.097c0-41.188,25.974-74.596,64.562-74.596
			c29.327,0,46.959,18.372,46.959,41.754c0,24.312-19.31,40.08-38.604,40.08c-15.577,0-20.412-10.207-20.412-23.007
			c0-16.331,7.055-35.816,14.656-50.101h-0.365c-9.093,14.098-17.451,35.07-17.451,52.325c0,14.106,5.939,24.683,24.87,24.683
			c18.751,0,41.009-10.388,52.146-21.522c3.157,0.558,4.639,3.338,4.639,7.236C112.989,75.337,91.472,118.762,45.071,118.762z"/>
	</g>
</g>
<g id="Layer_2" display="none">
</g>
<g id="Layer_3" display="none">
</g>
<g id="Layer_4">
</g>
</svg>
