<?xml version="1.0" encoding="utf-8"?>
<!-- Generator: Adobe Illustrator 16.0.0, SVG Export Plug-In . SVG Version: 6.00 Build 0)  -->
<!DOCTYPE svg PUBLIC "-//W3C//DTD SVG 1.1//EN" "http://www.w3.org/Graphics/SVG/1.1/DTD/svg11.dtd">
<svg version="1.1" id="Layer_1" xmlns="http://www.w3.org/2000/svg" xmlns:xlink="http://www.w3.org/1999/xlink" x="0px" y="0px"
	 width="150px" height="172.5px" viewBox="-23.436 -43.301 150 172.5" enable-background="new -23.436 -43.301 150 172.5"
	 xml:space="preserve">
<path fill="#F7941E" d="M85.865,82.901l-5.363,1.788c-18.88,6.297-25.793,7.558-30.829,7.558c-8.448,0-17.465-2.062-17.465-26.734
	c0-20.319,7.697-49.187,21.677-81.281l2.264-5.201L26.411-33.978l-2.275,5.216C7.92,8.461-0.303,40.178-0.303,65.514
	c0,16.082,3.927,30.062,11.36,40.431c8.816,12.308,22.167,18.809,38.615,18.809c9.779,0,20.565-1.566,41.417-9.203l5.204-1.909
	L85.865,82.901z"/>
</svg>
