<?xml version="1.0" encoding="utf-8"?>
<!-- Generator: Adobe Illustrator 16.0.0, SVG Export Plug-In . SVG Version: 6.00 Build 0)  -->
<!DOCTYPE svg PUBLIC "-//W3C//DTD SVG 1.1//EN" "http://www.w3.org/Graphics/SVG/1.1/DTD/svg11.dtd">
<svg version="1.1" id="Layer_1" xmlns="http://www.w3.org/2000/svg" xmlns:xlink="http://www.w3.org/1999/xlink" x="0px" y="0px"
	 width="150px" height="150px" viewBox="-23.436 -20.801 150 150" enable-background="new -23.436 -20.801 150 150"
	 xml:space="preserve">
<path fill="#F7941E" d="M16.73,20.456v0.334c6.969,0.992,14.103,3.647,18.589,7.303c-2.487,7.635-3.987,13.607-5.472,22.734
	c-5.324,2.154-8.969,2.323-13.942,2.323c-16.268,0-29.536-10.791-29.536-29.544c0-16.755,12.605-34.348,42.477-34.348
	c19.741,0,37.832,7.8,56.909,7.8c8.473,0,17.27-1.494,26.228-5.973c2.822,6.309,4.146,12.781,4.146,18.754
	c0,19.747-14.443,34.679-39.491,34.679c-9.137,0-21.079-4.309-26.55-11.443l-0.164,0.491c4.973,7.635,17.08,13.443,28.373,14.606
	c-3.162,10.122-3.32,20.581-3.32,30.531c0,22.735-1.005,41.488-37.835,41.488c-22.56,0-32.693-13.275-32.693-26.385
	c0-11.946,8.132-24.06,23.901-25.883c0.336,10.449,2.486,25.55,7.133,34.848h0.336c-3.662-8.796-5.147-23.069-5.147-31.702
	c0-15.424,2.823-31.858,7.472-44.634C32.332,23.607,23.86,20.621,16.73,20.456z"/>
</svg>
