<?xml version="1.0" encoding="utf-8"?>
<!-- Generator: Adobe Illustrator 16.0.0, SVG Export Plug-In . SVG Version: 6.00 Build 0)  -->
<!DOCTYPE svg PUBLIC "-//W3C//DTD SVG 1.1//EN" "http://www.w3.org/Graphics/SVG/1.1/DTD/svg11.dtd">
<svg version="1.1" id="Layer_1" xmlns="http://www.w3.org/2000/svg" xmlns:xlink="http://www.w3.org/1999/xlink" x="0px" y="0px"
	 width="103.128px" height="108.398px" viewBox="0 0 103.128 108.398" enable-background="new 0 0 103.128 108.398"
	 xml:space="preserve">
<g>
	<path fill="#F7941E" d="M70.888,59.94c0,14.091-4.048,24.416-16.184,24.416c-11.581,0-17.857-6.418-17.857-24.974V40.131
		c0-20.088,0.141-24.973,3.906-32.645c-3.209-0.976-9.208-1.95-16.183-1.95c-6.978,0-13.113,0.975-16.044,1.95
		c3.627,7.672,3.768,12.557,3.768,32.645v23.019c0,23.298,9.765,37.249,39.619,37.249c25.671,0,39.34-15.347,39.34-42.269V40.131
		c0-20.088,0.141-24.973,3.35-32.645c-2.65-0.976-7.673-1.95-13.533-1.95c-5.719,0-10.881,0.975-13.25,1.95
		c3.068,7.672,3.068,12.557,3.068,32.645V59.94z"/>
</g>
</svg>
