<?xml version="1.0" encoding="utf-8"?>
<!-- Generator: Adobe Illustrator 16.0.0, SVG Export Plug-In . SVG Version: 6.00 Build 0)  -->
<!DOCTYPE svg PUBLIC "-//W3C//DTD SVG 1.1//EN" "http://www.w3.org/Graphics/SVG/1.1/DTD/svg11.dtd">
<svg version="1.1" id="Layer_1" xmlns="http://www.w3.org/2000/svg" xmlns:xlink="http://www.w3.org/1999/xlink" x="0px" y="0px"
	 width="103.128px" height="108.398px" viewBox="0 0 103.128 108.398" enable-background="new 0 0 103.128 108.398"
	 xml:space="preserve">
<path fill="#F7941E" d="M72.4,78.063l-3.456,1.153c-12.167,4.057-16.622,4.87-19.868,4.87c-5.444,0-11.255-1.329-11.255-17.229
	c0-13.095,4.96-31.698,13.969-52.381l1.459-3.351L34.085,2.741l-1.466,3.361C22.169,30.091,16.87,50.531,16.87,66.858
	c0,10.364,2.531,19.374,7.321,26.056c5.681,7.931,14.285,12.121,24.885,12.121c6.303,0,13.254-1.01,26.691-5.932l3.354-1.229
	L72.4,78.063z"/>
</svg>
