<?xml version="1.0" encoding="utf-8"?>
<!-- Generator: Adobe Illustrator 16.0.0, SVG Export Plug-In . SVG Version: 6.00 Build 0)  -->
<!DOCTYPE svg PUBLIC "-//W3C//DTD SVG 1.1//EN" "http://www.w3.org/Graphics/SVG/1.1/DTD/svg11.dtd">
<svg version="1.1" id="Layer_1" xmlns="http://www.w3.org/2000/svg" xmlns:xlink="http://www.w3.org/1999/xlink" x="0px" y="0px"
	 width="103.128px" height="108.398px" viewBox="0 0 103.128 108.398" enable-background="new 0 0 103.128 108.398"
	 xml:space="preserve">
<path fill="#F7941E" d="M26.307,27.964v0.241c5.036,0.717,10.19,2.636,13.432,5.277c-1.797,5.517-2.881,9.832-3.954,16.427
	c-3.847,1.557-6.481,1.679-10.074,1.679c-11.755,0-21.342-7.797-21.342-21.348c0-12.106,9.108-24.818,30.692-24.818
	c14.264,0,27.336,5.635,41.12,5.635c6.122,0,12.478-1.079,18.951-4.315c2.04,4.559,2.996,9.235,2.996,13.551
	c0,14.268-10.436,25.057-28.535,25.057c-6.601,0-15.23-3.113-19.184-8.268l-0.118,0.354c3.594,5.517,12.341,9.714,20.502,10.554
	c-2.285,7.313-2.4,14.871-2.4,22.061c0,16.427-0.725,29.977-27.338,29.977c-16.301,0-23.623-9.592-23.623-19.064
	c0-8.632,5.876-17.385,17.27-18.703c0.243,7.551,1.796,18.462,5.154,25.18h0.243c-2.646-6.355-3.719-16.669-3.719-22.906
	c0-11.146,2.04-23.02,5.399-32.251C37.58,30.24,31.459,28.083,26.307,27.964z"/>
</svg>
