<?xml version="1.0" encoding="utf-8"?>
<!-- Generator: Adobe Illustrator 16.0.0, SVG Export Plug-In . SVG Version: 6.00 Build 0)  -->
<!DOCTYPE svg PUBLIC "-//W3C//DTD SVG 1.1//EN" "http://www.w3.org/Graphics/SVG/1.1/DTD/svg11.dtd">
<svg version="1.1" id="Layer_1" xmlns="http://www.w3.org/2000/svg" xmlns:xlink="http://www.w3.org/1999/xlink" x="0px" y="0px"
	 width="150px" height="150px" viewBox="-23.436 -20.801 150 150" enable-background="new -23.436 -20.801 150 150"
	 xml:space="preserve">
<g>
	<path fill="#F7941E" d="M79.666,63.863c0,20.492-5.888,35.507-23.534,35.507c-16.842,0-25.969-9.333-25.969-36.318V35.056
		c0-29.212,0.205-36.315,5.68-47.472c-4.667-1.42-13.39-2.836-23.533-2.836c-10.147,0-19.069,1.417-23.332,2.836
		c5.274,11.156,5.479,18.26,5.479,47.472v33.475c0,33.88,14.2,54.168,57.615,54.168c37.33,0,57.208-22.318,57.208-61.468V35.056
		c0-29.212,0.205-36.315,4.871-47.472c-3.854-1.42-11.157-2.836-19.681-2.836c-8.315,0-15.822,1.417-19.268,2.836
		c4.463,11.156,4.463,18.26,4.463,47.472V63.863z"/>
</g>
</svg>
