<?xml version="1.0" encoding="utf-8"?>
<!-- Generator: Adobe Illustrator 16.0.0, SVG Export Plug-In . SVG Version: 6.00 Build 0)  -->
<!DOCTYPE svg PUBLIC "-//W3C//DTD SVG 1.1//EN" "http://www.w3.org/Graphics/SVG/1.1/DTD/svg11.dtd">
<svg version="1.1" xmlns="http://www.w3.org/2000/svg" xmlns:xlink="http://www.w3.org/1999/xlink" x="0px" y="0px"
	 width="517.565px" height="548.893px" viewBox="0 0 517.565 548.893" enable-background="new 0 0 517.565 548.893"
	 xml:space="preserve">
<g id="Layer_1">
	<path d="M460.655,136.237c0,69.93-123.661,104.305-141.872,54.376c-10.05-27.549,34.422-36.594,39.144-73.352
		c2.736-21.279,27.685-36.157,49.229-36.157C439.087,81.105,460.655,100.513,460.655,136.237z M343.833,182.706
		c7.061,25.039,95.981-1.576,95.981-47.287c0-22.447-11.982-33.663-33.025-33.663c-12.398,0-24.605,10.029-28.316,25.245
		C369.6,163.416,340.297,170.171,343.833,182.706z"/>
	<path d="M79.523,103.639v91.485H55.939v-91.485H18.984V82.757h97.644v20.882H79.523z"/>
	<path d="M293.905,82.757c22.83,0,38.003,12.018,38.003,35.454c0,23.434-15.174,35.452-38.003,35.452h-11.267v41.461h-23.586V82.757
		H293.905z M282.638,132.63h9.913c9.013,0,15.325-4.955,15.325-14.418c0-9.466-6.312-14.572-15.325-14.572h-9.913V132.63z"/>
	<path d="M149.818,342.94v-81.896c-26.769,15.615-22.54,63.111-10.501,95.074c5.519,14.659,0.325,24.575-7.157,28.221
		c-8.353,4.066-20.913-1.878-26.677-5.76c-10.639-7.154-25.13-24.253-33.67-51.333c-7.932-25.157-6.098-49.042-20.832-61.322v77.016
		H27.397V230.577h16.36c17.323,0,40.226,26.289,48.064,79.347c3.171,21.471,17.566,41.492,25.618,46.13
		c-24.546-50.114-7.724-122.985,42.698-125.477h13.417V342.94H149.818z"/>
	<path d="M282.596,342.936c0.957-14.692,0.02-30.006-4.637-39.759h-51.48c-0.976,10.409-5.125,30.413-8.984,39.763H190.83
		c9.136-27.893,14.763-64.436,9.316-90.352c-3.761-17.894-17.278-65.447,4.961-91.414c7.38-8.622,17.609-13.139,25.376-9.469
		c8.681,4.101,9.409,14.478,9.17,21.496c-0.157,4.535,0.58,14.186,1.674,18.864c5.33,22.801,15.495,32.521,29.556,49.054
		c17.456,20.525,40.989,59.777,37.419,101.82L282.596,342.936z M271.615,282.598c-2.439-10.247-14.917-24.336-28.354-41.478
		c-11.117-14.186-23.128-34.89-23.615-61.728c-9.517,15.731-2.109,48.656,3.659,70.267c2.507,9.39,5.195,20.322,5.072,32.938
		H271.615z"/>
	<path d="M366.276,230.577c32.299,0,57.835,19.377,57.835,56.331c0,36.804-25.536,56.033-57.835,56.033h-44.015V230.577H366.276z
		 M345.846,322.057h20.43c18.327,0,33.651-11.714,33.651-35.15c0-23.735-15.324-35.451-33.651-35.451h-20.43V322.057z"/>
	<path d="M92.293,402.96c0,26.439-21.482,43.867-39.359,58.135h39.959v20.884H21.537v-19.378
		c23.435-18.631,46.871-37.71,46.871-57.089c0-10.065-5.71-16.525-14.871-16.525c-8.113,0-14.722,4.507-18.929,10.972l-14.42-15.179
		c7.359-10.062,18.927-16.822,34.549-16.822C77.57,367.957,92.293,380.125,92.293,402.96z"/>
	<path d="M222.197,438.343c-16.163,34.23-43.397,46.265-69.534,46.265c-26.141,0-46.17-14.383-42.664-42.36
		c3.317-26.47,32.609-23.129,44.53-49.711c13.011-29.019,36.873-34.521,50.749-32.078C231.955,365.145,237.464,406,222.197,438.343z
		 M133.058,443.222c-2.491,13.991,7.285,19.379,19.604,19.379c12.167,0,33.012-5.323,45.459-25.888
		c16.032-26.484,14.429-51.74,5.206-54.652c-12.362-3.904-23.422,3.58-38.216,29.733
		C155.646,428.531,134.898,432.897,133.058,443.222z"/>
	<path d="M265.361,481.979v-85.781l-22.232,11.271v-23.137l26.89-14.723h18.928v112.37H265.361z"/>
	<path d="M378.185,426.955v10.857h16.976v21.03h-16.976v23.136h-23.734v-23.136h-45.218c0,0,0-10.006,0-13.345
		c0-16.264,0.723-38.412,16.788-60.184c24.722-33.512,67.842-36.823,75.145-20.168C409.299,383.689,378.185,383.036,378.185,426.955
		z M372.541,376.855c-32.858,11.388-40.991,38.063-40.991,60.957h23.877c0,0,0-9.514,0-16.387
		C355.427,405.857,362.779,386.29,372.541,376.855z"/>
	<path d="M111.363,246.682h-27.49c8.77-30.579,24.499-50.529,50.563-75.098c28.237-26.612,62.786-58.231,77.944-88.827h27.491
		c-13.045,32.223-59.733,75.876-87.543,102.815C131.511,205.743,118.994,217.729,111.363,246.682z"/>
	<polygon points="184.559,150.422 159.675,150.422 131.515,82.757 156.399,82.757 	"/>
	<g>
		<g>
			<path fill="#F7941E" d="M218.398,535.748c32.938,0,61.246-25.281,61.246-64.272c0-36.324-17.449-58.042-53.59-58.042
				c-31.691,0-61.959,24.571-61.959,63.917C164.096,513.493,182.435,535.748,218.398,535.748"/>
			<path fill="#F7941E" d="M218.398,535.748c32.938,0,61.246-25.281,61.246-64.272c0-36.324-17.449-58.042-53.59-58.042
				c-31.691,0-61.959,24.571-61.959,63.917C164.096,513.493,182.435,535.748,218.398,535.748"/>
			<path fill="#FFFFFF" d="M247.063,474.858c0,30.088-9.615,41.129-24.747,41.129c-14.245,0-25.817-17.627-25.817-41.485
				c0-30.801,10.505-41.13,25.817-41.13C235.846,433.372,247.063,448.329,247.063,474.858"/>
		</g>
		<path fill="#F7941E" d="M197.483,71.879C197.483,52.978,185.488,9,149.505,9c-33.074,0-83.959,18.172-83.959,65.967
			c0,18.898,11.084,57.244,51.432,57.244C163.133,132.212,197.483,104.044,197.483,71.879"/>
		<g>
			<path fill="#F7941E" d="M87.151,349.59l-4.863,1.624c-17.124,5.709-23.392,6.856-27.96,6.856
				c-7.664,0-15.842-1.872-15.842-24.247c0-18.432,6.982-44.614,19.659-73.722l2.055-4.715l-26.973-11.802l-2.062,4.731
				C16.458,282.074,9,310.844,9,333.823c0,14.585,3.562,27.265,10.303,36.67c7.995,11.161,20.106,17.058,35.024,17.058
				c8.869,0,18.652-1.42,37.562-8.347l4.722-1.731L87.151,349.59z"/>
			<path fill="#F7941E" d="M87.151,349.59l-4.863,1.624c-17.124,5.709-23.392,6.856-27.96,6.856
				c-7.664,0-15.842-1.872-15.842-24.247c0-18.432,6.982-44.614,19.659-73.722l2.055-4.715l-26.973-11.802l-2.062,4.731
				C16.458,282.074,9,310.844,9,333.823c0,14.585,3.562,27.265,10.303,36.67c7.995,11.161,20.106,17.058,35.024,17.058
				c8.869,0,18.652-1.42,37.562-8.347l4.722-1.731L87.151,349.59z"/>
		</g>
		<path fill="#F7941E" d="M402.338,328.885v0.347c7.248,1.032,14.665,3.793,19.329,7.593c-2.585,7.938-4.145,14.147-5.69,23.636
			c-5.535,2.241-9.327,2.417-14.497,2.417c-16.914,0-30.707-11.218-30.707-30.717c0-17.421,13.104-35.711,44.164-35.711
			c20.522,0,39.333,8.108,59.168,8.108c8.808,0,17.953-1.554,27.267-6.211c2.937,6.561,4.312,13.289,4.312,19.498
			c0,20.532-15.016,36.056-41.06,36.056c-9.496,0-21.914-4.48-27.603-11.897l-0.169,0.51c5.17,7.94,17.756,13.979,29.501,15.189
			c-3.289,10.522-3.457,21.395-3.457,31.742c0,23.636-1.04,43.132-39.334,43.132c-23.457,0-33.993-13.8-33.993-27.432
			c0-12.42,8.455-25.015,24.851-26.909c0.349,10.863,2.583,26.562,7.415,36.229h0.352c-3.808-9.144-5.353-23.984-5.353-32.957
			c0-16.042,2.937-33.125,7.769-46.41C418.562,332.16,409.753,329.056,402.338,328.885z"/>
		<path fill="#F7941E" d="M251.199,262.629c-35.578,0-70.78-11.023-70.78-44.472c0-35.328,42.093-44.472,70.78-44.472
			c22.424,0,39.462,2.379,57.751,10.522l-7.391,25.055c-13.029-5.262-29.314-8.644-46.728-8.644
			c-25.43,0-33.323,8.018-33.323,17.413c0,9.271,9.271,17.664,33.323,17.664c20.546,0,33.448-3.883,46.728-8.644l7.517,25.181
			C289.658,259.372,273.499,262.629,251.199,262.629z"/>
		<path fill="#FFFFFF" d="M125.516,27.899c0,0,23.989,17.446,23.989,51.975c0,21.99-9.993,30.531-9.993,30.531l-1.638,0.545
			c0,0-24.896-13.629-24.896-42.344c0-27.259,10.904-40.708,10.904-40.708H125.516z"/>
		<g>
			<path fill="#F7941E" d="M479.796,207.379c0,16.876-4.846,29.242-19.381,29.242c-13.87,0-21.388-7.688-21.388-29.909v-23.058
				c0-24.06,0.168-29.909,4.679-39.098c-3.843-1.169-11.027-2.337-19.382-2.337c-8.356,0-15.705,1.168-19.214,2.337
				c4.344,9.189,4.511,15.038,4.511,39.098v27.568c0,27.903,11.696,44.611,47.452,44.611c30.744,0,47.116-18.379,47.116-50.625
				v-21.554c0-24.06,0.167-29.909,4.012-39.098c-3.175-1.169-9.19-2.337-16.207-2.337c-6.852,0-13.034,1.168-15.871,2.337
				c3.674,9.189,3.674,15.038,3.674,39.098V207.379z"/>
		</g>
	</g>
</g>
<g id="Layer_2" display="none">
</g>
<g id="Layer_3" display="none">
</g>
<g id="Layer_4">
</g>
</svg>
