<?xml version="1.0" encoding="utf-8"?>
<!-- Generator: Adobe Illustrator 16.0.0, SVG Export Plug-In . SVG Version: 6.00 Build 0)  -->
<!DOCTYPE svg PUBLIC "-//W3C//DTD SVG 1.1//EN" "http://www.w3.org/Graphics/SVG/1.1/DTD/svg11.dtd">
<svg version="1.1" id="Layer_1" xmlns="http://www.w3.org/2000/svg" xmlns:xlink="http://www.w3.org/1999/xlink" x="0px" y="0px"
	 width="76.699px" height="47.646px" viewBox="0 0 76.699 47.646" enable-background="new 0 0 76.699 47.646" xml:space="preserve">
<g id="Layer_1_1_">
	<path fill="#FFFFFF" d="M20.183,11.897l0.278-1.388h8.333l-3.518,24.812c-0.973,6.944-6.851,11.574-14.213,11.574
		c-4.814,0-8.934-1.713-11.063-4.908l6.342-5.138c1.065,1.574,2.222,2.778,4.998,2.778c2.963,0,5-1.39,5.464-4.027l0.324-2.038
		c-0.927,0.925-2.27,1.573-5.048,1.573c-6.062,0-10.97-4.536-10.091-13.008C2.869,13.796,8.377,10,14.303,10
		C16.943,10,19.118,10.786,20.183,11.897z M10.6,23.009c-0.092,3.424,1.481,5.044,3.703,5.044c2.037,0,2.918-0.971,3.659-1.896
		l1.065-7.547c-0.788-0.926-1.946-1.526-3.519-1.526C12.821,17.083,10.694,19.166,10.6,23.009z"/>
	<path fill="#FFFFFF" d="M57.418,23.009c-0.461,7.359-6.342,12.127-13.193,12.127c-7.358,0-12.96-5.229-12.453-13.008
		C32.234,14.769,38.114,10,44.92,10C52.281,10,57.881,15.23,57.418,23.009z M40.336,23.009c-0.047,3.101,1.297,5.044,3.611,5.044
		c2.777,0,4.721-2.454,4.861-5.925c0.045-3.104-1.297-5.045-3.611-5.045C42.419,17.083,40.477,19.49,40.336,23.009z"/>
	<path fill="#FFFFFF" d="M71.091,30.647c-0.323,2.546-2.594,4.489-5.14,4.489c-3.008,0-5.092-2.406-4.676-5.416
		c0.371-2.546,2.594-4.537,5.092-4.537C69.423,25.183,71.553,27.637,71.091,30.647z M62.619,23.24L65.443,0h10.045l-3.797,23.24
		H62.619z"/>
</g>
<g id="Layer_2" display="none">
</g>
<g id="Layer_3" display="none">
</g>
<g id="Layer_4">
</g>
</svg>
