<?xml version="1.0" encoding="utf-8"?>
<!-- Generator: Adobe Illustrator 16.0.0, SVG Export Plug-In . SVG Version: 6.00 Build 0)  -->
<!DOCTYPE svg PUBLIC "-//W3C//DTD SVG 1.1//EN" "http://www.w3.org/Graphics/SVG/1.1/DTD/svg11.dtd">
<svg version="1.1" xmlns="http://www.w3.org/2000/svg" xmlns:xlink="http://www.w3.org/1999/xlink" x="0px" y="0px"
	 width="94.977px" height="99.83px" viewBox="0 0 94.977 99.83" enable-background="new 0 0 94.977 99.83" xml:space="preserve">
<g id="Layer_1">
	<g>
		<path fill="#F7941E" d="M45.736,99.83C17.221,99.83,0,80.457,0,54.084C0,24.222,18.831,0.001,46.809,0.001
			c21.263,0,34.046,13.32,34.046,30.272c0,17.626-14,29.058-27.989,29.058c-11.293,0-14.798-7.4-14.798-16.68
			c0-11.84,5.115-25.967,10.626-36.324h-0.265c-6.593,10.221-12.652,25.426-12.652,37.936c0,10.227,4.305,17.895,18.031,17.895
			c13.595,0,29.731-7.531,37.806-15.604c2.289,0.405,3.363,2.42,3.363,5.247C94.977,68.347,79.377,99.83,45.736,99.83z"/>
	</g>
</g>
<g id="Layer_2" display="none">
</g>
<g id="Layer_3" display="none">
</g>
<g id="Layer_4">
</g>
</svg>
