<?xml version="1.0" encoding="utf-8"?>
<!-- Generator: Adobe Illustrator 16.0.0, SVG Export Plug-In . SVG Version: 6.00 Build 0)  -->
<!DOCTYPE svg PUBLIC "-//W3C//DTD SVG 1.1//EN" "http://www.w3.org/Graphics/SVG/1.1/DTD/svg11.dtd">
<svg version="1.1" id="Layer_1" xmlns="http://www.w3.org/2000/svg" xmlns:xlink="http://www.w3.org/1999/xlink" x="0px" y="0px"
	 width="76.699px" height="47.646px" viewBox="0 0 76.699 47.646" enable-background="new 0 0 76.699 47.646" xml:space="preserve">
<g id="Layer_2" display="none">
</g>
<g id="Layer_3" display="none">
</g>
<g id="Layer_4">
</g>
<g>
	<path fill="#FFFFFF" d="M1.102,36.143c0.565-4.063,2.929-6.001,5.244-7.844c2.268-1.842,3.922-1.746,4.299-4.439
		c0.048-0.236,0.094-0.615,0.094-0.992h9.167c-0.048,0.565-0.096,1.039-0.19,1.7c-0.613,4.11-2.55,5.717-5.197,7.607
		c-1.794,1.37-3.731,2.408-3.968,4.439c-0.237,1.513,0.568,2.364,2.174,2.364c2.316,0,4.062-1.466,5.34-3.166l5.101,6.378
		c-2.739,2.976-6.331,5.007-11.103,5.007C5.353,47.198,0.204,42.804,1.102,36.143z M11.26,15.354
		c0.377-2.599,2.693-4.582,5.244-4.582c3.118,0,5.246,2.457,4.772,5.48c-0.331,2.645-2.599,4.678-5.198,4.678
		C13.007,20.93,10.835,18.377,11.26,15.354z"/>
	<path fill="#FFFFFF" d="M50.581,11.009c-0.566,4.111-2.881,6-5.197,7.842c-2.313,1.843-3.968,1.749-4.347,4.442
		c-0.046,0.282-0.095,0.662-0.095,0.992h-9.165c0.047-0.522,0.093-0.992,0.188-1.654c0.662-4.111,2.554-5.717,5.197-7.607
		c1.798-1.37,3.734-2.408,3.971-4.439c0.234-1.512-0.521-2.41-2.173-2.41c-2.269,0-4.065,1.512-5.341,3.212l-5.103-6.378
		C31.257,2.031,34.849,0,39.621,0C46.376,0,51.478,4.394,50.581,11.009z M40.424,31.845c-0.332,2.598-2.694,4.581-5.244,4.581
		c-3.072,0-5.246-2.456-4.772-5.527c0.331-2.6,2.599-4.63,5.197-4.63C38.675,26.269,40.848,28.773,40.424,31.845z"/>
</g>
</svg>
