<?xml version="1.0" encoding="utf-8"?>
<!-- Generator: Adobe Illustrator 16.0.0, SVG Export Plug-In . SVG Version: 6.00 Build 0)  -->
<!DOCTYPE svg PUBLIC "-//W3C//DTD SVG 1.1//EN" "http://www.w3.org/Graphics/SVG/1.1/DTD/svg11.dtd">
<svg version="1.1" id="Layer_1" xmlns="http://www.w3.org/2000/svg" xmlns:xlink="http://www.w3.org/1999/xlink" x="0px" y="0px"
	 width="441.67px" height="405.752px" viewBox="0 0 441.67 405.752" enable-background="new 0 0 441.67 405.752"
	 xml:space="preserve">
<path d="M302.239,178.13c14.514,62.989-82.044,126.869-111.346,87.439c-15.063-26.53,21.808-42.854,19.955-75.308
	c-1.19-20.853,13.142-39.333,32.228-45.016C271.365,136.825,295.685,149.686,302.239,178.13z M211,251.957
	c12.859,20.32,81.823-27.83,72.559-69.055c-3.587-15.962-16.72-24.814-35.361-19.265c-10.984,3.27-17.306,15.375-16.579,29.833
	C233.36,228.072,204.562,241.785,211,251.957z"/>
<g id="Layer_2" display="none">
</g>
<g id="Layer_3" display="none">
</g>
<g id="Layer_4">
</g>
<path d="M91.403,128.041l14.375,13.44c-25.397,34.478-52.231,19.505-61.018,19.505c-6.453,0-10.103,4.209-10.103,10.524
	c0,7.436,6.033,9.821,17.96,14.592c15.715,6.174,24.557,13.191,24.557,30.17c0,20.205-13.47,33.255-34.658,33.255
	c-18.101,0-29.328-8.138-35.642-24.837l19.786-8.56c3.086,8.699,8.559,13.752,16.135,13.752c6.596,0,11.788-4.069,11.788-12.067
	c0-6.734-3.788-9.821-15.294-14.312c-17.26-6.596-27.223-14.594-27.223-30.73c0-18.381,10.805-31.431,32.834-31.431
	C60.898,141.341,73.672,152.958,91.403,128.041z"/>
<path d="M193.337,197.287c0,30.992-22.599,52.104-52.644,52.104c-30.18,0-52.647-21.112-52.647-52.104
	c0-30.856,22.467-51.969,52.647-51.969C170.871,145.318,193.337,166.431,193.337,197.287z M109.7,197.287
	c0,19.488,12.722,33.157,30.857,33.157c18.135,0,30.856-13.669,30.856-33.157c0-19.353-12.584-33.022-30.856-33.022
	C122.422,164.265,109.7,177.934,109.7,197.287z"/>
<rect x="315.121" y="146.807" width="21.248" height="101.232"/>
<rect x="413.088" y="146.807" width="21.247" height="101.232"/>
<path d="M336.369,146.807c64.46,0,26.793,103.94,79.94,85.376l18.025,15.855c-99.598,35.445-54.294-78.48-97.966-78.48
	l-10.623-7.857L336.369,146.807z"/>
</svg>
