<?xml version="1.0" encoding="utf-8"?>
<!-- Generator: Adobe Illustrator 16.0.0, SVG Export Plug-In . SVG Version: 6.00 Build 0)  -->
<!DOCTYPE svg PUBLIC "-//W3C//DTD SVG 1.1//EN" "http://www.w3.org/Graphics/SVG/1.1/DTD/svg11.dtd">
<svg version="1.1" xmlns="http://www.w3.org/2000/svg" xmlns:xlink="http://www.w3.org/1999/xlink" x="0px" y="0px"
	 width="441.67px" height="405.752px" viewBox="0 0 441.67 405.752" enable-background="new 0 0 441.67 405.752"
	 xml:space="preserve">
<g id="Layer_1">
	<g>
		<g>
			<path d="M60.539,24.784v91.485H36.955V24.784H0V3.902h97.644v20.882H60.539z"/>
			<path d="M274.921,3.902c22.83,0,38.003,12.018,38.003,35.454c0,23.434-15.174,35.452-38.003,35.452h-11.267v41.461h-23.586V3.902
				H274.921z M263.654,53.775h9.913c9.013,0,15.325-4.955,15.325-14.418c0-9.466-6.312-14.572-15.325-14.572h-9.913V53.775z"/>
			<path d="M441.67,57.382c0,69.93-123.661,104.305-141.872,54.376c-10.05-27.549,34.422-36.594,39.144-73.352
				C341.678,17.128,366.627,2.25,388.17,2.25C420.103,2.25,441.67,21.658,441.67,57.382z M324.848,103.851
				c7.061,25.039,95.981-1.576,95.981-47.287c0-22.447-11.982-33.663-33.025-33.663c-12.398,0-24.605,10.029-28.316,25.245
				C350.616,84.561,321.312,91.316,324.848,103.851z"/>
			<path d="M130.834,264.085v-81.896c-26.769,15.615-22.54,63.111-10.501,95.074c5.519,14.659,0.325,24.575-7.157,28.221
				c-8.353,4.066-20.913-1.878-26.677-5.76c-10.639-7.154-25.13-24.253-33.67-51.333c-7.932-25.157-6.098-49.042-20.832-61.322
				v77.016H8.413V151.722h16.36c17.323,0,40.226,26.289,48.064,79.347c3.171,21.471,17.566,41.492,25.618,46.13
				c-24.546-50.114-7.724-122.985,42.698-125.477h13.417v112.363H130.834z"/>
			<path d="M263.612,264.081c0.957-14.692,0.02-30.006-4.637-39.759h-51.48c-0.976,10.409-5.125,30.413-8.984,39.763h-26.665
				c9.136-27.893,14.763-64.436,9.316-90.352c-3.761-17.894-17.278-65.447,4.961-91.414c7.38-8.622,17.609-13.139,25.376-9.469
				c8.681,4.101,9.409,14.478,9.17,21.496c-0.157,4.535,0.58,14.186,1.674,18.864c5.33,22.801,15.495,32.521,29.556,49.054
				c17.456,20.525,40.989,59.777,37.419,101.82L263.612,264.081z M252.631,203.743c-2.439-10.247-14.917-24.336-28.354-41.478
				c-11.117-14.186-23.128-34.89-23.615-61.728c-9.517,15.731-2.109,48.656,3.659,70.267c2.507,9.39,5.195,20.322,5.072,32.938
				H252.631z"/>
			<path d="M347.292,151.722c32.299,0,57.835,19.377,57.835,56.331c0,36.804-25.536,56.033-57.835,56.033h-44.015V151.722H347.292z
				 M326.861,243.202h20.43c18.327,0,33.651-11.714,33.651-35.15c0-23.735-15.324-35.451-33.651-35.451h-20.43V243.202z"/>
			<path d="M73.309,324.105c0,26.439-21.482,43.867-39.359,58.135h39.959v20.884H2.552v-19.378
				c23.435-18.631,46.871-37.71,46.871-57.089c0-10.065-5.71-16.525-14.871-16.525c-8.113,0-14.722,4.507-18.929,10.972
				l-14.42-15.179c7.359-10.062,18.927-16.822,34.549-16.822C58.586,289.102,73.309,301.27,73.309,324.105z"/>
			<path d="M203.212,359.488c-16.163,34.23-43.397,46.265-69.534,46.265c-26.141,0-46.17-14.383-42.664-42.36
				c3.317-26.47,32.609-23.129,44.53-49.711c13.011-29.019,36.873-34.521,50.749-32.078
				C212.971,286.29,218.48,327.145,203.212,359.488z M114.074,364.367c-2.491,13.991,7.285,19.379,19.604,19.379
				c12.167,0,33.012-5.323,45.459-25.888c16.032-26.484,14.429-51.74,5.206-54.652c-12.362-3.904-23.422,3.58-38.216,29.733
				C136.662,349.676,115.914,354.042,114.074,364.367z"/>
			<path d="M246.377,403.124v-85.781l-22.232,11.271v-23.137l26.89-14.723h18.928v112.37H246.377z"/>
			<path d="M359.201,348.1v10.857h16.976v21.03h-16.976v23.136h-23.734v-23.136h-45.218c0,0,0-10.006,0-13.345
				c0-16.264,0.723-38.412,16.788-60.184c24.722-33.512,67.842-36.823,75.145-20.168C390.314,304.834,359.201,304.181,359.201,348.1
				z M353.556,298c-32.858,11.388-40.991,38.063-40.991,60.957h23.877c0,0,0-9.514,0-16.387
				C336.443,327.002,343.794,307.435,353.556,298z"/>
			<path d="M92.378,167.827h-27.49c8.77-30.579,24.499-50.529,50.563-75.098c28.237-26.612,62.786-58.231,77.944-88.827h27.491
				c-13.045,32.223-59.733,75.876-87.543,102.815C112.526,126.888,100.009,138.874,92.378,167.827z"/>
			<polygon points="165.575,71.567 140.69,71.567 112.53,3.902 137.415,3.902 			"/>
		</g>
	</g>
</g>
<g id="Layer_2" display="none">
</g>
<g id="Layer_3" display="none">
</g>
<g id="Layer_4">
</g>
</svg>
