<?xml version="1.0" encoding="utf-8"?>
<!-- Generator: Adobe Illustrator 16.0.0, SVG Export Plug-In . SVG Version: 6.00 Build 0)  -->
<!DOCTYPE svg PUBLIC "-//W3C//DTD SVG 1.1//EN" "http://www.w3.org/Graphics/SVG/1.1/DTD/svg11.dtd">
<svg version="1.1" id="Layer_1" xmlns="http://www.w3.org/2000/svg" xmlns:xlink="http://www.w3.org/1999/xlink" x="0px" y="0px"
	 width="150px" height="150px" viewBox="-23.436 -20.801 150 150" enable-background="new -23.436 -20.801 150 150"
	 xml:space="preserve">
<path fill="#F7941E" d="M120.064,55.52c0,33.4-35.668,62.647-83.593,62.647c-41.896,0-53.405-39.816-53.405-59.438
	c0-49.631,52.836-68.498,87.18-68.498C107.61-9.769,120.064,35.895,120.064,55.52 M43.639,9.853c0,0-11.323,13.965-11.323,42.269
	c0,29.817,25.852,43.969,25.852,43.969l1.7-0.567c0,0,10.377-8.869,10.377-31.703c0-35.853-24.911-53.969-24.911-53.969
	L43.639,9.853L43.639,9.853z"/>
</svg>
