<?xml version="1.0" encoding="utf-8"?>
<!-- Generator: Adobe Illustrator 16.0.0, SVG Export Plug-In . SVG Version: 6.00 Build 0)  -->
<!DOCTYPE svg PUBLIC "-//W3C//DTD SVG 1.1//EN" "http://www.w3.org/Graphics/SVG/1.1/DTD/svg11.dtd">
<svg version="1.1" xmlns="http://www.w3.org/2000/svg" xmlns:xlink="http://www.w3.org/1999/xlink" x="0px" y="0px"
	 width="1087.379px" height="255.996px" viewBox="0 0 1087.379 255.996" enable-background="new 0 0 1087.379 255.996"
	 xml:space="preserve">
<g id="Layer_1">
</g>
<g id="Layer_2" display="none">
</g>
<g id="Layer_3" display="none">
</g>
<g id="Layer_4">
	<rect fill="#F7941E" width="1087.379" height="255.996"/>
	<rect x="8.733" y="11.679" fill="#F7C180" width="1067.946" height="45.321"/>
	<g>
		<rect x="8.733" y="124.679" fill="#F7C180" width="309.721" height="122.494"/>
		<rect x="333.687" y="124.679" fill="#F7C180" width="418.039" height="122.494"/>
		<rect x="766.958" y="124.679" fill="#F7C180" width="201.403" height="122.494"/>
		<rect x="983.594" y="124.679" fill="#F7C180" width="93.085" height="122.494"/>
	</g>
	<g>
		<rect x="333.687" y="70.251" fill="#F7C180" width="93.085" height="39.498"/>
		<rect x="442.005" y="70.251" fill="#F7C180" width="93.085" height="39.498"/>
		<rect x="550.323" y="70.251" fill="#F7C180" width="93.085" height="39.498"/>
		<rect x="8.733" y="70.251" fill="#F7C180" width="93.085" height="39.498"/>
		<rect x="117.051" y="70.251" fill="#F7C180" width="93.085" height="39.498"/>
		<rect x="225.369" y="70.251" fill="#F7C180" width="93.085" height="39.498"/>
		<rect x="658.641" y="70.251" fill="#F7C180" width="93.085" height="39.498"/>
		<rect x="766.958" y="70.251" fill="#F7C180" width="93.085" height="39.498"/>
		<rect x="875.276" y="70.251" fill="#F7C180" width="93.085" height="39.498"/>
		<rect x="983.594" y="70.251" fill="#F7C180" width="93.085" height="39.498"/>
	</g>
	<g>
		<g>
			<path fill="#5C5D60" d="M157.086,94.745c0-2.431,1.452-4.151,3.824-5.16l-0.029-0.088c-2.136-1.008-3.054-2.669-3.054-4.33
				c0-3.053,2.58-5.129,5.959-5.129c3.736,0,5.604,2.343,5.604,4.744c0,1.631-0.8,3.38-3.172,4.507v0.088
				c2.402,0.948,3.885,2.639,3.885,4.981c0,3.35-2.876,5.604-6.554,5.604C159.517,99.963,157.086,97.562,157.086,94.745z
				 M167.464,94.626c0-2.342-1.631-3.469-4.241-4.21c-2.254,0.651-3.469,2.135-3.469,3.973c-0.088,1.958,1.394,3.677,3.855,3.677
				C165.951,98.066,167.464,96.614,167.464,94.626z M160.289,84.99c0,1.928,1.452,2.964,3.676,3.559
				c1.661-0.564,2.936-1.75,2.936-3.5c0-1.542-0.918-3.142-3.262-3.142C161.474,81.907,160.289,83.331,160.289,84.99z"/>
			<path fill="#5C5D60" d="M267.064,97.799c0.563,0.059,1.215,0,2.105-0.09c1.513-0.207,2.936-0.829,4.032-1.867
				c1.276-1.156,2.194-2.847,2.55-5.129h-0.089c-1.067,1.304-2.608,2.075-4.536,2.075c-3.469,0-5.693-2.609-5.693-5.901
				c0-3.647,2.639-6.849,6.583-6.849s6.375,3.202,6.375,8.124c0,4.24-1.423,7.205-3.321,9.044c-1.482,1.452-3.529,2.342-5.604,2.579
				c-0.949,0.149-1.779,0.178-2.402,0.149V97.799z M268.013,86.71c0,2.401,1.453,4.091,3.706,4.091c1.749,0,3.113-0.859,3.795-2.016
				c0.148-0.237,0.238-0.534,0.238-0.949c0-3.291-1.215-5.811-3.943-5.811C269.584,82.025,268.013,83.982,268.013,86.71z"/>
			<path fill="#5C5D60" d="M371.005,82.797h-0.059l-3.351,1.808l-0.504-1.987l4.21-2.253h2.225v19.272h-2.521V82.797z"/>
			<path fill="#5C5D60" d="M393.369,89.793c0,6.554-2.431,10.17-6.701,10.17c-3.765,0-6.315-3.528-6.375-9.903
				c0-6.463,2.788-10.021,6.701-10.021C391.056,80.039,393.369,83.656,393.369,89.793z M382.903,90.09
				c0,5.011,1.542,7.857,3.914,7.857c2.669,0,3.944-3.113,3.944-8.036c0-4.744-1.216-7.857-3.914-7.857
				C384.563,82.054,382.903,84.841,382.903,90.09z"/>
			<path fill="#5C5D60" d="M481.636,82.797h-0.059l-3.351,1.808l-0.505-1.987l4.21-2.253h2.225v19.272h-2.521V82.797z"/>
			<path fill="#5C5D60" d="M496.854,82.797h-0.059l-3.351,1.808l-0.503-1.987l4.209-2.253h2.225v19.272h-2.521V82.797z"/>
			<path fill="#5C5D60" d="M587.893,82.797h-0.059l-3.351,1.808l-0.504-1.987l4.21-2.253h2.225v19.272h-2.521V82.797z"/>
			<path fill="#5C5D60" d="M597.447,99.637v-1.601l2.046-1.987c4.922-4.685,7.146-7.175,7.175-10.081
				c0-1.957-0.949-3.767-3.824-3.767c-1.749,0-3.203,0.89-4.092,1.631l-0.83-1.838c1.335-1.126,3.232-1.957,5.456-1.957
				c4.151,0,5.9,2.847,5.9,5.604c0,3.558-2.58,6.434-6.642,10.348l-1.542,1.423v0.059h8.658v2.164H597.447z"/>
			<path fill="#5C5D60" d="M696.389,82.797h-0.059l-3.351,1.808l-0.504-1.987l4.21-2.253h2.225v19.272h-2.521V82.797z"/>
			<path fill="#5C5D60" d="M706.566,96.643c0.741,0.474,2.461,1.215,4.27,1.215c3.351,0,4.388-2.134,4.359-3.736
				c-0.03-2.698-2.461-3.854-4.982-3.854h-1.452v-1.957h1.452c1.897,0,4.3-0.978,4.3-3.262c0-1.542-0.979-2.905-3.38-2.905
				c-1.542,0-3.025,0.682-3.854,1.274l-0.682-1.897c1.008-0.741,2.965-1.482,5.04-1.482c3.795,0,5.515,2.254,5.515,4.596
				c0,1.987-1.187,3.677-3.559,4.536v0.061c2.372,0.475,4.3,2.252,4.3,4.951c0,3.083-2.402,5.781-7.027,5.781
				c-2.164,0-4.062-0.682-5.011-1.305L706.566,96.643z"/>
			<path fill="#5C5D60" d="M804.069,82.797h-0.059l-3.351,1.808l-0.505-1.987l4.21-2.253h2.225v19.272h-2.521V82.797z"/>
			<path fill="#5C5D60" d="M821.688,99.637v-5.248h-8.955V92.67l8.6-12.305h2.816v11.979h2.698v2.045h-2.698v5.248H821.688z
				 M821.688,92.344V85.91c0-1.009,0.03-2.017,0.089-3.024h-0.089c-0.593,1.127-1.067,1.956-1.601,2.846l-4.714,6.554v0.06H821.688z
				"/>
			<path fill="#5C5D60" d="M913.054,82.797h-0.059l-3.351,1.808l-0.504-1.987l4.21-2.253h2.225v19.272h-2.521V82.797z"/>
			<path fill="#5C5D60" d="M934.114,82.559h-7.354l-0.741,4.952c0.444-0.059,0.859-0.119,1.572-0.119
				c1.482,0,2.964,0.326,4.151,1.037c1.511,0.861,2.757,2.521,2.757,4.952c0,3.766-2.995,6.583-7.175,6.583
				c-2.105,0-3.884-0.593-4.803-1.186l0.652-1.987c0.8,0.474,2.372,1.067,4.122,1.067c2.461,0,4.566-1.601,4.566-4.18
				c-0.03-2.491-1.69-4.27-5.544-4.27c-1.097,0-1.957,0.119-2.669,0.208l1.246-9.251h9.222V82.559z"/>
			<path fill="#5C5D60" d="M1020.868,82.797h-0.059l-3.351,1.808l-0.504-1.987l4.21-2.253h2.225v19.272h-2.521V82.797z"/>
			<path fill="#5C5D60" d="M1041.423,82.203c-0.534-0.029-1.216,0-1.957,0.118c-4.092,0.683-6.256,3.677-6.701,6.85h0.088
				c0.919-1.216,2.521-2.224,4.656-2.224c3.409,0,5.811,2.461,5.811,6.227c0,3.528-2.402,6.79-6.404,6.79
				c-4.123,0-6.82-3.202-6.82-8.213c0-3.795,1.364-6.789,3.262-8.687c1.601-1.572,3.736-2.55,6.167-2.846
				c0.771-0.12,1.423-0.148,1.898-0.148V82.203z M1040.682,93.322c0-2.757-1.572-4.418-3.973-4.418
				c-1.572,0-3.025,0.979-3.736,2.372c-0.179,0.297-0.297,0.682-0.297,1.156c0.059,3.172,1.513,5.516,4.241,5.516
				C1039.169,97.948,1040.682,96.08,1040.682,93.322z"/>
			<g>
				<g>
					<path fill="#5C5D60" d="M61.526,81.888v1.338c0,0.4-0.044,0.723-0.131,0.969c-0.087,0.246-0.173,0.452-0.256,0.619l-6.837,14.1
						c-0.142,0.292-0.342,0.54-0.6,0.744s-0.608,0.306-1.05,0.306h-2.238l7-13.812c0.292-0.566,0.617-1.054,0.975-1.462h-8.65
						c-0.192,0-0.358-0.071-0.5-0.212c-0.142-0.142-0.212-0.309-0.212-0.5v-2.088H61.526z"/>
				</g>
			</g>
		</g>
	</g>
	<rect x="55.276" y="156.998" fill="none" width="216.636" height="61"/>
	<text transform="matrix(1 0 0 1 104.6636 175.5723)"><tspan x="0" y="0" fill="#5C5D60" font-family="'Lato-Bold'" font-size="25">Workshop</tspan><tspan x="-17.549" y="30" fill="#5C5D60" font-family="'Lato-Bold'" font-size="25">Crafting Type</tspan></text>
	<rect x="759.342" y="156.998" fill="none" width="216.636" height="61"/>
	<text transform="matrix(1 0 0 1 793.7549 175.5723)"><tspan x="0" y="0" fill="#5C5D60" font-family="'Lato-Bold'" font-size="25">Conferencias</tspan><tspan x="21.431" y="30" fill="#5C5D60" font-family="'Lato-Bold'" font-size="25">Typomad</tspan></text>
	<rect x="436.372" y="156.998" fill="none" width="216.636" height="61"/>
	<text transform="matrix(1 0 0 1 500.0029 175.5723)"><tspan x="0" y="0" fill="#5C5D60" font-family="'Lato-Bold'" font-size="25">Talleres </tspan><tspan x="-55.543" y="30" fill="#5C5D60" font-family="'Lato-Bold'" font-size="25">(Aún sin anunciar)</tspan></text>
	<rect x="983.594" y="156.998" fill="none" width="93.085" height="61"/>
	<text transform="matrix(1 0 0 1 997.4683 175.5723)" fill="#5C5D60" font-family="'Lato-Bold'" font-size="25">Safari</text>
	<rect x="304.207" y="23.679" fill="none" width="477" height="30.5"/>
	<text transform="matrix(1 0 0 1 468.1948 42.2544)" fill="#5C5D60" font-family="'Lato-Bold'" font-size="25">NOVIEMBRE</text>
</g>
</svg>
